999
dxfrw 0.6.3
  0
SECTION
  2
HEADER
  9
$ACADVER
  1
AC1021
  9
$DWGCODEPAGE
  3
ANSI_1252
  9
$INSBASE
 10
0
 20
0
 30
0
  9
$EXTMIN
 10
-24.5
 20
-139.85
 30
0
  9
$EXTMAX
 10
309.7
 20
234.5
 30
0
  9
$LIMMIN
 10
0
 20
0
  9
$LIMMAX
 10
420
 20
297
  9
$ORTHOMODE
 70
    0
  9
$REGENMODE
 70
    1
  9
$FILLMODE
 70
    1
  9
$QTEXTMODE
 70
    0
  9
$MIRRTEXT
 70
    0
  9
$LTSCALE
 40
1
  9
$ATTMODE
 70
    0
  9
$TEXTSIZE
 40
2.5
  9
$TRACEWID
 40
15.68
  9
$TEXTSTYLE
  7
STANDARD
  9
$CLAYER
  8
rozmir
  9
$CELTYPE
  6
BYLAYER
  9
$CECOLOR
 62
  256
  9
$CELTSCALE
 40
1
  9
$DISPSILH
 70
    0
  9
$DIMSCALE
 40
1
  9
$DIMASZ
 40
5
  9
$DIMEXO
 40
1
  9
$DIMDLI
 40
3.75
  9
$DIMRND
 40
0
  9
$DIMDLE
 40
0
  9
$DIMEXE
 40
2
  9
$DIMTP
 40
0
  9
$DIMTM
 40
0
  9
$DIMTXT
 40
3.5
  9
$DIMCEN
 40
2.5
  9
$DIMTSZ
 40
0
  9
$DIMTOL
 70
    0
  9
$DIMLIM
 70
    0
  9
$DIMTIH
 70
    0
  9
$DIMTOH
 70
    0
  9
$DIMSE1
 70
    0
  9
$DIMSE2
 70
    0
  9
$DIMTAD
 70
    1
  9
$DIMZIN
 70
    9
  9
$DIMBLK
  1

  9
$DIMASO
 70
    1
  9
$DIMSHO
 70
    1
  9
$DIMPOST
  1

  9
$DIMAPOST
  1

  9
$DIMALT
 70
    0
  9
$DIMALTD
 70
    3
  9
$DIMALTF
 40
0.03937
  9
$DIMLFAC
 40
1
  9
$DIMTOFL
 70
    1
  9
$DIMTVP
 40
0
  9
$DIMTIX
 70
    0
  9
$DIMSOXD
 70
    0
  9
$DIMSAH
 70
    0
  9
$DIMBLK1
  1

  9
$DIMBLK2
  1

  9
$DIMSTYLE
  2
STANDARD
  9
$DIMCLRD
 70
    0
  9
$DIMCLRE
 70
    0
  9
$DIMCLRT
 70
    0
  9
$DIMTFAC
 40
1
  9
$DIMGAP
 40
1
  9
$DIMJUST
 70
    0
  9
$DIMSD1
 70
    0
  9
$DIMSD2
 70
    0
  9
$DIMTOLJ
 70
    0
  9
$DIMTZIN
 70
    8
  9
$DIMALTZ
 70
    0
  9
$DIMALTTZ
 70
    0
  9
$DIMUPT
 70
    0
  9
$DIMDEC
 70
    1
  9
$DIMTDEC
 70
    2
  9
$DIMALTU
 70
    2
  9
$DIMALTTD
 70
    3
  9
$DIMTXSTY
  7
standard
  9
$DIMAUNIT
 70
    0
  9
$DIMADEC
 70
    1
  9
$DIMALTRND
 40
0
  9
$DIMAZIN
 70
    0
  9
$DIMDSEP
 70
    0
  9
$DIMATFIT
 70
    3
  9
$DIMFRAC
 70
    0
  9
$DIMLDRBLK
  1
STANDARD
  9
$DIMLUNIT
 70
    2
  9
$DIMLWD
 70
   -2
  9
$DIMLWE
 70
   -2
  9
$DIMTMOVE
 70
    0
  9
$DIMFXL
 40
1
  9
$DIMFXLON
 70
    0
  9
$DIMJOGANG
 40
0.7854
  9
$DIMTFILL
 70
    0
  9
$DIMTFILLCLR
 70
    0
  9
$DIMARCSYM
 70
    0
  9
$DIMLTYPE
  6

  9
$DIMLTEX1
  6

  9
$DIMLTEX2
  6

  9
$LUNITS
 70
    2
  9
$LUPREC
 70
    2
  9
$SKETCHINC
 40
1
  9
$FILLETRAD
 40
0
  9
$AUNITS
 70
    0
  9
$AUPREC
 70
    1
  9
$MENU
  1
.
  9
$ELEVATION
 40
0
  9
$PELEVATION
 40
0
  9
$THICKNESS
 40
0
  9
$LIMCHECK
 70
    0
  9
$CHAMFERA
 40
0
  9
$CHAMFERB
 40
0
  9
$CHAMFERC
 40
0
  9
$CHAMFERD
 40
0
  9
$SKPOLY
 70
    0
  9
$USRTIMER
 70
    1
  9
$ANGBASE
 50
0
  9
$ANGDIR
 70
    0
  9
$PDMODE
 70
   34
  9
$PDSIZE
 40
0
  9
$PLINEWID
 40
0
  9
$SPLFRAME
 70
    0
  9
$SPLINETYPE
 70
    2
  9
$SPLINESEGS
 70
    8
  9
$HANDSEED
  5
20000
  9
$SURFTAB1
 70
    6
  9
$SURFTAB2
 70
    6
  9
$SURFTYPE
 70
    6
  9
$SURFU
 70
    6
  9
$SURFV
 70
    6
  9
$UCSBASE
  2

  9
$UCSNAME
  2

  9
$UCSORG
 10
0
 20
0
 30
0
  9
$UCSXDIR
 10
1
 20
0
 30
0
  9
$UCSYDIR
 10
0
 20
1
 30
0
  9
$UCSORTHOREF
  2

  9
$UCSORTHOVIEW
 70
    0
  9
$UCSORGTOP
 10
0
 20
0
 30
0
  9
$UCSORGBOTTOM
 10
0
 20
0
 30
0
  9
$UCSORGLEFT
 10
0
 20
0
 30
0
  9
$UCSORGRIGHT
 10
0
 20
0
 30
0
  9
$UCSORGFRONT
 10
0
 20
0
 30
0
  9
$UCSORGBACK
 10
0
 20
0
 30
0
  9
$PUCSBASE
  2

  9
$PUCSNAME
  2

  9
$PUCSORG
 10
0
 20
0
 30
0
  9
$PUCSXDIR
 10
1
 20
0
 30
0
  9
$PUCSYDIR
 10
0
 20
1
 30
0
  9
$PUCSORTHOREF
  2

  9
$PUCSORTHOVIEW
 70
    0
  9
$PUCSORGTOP
 10
0
 20
0
 30
0
  9
$PUCSORGBOTTOM
 10
0
 20
0
 30
0
  9
$PUCSORGLEFT
 10
0
 20
0
 30
0
  9
$PUCSORGRIGHT
 10
0
 20
0
 30
0
  9
$PUCSORGFRONT
 10
0
 20
0
 30
0
  9
$PUCSORGBACK
 10
0
 20
0
 30
0
  9
$USERI1
 70
    0
  9
$USERI2
 70
    0
  9
$USERI3
 70
    0
  9
$USERI4
 70
    0
  9
$USERI5
 70
    0
  9
$USERR1
 40
0
  9
$USERR2
 40
0
  9
$USERR3
 40
0
  9
$USERR4
 40
0
  9
$USERR5
 40
0
  9
$WORLDVIEW
 70
    1
  9
$SHADEDGE
 70
    3
  9
$SHADEDIF
 70
   70
  9
$TILEMODE
 70
    1
  9
$MAXACTVP
 70
   64
  9
$PINSBASE
 10
0
 20
0
 30
0
  9
$PLIMCHECK
 70
    0
  9
$PEXTMIN
 10
0
 20
0
 30
0
  9
$PEXTMAX
 10
0
 20
0
 30
0
  9
$GRIDMODE
 70
    1
  9
$SNAPSTYLE
 70
    0
  9
$GRIDUNIT
 10
0
 20
0
  9
$PLIMMIN
 10
0
 20
0
  9
$PLIMMAX
 10
29.7
 20
21
  9
$UNITMODE
 70
    0
  9
$VISRETAIN
 70
    1
  9
$PLINEGEN
 70
    0
  9
$PSLTSCALE
 70
    1
  9
$TREEDEPTH
 70
 3020
  9
$CMLSTYLE
  2
Standard
  9
$CMLJUST
 70
    0
  9
$CMLSCALE
 40
20
  9
$PROXYGRAPHICS
 70
    1
  9
$MEASUREMENT
 70
    1
  9
$CELWEIGHT
370
   -1
  9
$ENDCAPS
280
    0
  9
$JOINSTYLE
280
    0
  9
$LWDISPLAY
290
    0
  9
$INSUNITS
 70
    5
  9
$HYPERLINKBASE
  1

  9
$STYLESHEET
  1

  9
$XEDIT
290
    1
  9
$CEPSNTYPE
380
    0
  9
$PSTYLEMODE
290
    1
  9
$EXTNAMES
290
    1
  9
$PSVPSCALE
 40
1
  9
$OLESTARTUP
290
    0
  9
$SORTENTS
280
  127
  9
$INDEXCTL
280
    0
  9
$HIDETEXT
280
    1
  9
$XCLIPFRAME
290
    0
  9
$HALOGAP
280
    0
  9
$OBSCOLOR
 70
  257
  9
$OBSLTYPE
280
    0
  9
$INTERSECTIONDISPLAY
280
    0
  9
$INTERSECTIONCOLOR
 70
  257
  9
$DIMASSOC
280
    1
  9
$PROJECTNAME
  1

  9
$CAMERADISPLAY
290
    0
  9
$LENSLENGTH
 40
50
  9
$CAMERAHEIGHT
 40
0
  9
$STEPSPERSEC
 40
2
  9
$STEPSIZE
 40
50
  9
$3DDWFPREC
 40
2
  9
$PSOLWIDTH
 40
5
  9
$PSOLHEIGHT
 40
80
  9
$LOFTANG1
 40
1.570796326794897
  9
$LOFTANG2
 40
1.570796326794897
  9
$LOFTMAG1
 40
0
  9
$LOFTMAG2
 40
0
  9
$LOFTPARAM
 70
    7
  9
$LOFTNORMALS
280
    1
  9
$LATITUDE
 40
1
  9
$LONGITUDE
 40
1
  9
$NORTHDIRECTION
 40
0
  9
$TIMEZONE
 70
-8000
  9
$LIGHTGLYPHDISPLAY
280
    1
  9
$TILEMODELIGHTSYNCH
280
    1
  9
$SOLIDHIST
280
    1
  9
$SHOWHIST
280
    1
  9
$DWFFRAME
280
    2
  9
$DGNFRAME
280
    0
  9
$REALWORLDSCALE
290
    1
  9
$INTERFERECOLOR
 62
    1
  9
$CSHADOW
280
    0
  9
$SHADOWPLANELOCATION
 40
0
  0
ENDSEC
  0
SECTION
  2
CLASSES
  0
ENDSEC
  0
SECTION
  2
TABLES
  0
TABLE
  2
VPORT
  5
8
330
0
100
AcDbSymbolTable
 70
    1
  0
VPORT
  5
31
330
2
100
AcDbSymbolTableRecord
100
AcDbViewportTableRecord
  2
*ACTIVE
 70
    0
 10
0
 20
0
 11
1
 21
1
 12
265.1427068723702
 22
119.9705119214586
 13
0
 23
0
 14
10
 24
10
 15
10
 25
10
 16
0
 26
0
 36
1
 17
0
 27
0
 37
0
 40
384.8507012622721
 41
2.012278308321965
 42
50
 43
0
 44
0
 50
0
 51
0
 71
    0
 72
  100
 73
    1
 74
    3
 75
    0
 76
    1
 77
    0
 78
    0
281
    0
 65
    1
110
0
120
0
130
0
111
1
121
0
131
0
112
0
122
1
132
0
 79
    0
146
0
348
10020
 60
    7
 61
    5
292
1
282
    1
141
0
142
0
 63
  250
421
3358443
  0
ENDTAB
  0
TABLE
  2
LTYPE
  5
5
330
0
100
AcDbSymbolTable
 70
    4
  0
LTYPE
  5
14
330
5
100
AcDbSymbolTableRecord
100
AcDbLinetypeTableRecord
  2
ByBlock
 70
    0
  3

 72
   65
 73
    0
 40
0
  0
LTYPE
  5
15
330
5
100
AcDbSymbolTableRecord
100
AcDbLinetypeTableRecord
  2
ByLayer
 70
    0
  3

 72
   65
 73
    0
 40
0
  0
LTYPE
  5
16
330
5
100
AcDbSymbolTableRecord
100
AcDbLinetypeTableRecord
  2
Continuous
 70
    0
  3
Solid line
 72
   65
 73
    0
 40
0
  0
LTYPE
  5
32
330
5
100
AcDbSymbolTableRecord
100
AcDbLinetypeTableRecord
  2
DOT
 70
    0
  3
Dot . . . . . . . . . . . . . . . . . . . . . .
 72
   65
 73
    2
 40
6.35
 49
0
 74
    0
 49
-6.35
 74
    0
  0
LTYPE
  5
33
330
5
100
AcDbSymbolTableRecord
100
AcDbLinetypeTableRecord
  2
DOTTINY
 70
    0
  3
Dot (.15x) .....................................
 72
   65
 73
    2
 40
0.9525
 49
0
 74
    0
 49
-0.9525
 74
    0
  0
LTYPE
  5
34
330
5
100
AcDbSymbolTableRecord
100
AcDbLinetypeTableRecord
  2
DOT2
 70
    0
  3
Dot (.5x) .....................................
 72
   65
 73
    2
 40
3.175
 49
0
 74
    0
 49
-3.175
 74
    0
  0
LTYPE
  5
35
330
5
100
AcDbSymbolTableRecord
100
AcDbLinetypeTableRecord
  2
DOTX2
 70
    0
  3
Dot (2x) .  .  .  .  .  .  .  .  .  .  .  .  .
 72
   65
 73
    2
 40
12.7
 49
0
 74
    0
 49
-12.7
 74
    0
  0
LTYPE
  5
36
330
5
100
AcDbSymbolTableRecord
100
AcDbLinetypeTableRecord
  2
DASHED
 70
    0
  3
Dashed _ _ _ _ _ _ _ _ _ _ _ _ _ _ _ _ _
 72
   65
 73
    2
 40
19.05
 49
12.7
 74
    0
 49
-6.35
 74
    0
  0
LTYPE
  5
37
330
5
100
AcDbSymbolTableRecord
100
AcDbLinetypeTableRecord
  2
DASHEDTINY
 70
    0
  3
Dashed (.15x) _ _ _ _ _ _ _ _ _ _ _ _ _ _ _ _ _
 72
   65
 73
    2
 40
2.8575
 49
1.905
 74
    0
 49
-0.9525
 74
    0
  0
LTYPE
  5
38
330
5
100
AcDbSymbolTableRecord
100
AcDbLinetypeTableRecord
  2
DASHED2
 70
    0
  3
Dashed (.5x) _ _ _ _ _ _ _ _ _ _ _ _ _ _ _ _ _
 72
   65
 73
    2
 40
9.524999999999999
 49
6.35
 74
    0
 49
-3.175
 74
    0
  0
LTYPE
  5
39
330
5
100
AcDbSymbolTableRecord
100
AcDbLinetypeTableRecord
  2
DASHEDX2
 70
    0
  3
Dashed (2x) ____  ____  ____  ____  ____  ___
 72
   65
 73
    2
 40
38.09999999999999
 49
25.4
 74
    0
 49
-12.7
 74
    0
  0
LTYPE
  5
3A
330
5
100
AcDbSymbolTableRecord
100
AcDbLinetypeTableRecord
  2
DASHDOT
 70
    0
  3
Dash dot __ . __ . __ . __ . __ . __ . __ . __
 72
   65
 73
    4
 40
25.4
 49
12.7
 74
    0
 49
-6.35
 74
    0
 49
0
 74
    0
 49
-6.35
 74
    0
  0
LTYPE
  5
3B
330
5
100
AcDbSymbolTableRecord
100
AcDbLinetypeTableRecord
  2
DASHDOTTINY
 70
    0
  3
Dash dot (.15x) _._._._._._._._._._._._._._._.
 72
   65
 73
    4
 40
3.81
 49
1.905
 74
    0
 49
-0.9525
 74
    0
 49
0
 74
    0
 49
-0.9525
 74
    0
  0
LTYPE
  5
3C
330
5
100
AcDbSymbolTableRecord
100
AcDbLinetypeTableRecord
  2
DASHDOT2
 70
    0
  3
Dash dot (.5x) _._._._._._._._._._._._._._._.
 72
   65
 73
    4
 40
12.7
 49
6.35
 74
    0
 49
-3.175
 74
    0
 49
0
 74
    0
 49
-3.175
 74
    0
  0
LTYPE
  5
3D
330
5
100
AcDbSymbolTableRecord
100
AcDbLinetypeTableRecord
  2
DASHDOTX2
 70
    0
  3
Dash dot (2x) ____  .  ____  .  ____  .  ___
 72
   65
 73
    4
 40
50.8
 49
25.4
 74
    0
 49
-12.7
 74
    0
 49
0
 74
    0
 49
-12.7
 74
    0
  0
LTYPE
  5
3E
330
5
100
AcDbSymbolTableRecord
100
AcDbLinetypeTableRecord
  2
DIVIDE
 70
    0
  3
Divide ____ . . ____ . . ____ . . ____ . . ____
 72
   65
 73
    6
 40
31.75
 49
12.7
 74
    0
 49
-6.35
 74
    0
 49
0
 74
    0
 49
-6.35
 74
    0
 49
0
 74
    0
 49
-6.35
 74
    0
  0
LTYPE
  5
3F
330
5
100
AcDbSymbolTableRecord
100
AcDbLinetypeTableRecord
  2
DIVIDETINY
 70
    0
  3
Divide (.15x) __..__..__..__..__..__..__..__.._
 72
   65
 73
    6
 40
4.7625
 49
1.905
 74
    0
 49
-0.9525
 74
    0
 49
0
 74
    0
 49
-0.9525
 74
    0
 49
0
 74
    0
 49
-0.9525
 74
    0
  0
LTYPE
  5
40
330
5
100
AcDbSymbolTableRecord
100
AcDbLinetypeTableRecord
  2
DIVIDE2
 70
    0
  3
Divide (.5x) __..__..__..__..__..__..__..__.._
 72
   65
 73
    6
 40
15.875
 49
6.35
 74
    0
 49
-3.175
 74
    0
 49
0
 74
    0
 49
-3.175
 74
    0
 49
0
 74
    0
 49
-3.175
 74
    0
  0
LTYPE
  5
41
330
5
100
AcDbSymbolTableRecord
100
AcDbLinetypeTableRecord
  2
DIVIDEX2
 70
    0
  3
Divide (2x) ________  .  .  ________  .  .  _
 72
   65
 73
    6
 40
63.5
 49
25.4
 74
    0
 49
-12.7
 74
    0
 49
0
 74
    0
 49
-12.7
 74
    0
 49
0
 74
    0
 49
-12.7
 74
    0
  0
LTYPE
  5
42
330
5
100
AcDbSymbolTableRecord
100
AcDbLinetypeTableRecord
  2
BORDER
 70
    0
  3
Border __ __ . __ __ . __ __ . __ __ . __ __ .
 72
   65
 73
    6
 40
44.45
 49
12.7
 74
    0
 49
-6.35
 74
    0
 49
12.7
 74
    0
 49
-6.35
 74
    0
 49
0
 74
    0
 49
-6.35
 74
    0
  0
LTYPE
  5
43
330
5
100
AcDbSymbolTableRecord
100
AcDbLinetypeTableRecord
  2
BORDERTINY
 70
    0
  3
Border (.15x) __.__.__.__.__.__.__.__.__.__.__.
 72
   65
 73
    6
 40
6.6675
 49
1.905
 74
    0
 49
-0.9525
 74
    0
 49
1.905
 74
    0
 49
-0.9525
 74
    0
 49
0
 74
    0
 49
-0.9525
 74
    0
  0
LTYPE
  5
44
330
5
100
AcDbSymbolTableRecord
100
AcDbLinetypeTableRecord
  2
BORDER2
 70
    0
  3
Border (.5x) __.__.__.__.__.__.__.__.__.__.__.
 72
   65
 73
    6
 40
22.225
 49
6.35
 74
    0
 49
-3.175
 74
    0
 49
6.35
 74
    0
 49
-3.175
 74
    0
 49
0
 74
    0
 49
-3.175
 74
    0
  0
LTYPE
  5
45
330
5
100
AcDbSymbolTableRecord
100
AcDbLinetypeTableRecord
  2
BORDERX2
 70
    0
  3
Border (2x) ____  ____  .  ____  ____  .  ___
 72
   65
 73
    6
 40
88.89999999999999
 49
25.4
 74
    0
 49
-12.7
 74
    0
 49
25.4
 74
    0
 49
-12.7
 74
    0
 49
0
 74
    0
 49
-12.7
 74
    0
  0
LTYPE
  5
46
330
5
100
AcDbSymbolTableRecord
100
AcDbLinetypeTableRecord
  2
CENTER
 70
    0
  3
Center ____ _ ____ _ ____ _ ____ _ ____ _ ____
 72
   65
 73
    4
 40
50.8
 49
31.75
 74
    0
 49
-6.35
 74
    0
 49
6.35
 74
    0
 49
-6.35
 74
    0
  0
LTYPE
  5
47
330
5
100
AcDbSymbolTableRecord
100
AcDbLinetypeTableRecord
  2
CENTERTINY
 70
    0
  3
Center (.15x) ___ _ ___ _ ___ _ ___ _ ___ _ ___
 72
   65
 73
    4
 40
7.619999999999999
 49
4.7625
 74
    0
 49
-0.9525
 74
    0
 49
0.9525
 74
    0
 49
-0.9525
 74
    0
  0
LTYPE
  5
48
330
5
100
AcDbSymbolTableRecord
100
AcDbLinetypeTableRecord
  2
CENTER2
 70
    0
  3
Center (.5x) ___ _ ___ _ ___ _ ___ _ ___ _ ___
 72
   65
 73
    4
 40
28.575
 49
19.05
 74
    0
 49
-3.175
 74
    0
 49
3.175
 74
    0
 49
-3.175
 74
    0
  0
LTYPE
  5
49
330
5
100
AcDbSymbolTableRecord
100
AcDbLinetypeTableRecord
  2
CENTERX2
 70
    0
  3
Center (2x) ________  __  ________  __  _____
 72
   65
 73
    4
 40
101.6
 49
63.5
 74
    0
 49
-12.7
 74
    0
 49
12.7
 74
    0
 49
-12.7
 74
    0
  0
ENDTAB
  0
TABLE
  2
LAYER
  5
2
330
0
100
AcDbSymbolTable
 70
    1
  0
LAYER
  5
10
330
2
100
AcDbSymbolTableRecord
100
AcDbLayerTableRecord
  2
0
 70
    0
 62
    7
  6
CONTINUOUS
370
    0
390
F
1001
LibreCad
1070
    1
  0
LAYER
  5
4A
330
2
100
AcDbSymbolTableRecord
100
AcDbLayerTableRecord
  2
bak
 70
    0
 62
    2
  6
CONTINUOUS
370
   50
390
F
  0
LAYER
  5
4B
330
2
100
AcDbSymbolTableRecord
100
AcDbLayerTableRecord
  2
karkas1
 70
    0
 62
  136
420
32896
  6
CONTINUOUS
370
   50
390
F
  0
LAYER
  5
4C
330
2
100
AcDbSymbolTableRecord
100
AcDbLayerTableRecord
  2
karkas2
 70
    0
 62
  216
420
8388736
  6
CONTINUOUS
370
   50
390
F
  0
LAYER
  5
4D
330
2
100
AcDbSymbolTableRecord
100
AcDbLayerTableRecord
  2
obshivka
 70
    0
 62
   96
420
32768
  6
CONTINUOUS
370
   50
390
F
  0
LAYER
  5
4E
330
2
100
AcDbSymbolTableRecord
100
AcDbLayerTableRecord
  2
rozmir
 70
    0
 62
    4
  6
CONTINUOUS
370
   35
390
F
  0
ENDTAB
  0
TABLE
  2
STYLE
  5
3
330
0
100
AcDbSymbolTable
 70
    3
  0
STYLE
  5
4F
330
2
100
AcDbSymbolTableRecord
100
AcDbTextStyleTableRecord
  2
Standard
 70
    0
 40
0
 41
1
 50
0
 71
    0
 42
1
  3
txt
  4

  0
ENDTAB
  0
TABLE
  2
VIEW
  5
6
330
0
100
AcDbSymbolTable
 70
    0
  0
ENDTAB
  0
TABLE
  2
UCS
  5
7
330
0
100
AcDbSymbolTable
 70
    0
  0
ENDTAB
  0
TABLE
  2
APPID
  5
9
330
0
100
AcDbSymbolTable
 70
    1
  0
APPID
  5
12
330
9
100
AcDbSymbolTableRecord
100
AcDbRegAppTableRecord
  2
ACAD
 70
    0
  0
APPID
  5
50
330
9
100
AcDbSymbolTableRecord
100
AcDbRegAppTableRecord
  2
LibreCad
 70
    0
  0
ENDTAB
  0
TABLE
  2
DIMSTYLE
  5
A
330
0
100
AcDbSymbolTable
 70
    1
100
AcDbDimStyleTable
 71
    1
  0
DIMSTYLE
105
51
330
A
100
AcDbSymbolTableRecord
100
AcDbDimStyleTableRecord
  2
Standard
 70
    0
 40
1
 41
5
 42
1
 43
0.38
 44
2
 45
0
 46
0
 47
0
 48
0
 49
1
140
3.5
141
0.09
142
0
143
25.4
144
1
145
0
146
1
147
1
148
0
 71
    0
 72
    0
 73
    0
 74
    1
 75
    0
 76
    0
 77
    0
 78
    9
 79
    0
170
    0
171
    2
172
    0
173
    0
174
    0
175
    0
176
    0
177
    0
178
    0
179
    1
271
    1
272
    4
273
    2
274
    2
275
    0
276
    0
277
    2
278
    0
279
    0
280
    0
281
    0
282
    0
283
    1
284
    0
285
    0
286
    0
288
    0
289
    3
340
standard
341

371
   -2
372
   -2
  0
ENDTAB
  0
TABLE
  2
BLOCK_RECORD
  5
1
330
0
100
AcDbSymbolTable
 70
    2
  0
BLOCK_RECORD
  5
1F
330
1
100
AcDbSymbolTableRecord
100
AcDbBlockTableRecord
  2
*Model_Space
 70
    0
280
    1
281
    0
  0
BLOCK_RECORD
  5
1E
330
1
100
AcDbSymbolTableRecord
100
AcDbBlockTableRecord
  2
*Paper_Space
 70
    0
280
    1
281
    0
  0
BLOCK_RECORD
  5
52
330
1
100
AcDbSymbolTableRecord
100
AcDbBlockTableRecord
  2
*D29
 70
    0
280
    1
281
    0
  0
BLOCK_RECORD
  5
55
330
1
100
AcDbSymbolTableRecord
100
AcDbBlockTableRecord
  2
*D12
 70
    0
280
    1
281
    0
  0
BLOCK_RECORD
  5
58
330
1
100
AcDbSymbolTableRecord
100
AcDbBlockTableRecord
  2
*D13
 70
    0
280
    1
281
    0
  0
BLOCK_RECORD
  5
5B
330
1
100
AcDbSymbolTableRecord
100
AcDbBlockTableRecord
  2
*D22
 70
    0
280
    1
281
    0
  0
BLOCK_RECORD
  5
5E
330
1
100
AcDbSymbolTableRecord
100
AcDbBlockTableRecord
  2
*D10
 70
    0
280
    1
281
    0
  0
BLOCK_RECORD
  5
61
330
1
100
AcDbSymbolTableRecord
100
AcDbBlockTableRecord
  2
*D2
 70
    0
280
    1
281
    0
  0
BLOCK_RECORD
  5
64
330
1
100
AcDbSymbolTableRecord
100
AcDbBlockTableRecord
  2
*D7
 70
    0
280
    1
281
    0
  0
BLOCK_RECORD
  5
67
330
1
100
AcDbSymbolTableRecord
100
AcDbBlockTableRecord
  2
*D23
 70
    0
280
    1
281
    0
  0
BLOCK_RECORD
  5
6A
330
1
100
AcDbSymbolTableRecord
100
AcDbBlockTableRecord
  2
*D20
 70
    0
280
    1
281
    0
  0
BLOCK_RECORD
  5
6D
330
1
100
AcDbSymbolTableRecord
100
AcDbBlockTableRecord
  2
*D5
 70
    0
280
    1
281
    0
  0
BLOCK_RECORD
  5
70
330
1
100
AcDbSymbolTableRecord
100
AcDbBlockTableRecord
  2
*D4
 70
    0
280
    1
281
    0
  0
BLOCK_RECORD
  5
73
330
1
100
AcDbSymbolTableRecord
100
AcDbBlockTableRecord
  2
*D21
 70
    0
280
    1
281
    0
  0
BLOCK_RECORD
  5
76
330
1
100
AcDbSymbolTableRecord
100
AcDbBlockTableRecord
  2
*D25
 70
    0
280
    1
281
    0
  0
BLOCK_RECORD
  5
79
330
1
100
AcDbSymbolTableRecord
100
AcDbBlockTableRecord
  2
*D26
 70
    0
280
    1
281
    0
  0
BLOCK_RECORD
  5
7C
330
1
100
AcDbSymbolTableRecord
100
AcDbBlockTableRecord
  2
*D3
 70
    0
280
    1
281
    0
  0
BLOCK_RECORD
  5
7F
330
1
100
AcDbSymbolTableRecord
100
AcDbBlockTableRecord
  2
*D6
 70
    0
280
    1
281
    0
  0
BLOCK_RECORD
  5
82
330
1
100
AcDbSymbolTableRecord
100
AcDbBlockTableRecord
  2
*D9
 70
    0
280
    1
281
    0
  0
BLOCK_RECORD
  5
85
330
1
100
AcDbSymbolTableRecord
100
AcDbBlockTableRecord
  2
*D1
 70
    0
280
    1
281
    0
  0
BLOCK_RECORD
  5
88
330
1
100
AcDbSymbolTableRecord
100
AcDbBlockTableRecord
  2
*D17
 70
    0
280
    1
281
    0
  0
BLOCK_RECORD
  5
8B
330
1
100
AcDbSymbolTableRecord
100
AcDbBlockTableRecord
  2
*D19
 70
    0
280
    1
281
    0
  0
BLOCK_RECORD
  5
8E
330
1
100
AcDbSymbolTableRecord
100
AcDbBlockTableRecord
  2
*D11
 70
    0
280
    1
281
    0
  0
BLOCK_RECORD
  5
91
330
1
100
AcDbSymbolTableRecord
100
AcDbBlockTableRecord
  2
*D14
 70
    0
280
    1
281
    0
  0
BLOCK_RECORD
  5
94
330
1
100
AcDbSymbolTableRecord
100
AcDbBlockTableRecord
  2
*D18
 70
    0
280
    1
281
    0
  0
BLOCK_RECORD
  5
97
330
1
100
AcDbSymbolTableRecord
100
AcDbBlockTableRecord
  2
*D28
 70
    0
280
    1
281
    0
  0
BLOCK_RECORD
  5
9A
330
1
100
AcDbSymbolTableRecord
100
AcDbBlockTableRecord
  2
*D8
 70
    0
280
    1
281
    0
  0
BLOCK_RECORD
  5
9D
330
1
100
AcDbSymbolTableRecord
100
AcDbBlockTableRecord
  2
*D24
 70
    0
280
    1
281
    0
  0
BLOCK_RECORD
  5
A0
330
1
100
AcDbSymbolTableRecord
100
AcDbBlockTableRecord
  2
*D15
 70
    0
280
    1
281
    0
  0
BLOCK_RECORD
  5
A3
330
1
100
AcDbSymbolTableRecord
100
AcDbBlockTableRecord
  2
*D16
 70
    0
280
    1
281
    0
  0
BLOCK_RECORD
  5
A6
330
1
100
AcDbSymbolTableRecord
100
AcDbBlockTableRecord
  2
*D27
 70
    0
280
    1
281
    0
  0
ENDTAB
  0
ENDSEC
  0
SECTION
  2
BLOCKS
  0
BLOCK
  5
20
330
1F
100
AcDbEntity
  8
0
100
AcDbBlockBegin
  2
*Model_Space
 70
    0
 10
0
 20
0
 30
0
  3
*Model_Space
  1

  0
ENDBLK
  5
21
330
1F
100
AcDbEntity
  8
0
100
AcDbBlockEnd
  0
BLOCK
  5
1C
330
1B
100
AcDbEntity
  8
0
100
AcDbBlockBegin
  2
*Paper_Space
 70
    0
 10
0
 20
0
 30
0
  3
*Paper_Space
  1

  0
ENDBLK
  5
1D
330
1F
100
AcDbEntity
  8
0
100
AcDbBlockEnd
  0
BLOCK
  5
53
330
52
100
AcDbEntity
  8
0
100
AcDbBlockBegin
  2
*D29
 70
    1
 10
0
 20
0
  3
*D29
  1

  0
LINE
  5
A9
100
AcDbEntity
  8
rozmir
  6
ByBlock
 62
    0
370
   -2
100
AcDbLine
 10
203
 20
20
 11
243
 21
20
  0
SOLID
  5
AA
100
AcDbEntity
  8
rozmir
  6
ByBlock
 62
    0
370
   -2
100
AcDbTrace
 10
203
 20
20
 30
0
 11
208
 21
20.83256931554568
 31
0
 12
208
 22
19.16743068445432
 32
0
 13
208
 23
19.16743068445432
 33
0
  0
SOLID
  5
AB
100
AcDbEntity
  8
rozmir
  6
ByBlock
 62
    0
370
   -2
100
AcDbTrace
 10
243
 20
20
 30
0
 11
238
 21
19.16743068445432
 31
0
 12
238
 22
20.83256931554568
 32
0
 13
238
 23
20.83256931554568
 33
0
  0
MTEXT
  5
AC
100
AcDbEntity
  8
rozmir
  6
CONTINUOUS
 62
    0
370
   -2
100
AcDbMText
 10
223
 20
22.75
 30
0
 40
3.5
 41
4.666666666666667
 71
    5
 72
    1
  1
40
  7
standard
210
0
220
0
230
1
 50
0
 73
    2
 44
1
  0
LINE
  5
AD
100
AcDbEntity
  8
rozmir
  6
ByBlock
 62
    0
370
   -2
100
AcDbLine
 10
203
 20
4
 11
203
 21
22
  0
LINE
  5
AE
100
AcDbEntity
  8
rozmir
  6
ByBlock
 62
    0
370
   -2
100
AcDbLine
 10
243
 20
4
 11
243
 21
22
  0
ENDBLK
  5
54
330
52
100
AcDbEntity
  8
0
100
AcDbBlockEnd
  0
BLOCK
  5
56
330
55
100
AcDbEntity
  8
0
100
AcDbBlockBegin
  2
*D12
 70
    1
 10
0
 20
0
  3
*D12
  1

  0
LINE
  5
AF
100
AcDbEntity
  8
rozmir
  6
ByBlock
 62
    0
370
   -2
100
AcDbLine
 10
80.30000000000004
 20
210
 11
126
 21
210
  0
SOLID
  5
B0
100
AcDbEntity
  8
rozmir
  6
ByBlock
 62
    0
370
   -2
100
AcDbTrace
 10
80.30000000000004
 20
210
 30
0
 11
85.30000000000004
 21
210.8325693155457
 31
0
 12
85.30000000000004
 22
209.1674306844543
 32
0
 13
85.30000000000004
 23
209.1674306844543
 33
0
  0
SOLID
  5
B1
100
AcDbEntity
  8
rozmir
  6
ByBlock
 62
    0
370
   -2
100
AcDbTrace
 10
126
 20
210
 30
0
 11
121
 21
209.1674306844543
 31
0
 12
121
 22
210.8325693155457
 32
0
 13
121
 23
210.8325693155457
 33
0
  0
MTEXT
  5
B2
100
AcDbEntity
  8
rozmir
  6
CONTINUOUS
 62
    0
370
   -2
100
AcDbMText
 10
103.15
 20
212.75
 30
0
 40
3.5
 41
8.555555555555774
 71
    5
 72
    1
  1
45.7
  7
standard
210
0
220
0
230
1
 50
0
 73
    2
 44
1
  0
LINE
  5
B3
100
AcDbEntity
  8
rozmir
  6
ByBlock
 62
    0
370
   -2
100
AcDbLine
 10
80.30000000000004
 20
198
 11
80.30000000000004
 21
212
  0
LINE
  5
B4
100
AcDbEntity
  8
rozmir
  6
ByBlock
 62
    0
370
   -2
100
AcDbLine
 10
126
 20
201
 11
126
 21
212
  0
ENDBLK
  5
57
330
55
100
AcDbEntity
  8
0
100
AcDbBlockEnd
  0
BLOCK
  5
59
330
58
100
AcDbEntity
  8
0
100
AcDbBlockBegin
  2
*D13
 70
    1
 10
0
 20
0
  3
*D13
  1

  0
LINE
  5
B5
100
AcDbEntity
  8
rozmir
  6
ByBlock
 62
    0
370
   -2
100
AcDbLine
 10
160
 20
200
 11
160
 21
0
  0
SOLID
  5
B6
100
AcDbEntity
  8
rozmir
  6
ByBlock
 62
    0
370
   -2
100
AcDbTrace
 10
160
 20
200
 30
0
 11
160.8325693155457
 21
195
 31
0
 12
159.1674306844543
 22
195
 32
0
 13
159.1674306844543
 23
195
 33
0
  0
SOLID
  5
B7
100
AcDbEntity
  8
rozmir
  6
ByBlock
 62
    0
370
   -2
100
AcDbTrace
 10
160
 20
0
 30
0
 11
159.1674306844543
 21
5
 31
0
 12
160.8325693155457
 22
5
 32
0
 13
160.8325693155457
 23
5
 33
0
  0
MTEXT
  5
B8
100
AcDbEntity
  8
rozmir
  6
CONTINUOUS
 62
    0
370
   -2
100
AcDbMText
 10
157.25
 20
100
 30
0
 40
3.5
 41
7
 71
    5
 72
    1
  1
200
  7
standard
210
0
220
0
230
1
 50
90
 73
    2
 44
1
  0
LINE
  5
B9
100
AcDbEntity
  8
rozmir
  6
ByBlock
 62
    0
370
   -2
100
AcDbLine
 10
130
 20
200
 11
162
 21
200
  0
LINE
  5
BA
100
AcDbEntity
  8
rozmir
  6
ByBlock
 62
    0
370
   -2
100
AcDbLine
 10
130
 20
0
 11
162
 21
0
  0
ENDBLK
  5
5A
330
58
100
AcDbEntity
  8
0
100
AcDbBlockEnd
  0
BLOCK
  5
5C
330
5B
100
AcDbEntity
  8
0
100
AcDbBlockBegin
  2
*D22
 70
    1
 10
0
 20
0
  3
*D22
  1

  0
LINE
  5
BB
100
AcDbEntity
  8
rozmir
  6
ByBlock
 62
    0
370
   -2
100
AcDbLine
 10
105.85
 20
-117
 11
105.85
 21
-88
  0
SOLID
  5
BC
100
AcDbEntity
  8
rozmir
  6
ByBlock
 62
    0
370
   -2
100
AcDbTrace
 10
105.85
 20
-107
 30
0
 11
106.6825693155457
 21
-112
 31
0
 12
105.0174306844543
 22
-112
 32
0
 13
105.0174306844543
 23
-112
 33
0
  0
SOLID
  5
BD
100
AcDbEntity
  8
rozmir
  6
ByBlock
 62
    0
370
   -2
100
AcDbTrace
 10
105.85
 20
-98
 30
0
 11
105.0174306844543
 21
-93
 31
0
 12
106.6825693155457
 22
-93
 32
0
 13
106.6825693155457
 23
-93
 33
0
  0
MTEXT
  5
BE
100
AcDbEntity
  8
rozmir
  6
CONTINUOUS
 62
    0
370
   -2
100
AcDbMText
 10
103.1
 20
-102.5
 30
0
 40
3.5
 41
1.555555555555773
 71
    5
 72
    1
  1
9
  7
standard
210
0
220
0
230
1
 50
90
 73
    2
 44
1
  0
LINE
  5
BF
100
AcDbEntity
  8
rozmir
  6
ByBlock
 62
    0
370
   -2
100
AcDbLine
 10
100.4999999999998
 20
-107
 11
107.85
 21
-107
  0
LINE
  5
C0
100
AcDbEntity
  8
rozmir
  6
ByBlock
 62
    0
370
   -2
100
AcDbLine
 10
98.49999999999991
 20
-98
 11
107.85
 21
-98
  0
ENDBLK
  5
5D
330
5B
100
AcDbEntity
  8
0
100
AcDbBlockEnd
  0
BLOCK
  5
5F
330
5E
100
AcDbEntity
  8
0
100
AcDbBlockBegin
  2
*D10
 70
    1
 10
0
 20
0
  3
*D10
  1

  0
LINE
  5
C1
100
AcDbEntity
  8
rozmir
  6
ByBlock
 62
    0
370
   -2
100
AcDbLine
 10
3.000000000000014
 20
220
 11
126
 21
220
  0
SOLID
  5
C2
100
AcDbEntity
  8
rozmir
  6
ByBlock
 62
    0
370
   -2
100
AcDbTrace
 10
3.000000000000014
 20
220
 30
0
 11
8.000000000000014
 21
220.8325693155457
 31
0
 12
8.000000000000014
 22
219.1674306844543
 32
0
 13
8.000000000000014
 23
219.1674306844543
 33
0
  0
SOLID
  5
C3
100
AcDbEntity
  8
rozmir
  6
ByBlock
 62
    0
370
   -2
100
AcDbTrace
 10
126
 20
220
 30
0
 11
121
 21
219.1674306844543
 31
0
 12
121
 22
220.8325693155457
 32
0
 13
121
 23
220.8325693155457
 33
0
  0
MTEXT
  5
C4
100
AcDbEntity
  8
rozmir
  6
CONTINUOUS
 62
    0
370
   -2
100
AcDbMText
 10
64.5
 20
222.75
 30
0
 40
3.5
 41
6.22222222222244
 71
    5
 72
    1
  1
123
  7
standard
210
0
220
0
230
1
 50
0
 73
    2
 44
1
  0
LINE
  5
C5
100
AcDbEntity
  8
rozmir
  6
ByBlock
 62
    0
370
   -2
100
AcDbLine
 10
3.000000000000001
 20
201
 11
3.000000000000016
 21
222
  0
LINE
  5
C6
100
AcDbEntity
  8
rozmir
  6
ByBlock
 62
    0
370
   -2
100
AcDbLine
 10
126
 20
201
 11
126
 21
222
  0
ENDBLK
  5
60
330
5E
100
AcDbEntity
  8
0
100
AcDbBlockEnd
  0
BLOCK
  5
62
330
61
100
AcDbEntity
  8
0
100
AcDbBlockBegin
  2
*D2
 70
    1
 10
0
 20
0
  3
*D2
  1

  0
LINE
  5
C7
100
AcDbEntity
  8
rozmir
  6
ByBlock
 62
    0
370
   -2
100
AcDbLine
 10
-10.00000000000001
 20
3.399999999999991
 11
-10
 21
90.50000000000001
  0
SOLID
  5
C8
100
AcDbEntity
  8
rozmir
  6
ByBlock
 62
    0
370
   -2
100
AcDbTrace
 10
-10.00000000000001
 20
3.399999999999991
 30
0
 11
-10.83256931554569
 21
8.399999999999991
 31
0
 12
-9.167430684454324
 22
8.399999999999991
 32
0
 13
-9.167430684454324
 23
8.399999999999991
 33
0
  0
SOLID
  5
C9
100
AcDbEntity
  8
rozmir
  6
ByBlock
 62
    0
370
   -2
100
AcDbTrace
 10
-10
 20
90.50000000000001
 30
0
 11
-9.167430684454319
 21
85.50000000000001
 31
0
 12
-10.83256931554568
 22
85.50000000000001
 32
0
 13
-10.83256931554568
 23
85.50000000000001
 33
0
  0
MTEXT
  5
CA
100
AcDbEntity
  8
rozmir
  6
CONTINUOUS
 62
    0
370
   -2
100
AcDbMText
 10
-12.75
 20
46.95
 30
0
 40
3.5
 41
7.388888888888889
 71
    5
 72
    1
  1
87.1
  7
standard
210
0
220
0
230
1
 50
90
 73
    2
 44
1
  0
LINE
  5
CB
100
AcDbEntity
  8
rozmir
  6
ByBlock
 62
    0
370
   -2
100
AcDbLine
 10
2.3
 20
3.4
 11
-12.00000000000001
 21
3.399999999999992
  0
LINE
  5
CC
100
AcDbEntity
  8
rozmir
  6
ByBlock
 62
    0
370
   -2
100
AcDbLine
 10
4.3
 20
90.50000000000001
 11
-12
 21
90.50000000000001
  0
ENDBLK
  5
63
330
61
100
AcDbEntity
  8
0
100
AcDbBlockEnd
  0
BLOCK
  5
65
330
64
100
AcDbEntity
  8
0
100
AcDbBlockBegin
  2
*D7
 70
    1
 10
0
 20
0
  3
*D7
  1

  0
LINE
  5
CD
100
AcDbEntity
  8
rozmir
  6
ByBlock
 62
    0
370
   -2
100
AcDbLine
 10
3.299999999999983
 20
190
 11
77.00000000000003
 21
190
  0
SOLID
  5
CE
100
AcDbEntity
  8
rozmir
  6
ByBlock
 62
    0
370
   -2
100
AcDbTrace
 10
3.299999999999983
 20
190
 30
0
 11
8.299999999999983
 21
190.8325693155457
 31
0
 12
8.299999999999983
 22
189.1674306844543
 32
0
 13
8.299999999999983
 23
189.1674306844543
 33
0
  0
SOLID
  5
CF
100
AcDbEntity
  8
rozmir
  6
ByBlock
 62
    0
370
   -2
100
AcDbTrace
 10
77.00000000000003
 20
190
 30
0
 11
72.00000000000003
 21
189.1674306844543
 31
0
 12
72.00000000000003
 22
190.8325693155457
 32
0
 13
72.00000000000003
 23
190.8325693155457
 33
0
  0
MTEXT
  5
D0
100
AcDbEntity
  8
rozmir
  6
CONTINUOUS
 62
    0
370
   -2
100
AcDbMText
 10
40.15000000000001
 20
192.75
 30
0
 40
3.5
 41
8.166666666666885
 71
    5
 72
    1
  1
73.7
  7
standard
210
0
220
0
230
1
 50
0
 73
    2
 44
1
  0
LINE
  5
D1
100
AcDbEntity
  8
rozmir
  6
ByBlock
 62
    0
370
   -2
100
AcDbLine
 10
3.299999999999997
 20
183
 11
3.299999999999979
 21
192
  0
LINE
  5
D2
100
AcDbEntity
  8
rozmir
  6
ByBlock
 62
    0
370
   -2
100
AcDbLine
 10
77.00000000000003
 20
183
 11
77.00000000000003
 21
192
  0
ENDBLK
  5
66
330
64
100
AcDbEntity
  8
0
100
AcDbBlockEnd
  0
BLOCK
  5
68
330
67
100
AcDbEntity
  8
0
100
AcDbBlockBegin
  2
*D23
 70
    1
 10
0
 20
0
  3
*D23
  1

  0
LINE
  5
D3
100
AcDbEntity
  8
rozmir
  6
ByBlock
 62
    0
370
   -2
100
AcDbLine
 10
63.49999999999997
 20
-40.84999999999999
 11
97.5
 21
-40.84999999999999
  0
SOLID
  5
D4
100
AcDbEntity
  8
rozmir
  6
ByBlock
 62
    0
370
   -2
100
AcDbTrace
 10
63.49999999999997
 20
-40.84999999999999
 30
0
 11
68.49999999999997
 21
-40.01743068445431
 31
0
 12
68.49999999999997
 22
-41.68256931554568
 32
0
 13
68.49999999999997
 23
-41.68256931554568
 33
0
  0
SOLID
  5
D5
100
AcDbEntity
  8
rozmir
  6
ByBlock
 62
    0
370
   -2
100
AcDbTrace
 10
97.5
 20
-40.84999999999999
 30
0
 11
92.5
 21
-41.68256931554568
 31
0
 12
92.5
 22
-40.01743068445431
 32
0
 13
92.5
 23
-40.01743068445431
 33
0
  0
MTEXT
  5
D6
100
AcDbEntity
  8
rozmir
  6
CONTINUOUS
 62
    0
370
   -2
100
AcDbMText
 10
80.49999999999999
 20
-38.09999999999999
 30
0
 40
3.5
 41
4.666666666666884
 71
    5
 72
    1
  1
34
  7
standard
210
0
220
0
230
1
 50
0
 73
    2
 44
1
  0
LINE
  5
D7
100
AcDbEntity
  8
rozmir
  6
ByBlock
 62
    0
370
   -2
100
AcDbLine
 10
63.49999999999997
 20
-50.00000000000001
 11
63.49999999999997
 21
-38.84999999999999
  0
LINE
  5
D8
100
AcDbEntity
  8
rozmir
  6
ByBlock
 62
    0
370
   -2
100
AcDbLine
 10
97.5
 20
-50
 11
97.5
 21
-38.84999999999999
  0
ENDBLK
  5
69
330
67
100
AcDbEntity
  8
0
100
AcDbBlockEnd
  0
BLOCK
  5
6B
330
6A
100
AcDbEntity
  8
0
100
AcDbBlockBegin
  2
*D20
 70
    1
 10
0
 20
0
  3
*D20
  1

  0
LINE
  5
D9
100
AcDbEntity
  8
rozmir
  6
ByBlock
 62
    0
370
   -2
100
AcDbLine
 10
105.85
 20
-41
 11
105.85
 21
-70.00000000000001
  0
SOLID
  5
DA
100
AcDbEntity
  8
rozmir
  6
ByBlock
 62
    0
370
   -2
100
AcDbTrace
 10
105.85
 20
-51
 30
0
 11
105.0174306844543
 21
-46
 31
0
 12
106.6825693155457
 22
-46
 32
0
 13
106.6825693155457
 23
-46
 33
0
  0
SOLID
  5
DB
100
AcDbEntity
  8
rozmir
  6
ByBlock
 62
    0
370
   -2
100
AcDbTrace
 10
105.85
 20
-60.00000000000001
 30
0
 11
106.6825693155457
 21
-65.00000000000001
 31
0
 12
105.0174306844543
 22
-65.00000000000001
 32
0
 13
105.0174306844543
 23
-65.00000000000001
 33
0
  0
MTEXT
  5
DC
100
AcDbEntity
  8
rozmir
  6
CONTINUOUS
 62
    0
370
   -2
100
AcDbMText
 10
103.1
 20
-55.50000000000001
 30
0
 40
3.5
 41
1.555555555555773
 71
    5
 72
    1
  1
9
  7
standard
210
0
220
0
230
1
 50
90
 73
    2
 44
1
  0
LINE
  5
DD
100
AcDbEntity
  8
rozmir
  6
ByBlock
 62
    0
370
   -2
100
AcDbLine
 10
100.5
 20
-51
 11
107.85
 21
-51
  0
LINE
  5
DE
100
AcDbEntity
  8
rozmir
  6
ByBlock
 62
    0
370
   -2
100
AcDbLine
 10
98.5
 20
-60.00000000000001
 11
107.85
 21
-60.00000000000001
  0
ENDBLK
  5
6C
330
6A
100
AcDbEntity
  8
0
100
AcDbBlockEnd
  0
BLOCK
  5
6E
330
6D
100
AcDbEntity
  8
0
100
AcDbBlockBegin
  2
*D5
 70
    1
 10
0
 20
0
  3
*D5
  1

  0
LINE
  5
DF
100
AcDbEntity
  8
rozmir
  6
ByBlock
 62
    0
370
   -2
100
AcDbLine
 10
307.7
 20
181.5
 11
307.7
 21
0.5000000000000002
  0
SOLID
  5
E0
100
AcDbEntity
  8
rozmir
  6
ByBlock
 62
    0
370
   -2
100
AcDbTrace
 10
307.7
 20
181.5
 30
0
 11
308.5325693155457
 21
176.5
 31
0
 12
306.8674306844543
 22
176.5
 32
0
 13
306.8674306844543
 23
176.5
 33
0
  0
SOLID
  5
E1
100
AcDbEntity
  8
rozmir
  6
ByBlock
 62
    0
370
   -2
100
AcDbTrace
 10
307.7
 20
0.5000000000000002
 30
0
 11
306.8674306844543
 21
5.5
 31
0
 12
308.5325693155457
 22
5.5
 32
0
 13
308.5325693155457
 23
5.5
 33
0
  0
MTEXT
  5
E2
100
AcDbEntity
  8
rozmir
  6
CONTINUOUS
 62
    0
370
   -2
100
AcDbMText
 10
304.95
 20
91
 30
0
 40
3.5
 41
5.444444444444445
 71
    5
 72
    1
  1
181
  7
standard
210
0
220
0
230
1
 50
90
 73
    2
 44
1
  0
LINE
  5
E3
100
AcDbEntity
  8
rozmir
  6
ByBlock
 62
    0
370
   -2
100
AcDbLine
 10
298
 20
181.5
 11
309.7
 21
181.5
  0
LINE
  5
E4
100
AcDbEntity
  8
rozmir
  6
ByBlock
 62
    0
370
   -2
100
AcDbLine
 10
298
 20
0.5000000000000001
 11
309.7
 21
0.5000000000000002
  0
ENDBLK
  5
6F
330
6D
100
AcDbEntity
  8
0
100
AcDbBlockEnd
  0
BLOCK
  5
71
330
70
100
AcDbEntity
  8
0
100
AcDbBlockBegin
  2
*D4
 70
    1
 10
0
 20
0
  3
*D4
  1

  0
LINE
  5
E5
100
AcDbEntity
  8
rozmir
  6
ByBlock
 62
    0
370
   -2
100
AcDbLine
 10
200
 20
220
 11
298
 21
220
  0
SOLID
  5
E6
100
AcDbEntity
  8
rozmir
  6
ByBlock
 62
    0
370
   -2
100
AcDbTrace
 10
200
 20
220
 30
0
 11
205
 21
220.8325693155457
 31
0
 12
205
 22
219.1674306844543
 32
0
 13
205
 23
219.1674306844543
 33
0
  0
SOLID
  5
E7
100
AcDbEntity
  8
rozmir
  6
ByBlock
 62
    0
370
   -2
100
AcDbTrace
 10
298
 20
220
 30
0
 11
293
 21
219.1674306844543
 31
0
 12
293
 22
220.8325693155457
 32
0
 13
293
 23
220.8325693155457
 33
0
  0
MTEXT
  5
E8
100
AcDbEntity
  8
rozmir
  6
CONTINUOUS
 62
    0
370
   -2
100
AcDbMText
 10
249
 20
222.75
 30
0
 40
3.5
 41
4.277777777777995
 71
    5
 72
    1
  1
98
  7
standard
210
0
220
0
230
1
 50
0
 73
    2
 44
1
  0
LINE
  5
E9
100
AcDbEntity
  8
rozmir
  6
ByBlock
 62
    0
370
   -2
100
AcDbLine
 10
200
 20
201
 11
200
 21
222
  0
LINE
  5
EA
100
AcDbEntity
  8
rozmir
  6
ByBlock
 62
    0
370
   -2
100
AcDbLine
 10
298
 20
201
 11
298
 21
222
  0
ENDBLK
  5
72
330
70
100
AcDbEntity
  8
0
100
AcDbBlockEnd
  0
BLOCK
  5
74
330
73
100
AcDbEntity
  8
0
100
AcDbBlockBegin
  2
*D21
 70
    1
 10
0
 20
0
  3
*D21
  1

  0
LINE
  5
EB
100
AcDbEntity
  8
rozmir
  6
ByBlock
 62
    0
370
   -2
100
AcDbLine
 10
89.5
 20
-40.84999999999999
 11
117.5000000000002
 21
-40.84999999999999
  0
SOLID
  5
EC
100
AcDbEntity
  8
rozmir
  6
ByBlock
 62
    0
370
   -2
100
AcDbTrace
 10
99.5
 20
-40.84999999999999
 30
0
 11
94.5
 21
-41.68256931554568
 31
0
 12
94.5
 22
-40.01743068445431
 32
0
 13
94.5
 23
-40.01743068445431
 33
0
  0
SOLID
  5
ED
100
AcDbEntity
  8
rozmir
  6
ByBlock
 62
    0
370
   -2
100
AcDbTrace
 10
107.5000000000002
 20
-40.84999999999999
 30
0
 11
112.5000000000002
 21
-40.01743068445431
 31
0
 12
112.5000000000002
 22
-41.68256931554568
 32
0
 13
112.5000000000002
 23
-41.68256931554568
 33
0
  0
MTEXT
  5
EE
100
AcDbEntity
  8
rozmir
  6
CONTINUOUS
 62
    0
370
   -2
100
AcDbMText
 10
103.5000000000001
 20
-38.09999999999999
 30
0
 40
3.5
 41
1.555555555555556
 71
    5
 72
    1
  1
8
  7
standard
210
0
220
0
230
1
 50
0
 73
    2
 44
1
  0
LINE
  5
EF
100
AcDbEntity
  8
rozmir
  6
ByBlock
 62
    0
370
   -2
100
AcDbLine
 10
99.5
 20
-50
 11
99.5
 21
-38.84999999999999
  0
LINE
  5
F0
100
AcDbEntity
  8
rozmir
  6
ByBlock
 62
    0
370
   -2
100
AcDbLine
 10
107.5000000000002
 20
-48
 11
107.5000000000002
 21
-38.84999999999999
  0
ENDBLK
  5
75
330
73
100
AcDbEntity
  8
0
100
AcDbBlockEnd
  0
BLOCK
  5
77
330
76
100
AcDbEntity
  8
0
100
AcDbBlockBegin
  2
*D25
 70
    1
 10
0
 20
0
  3
*D25
  1

  0
LINE
  5
F1
100
AcDbEntity
  8
rozmir
  6
ByBlock
 62
    0
370
   -2
100
AcDbLine
 10
43
 20
-32.9999999999999
 11
43
 21
-49
  0
SOLID
  5
F2
100
AcDbEntity
  8
rozmir
  6
ByBlock
 62
    0
370
   -2
100
AcDbTrace
 10
43
 20
-32.9999999999999
 30
0
 11
43.83256931554568
 21
-37.9999999999999
 31
0
 12
42.16743068445432
 22
-37.9999999999999
 32
0
 13
42.16743068445432
 23
-37.9999999999999
 33
0
  0
SOLID
  5
F3
100
AcDbEntity
  8
rozmir
  6
ByBlock
 62
    0
370
   -2
100
AcDbTrace
 10
43
 20
-49
 30
0
 11
42.16743068445432
 21
-44
 31
0
 12
43.83256931554568
 22
-44
 32
0
 13
43.83256931554568
 23
-44
 33
0
  0
MTEXT
  5
F4
100
AcDbEntity
  8
rozmir
  6
CONTINUOUS
 62
    0
370
   -2
100
AcDbMText
 10
40.25
 20
-40.99999999999995
 30
0
 40
3.5
 41
3.500000000000217
 71
    5
 72
    1
  1
16
  7
standard
210
0
220
0
230
1
 50
90
 73
    2
 44
1
  0
LINE
  5
F5
100
AcDbEntity
  8
rozmir
  6
ByBlock
 62
    0
370
   -2
100
AcDbLine
 10
49.50000000000001
 20
-32.9999999999999
 11
41
 21
-32.9999999999999
  0
LINE
  5
F6
100
AcDbEntity
  8
rozmir
  6
ByBlock
 62
    0
370
   -2
100
AcDbLine
 10
52.5
 20
-49
 11
41
 21
-49
  0
ENDBLK
  5
78
330
76
100
AcDbEntity
  8
0
100
AcDbBlockEnd
  0
BLOCK
  5
7A
330
79
100
AcDbEntity
  8
0
100
AcDbBlockBegin
  2
*D26
 70
    1
 10
0
 20
0
  3
*D26
  1

  0
LINE
  5
F7
100
AcDbEntity
  8
rozmir
  6
ByBlock
 62
    0
370
   -2
100
AcDbLine
 10
43
 20
-51
 11
43
 21
-107
  0
SOLID
  5
F8
100
AcDbEntity
  8
rozmir
  6
ByBlock
 62
    0
370
   -2
100
AcDbTrace
 10
43
 20
-51
 30
0
 11
43.83256931554568
 21
-56
 31
0
 12
42.16743068445432
 22
-56
 32
0
 13
42.16743068445432
 23
-56
 33
0
  0
SOLID
  5
F9
100
AcDbEntity
  8
rozmir
  6
ByBlock
 62
    0
370
   -2
100
AcDbTrace
 10
43
 20
-107
 30
0
 11
42.16743068445432
 21
-102
 31
0
 12
43.83256931554568
 22
-102
 32
0
 13
43.83256931554568
 23
-102
 33
0
  0
MTEXT
  5
FA
100
AcDbEntity
  8
rozmir
  6
CONTINUOUS
 62
    0
370
   -2
100
AcDbMText
 10
40.25
 20
-79
 30
0
 40
3.5
 41
4.277777777778212
 71
    5
 72
    1
  1
56
  7
standard
210
0
220
0
230
1
 50
90
 73
    2
 44
1
  0
LINE
  5
FB
100
AcDbEntity
  8
rozmir
  6
ByBlock
 62
    0
370
   -2
100
AcDbLine
 10
52.5
 20
-51
 11
41
 21
-51
  0
LINE
  5
FC
100
AcDbEntity
  8
rozmir
  6
ByBlock
 62
    0
370
   -2
100
AcDbLine
 10
52.50000000000011
 20
-107
 11
41
 21
-107
  0
ENDBLK
  5
7B
330
79
100
AcDbEntity
  8
0
100
AcDbBlockEnd
  0
BLOCK
  5
7D
330
7C
100
AcDbEntity
  8
0
100
AcDbBlockBegin
  2
*D3
 70
    1
 10
0
 20
0
  3
*D3
  1

  0
LINE
  5
FD
100
AcDbEntity
  8
rozmir
  6
ByBlock
 62
    0
370
   -2
100
AcDbLine
 10
203
 20
210
 11
295
 21
210
  0
SOLID
  5
FE
100
AcDbEntity
  8
rozmir
  6
ByBlock
 62
    0
370
   -2
100
AcDbTrace
 10
203
 20
210
 30
0
 11
208
 21
210.8325693155457
 31
0
 12
208
 22
209.1674306844543
 32
0
 13
208
 23
209.1674306844543
 33
0
  0
SOLID
  5
FF
100
AcDbEntity
  8
rozmir
  6
ByBlock
 62
    0
370
   -2
100
AcDbTrace
 10
295
 20
210
 30
0
 11
290
 21
209.1674306844543
 31
0
 12
290
 22
210.8325693155457
 32
0
 13
290
 23
210.8325693155457
 33
0
  0
MTEXT
  5
100
100
AcDbEntity
  8
rozmir
  6
CONTINUOUS
 62
    0
370
   -2
100
AcDbMText
 10
249
 20
212.75
 30
0
 40
3.5
 41
4.277777777777995
 71
    5
 72
    1
  1
92
  7
standard
210
0
220
0
230
1
 50
0
 73
    2
 44
1
  0
LINE
  5
101
100
AcDbEntity
  8
rozmir
  6
ByBlock
 62
    0
370
   -2
100
AcDbLine
 10
203
 20
201
 11
203
 21
212
  0
LINE
  5
102
100
AcDbEntity
  8
rozmir
  6
ByBlock
 62
    0
370
   -2
100
AcDbLine
 10
295
 20
201
 11
295
 21
212
  0
ENDBLK
  5
7E
330
7C
100
AcDbEntity
  8
0
100
AcDbBlockEnd
  0
BLOCK
  5
80
330
7F
100
AcDbEntity
  8
0
100
AcDbBlockBegin
  2
*D6
 70
    1
 10
0
 20
0
  3
*D6
  1

  0
LINE
  5
103
100
AcDbEntity
  8
rozmir
  6
ByBlock
 62
    0
370
   -2
100
AcDbLine
 10
3
 20
210
 11
77.30000000000004
 21
210
  0
SOLID
  5
104
100
AcDbEntity
  8
rozmir
  6
ByBlock
 62
    0
370
   -2
100
AcDbTrace
 10
3
 20
210
 30
0
 11
8
 21
210.8325693155457
 31
0
 12
8
 22
209.1674306844543
 32
0
 13
8
 23
209.1674306844543
 33
0
  0
SOLID
  5
105
100
AcDbEntity
  8
rozmir
  6
ByBlock
 62
    0
370
   -2
100
AcDbTrace
 10
77.30000000000004
 20
210
 30
0
 11
72.30000000000004
 21
209.1674306844543
 31
0
 12
72.30000000000004
 22
210.8325693155457
 32
0
 13
72.30000000000004
 23
210.8325693155457
 33
0
  0
MTEXT
  5
106
100
AcDbEntity
  8
rozmir
  6
CONTINUOUS
 62
    0
370
   -2
100
AcDbMText
 10
40.15000000000002
 20
212.75
 30
0
 40
3.5
 41
8.555555555555774
 71
    5
 72
    1
  1
74.3
  7
standard
210
0
220
0
230
1
 50
0
 73
    2
 44
1
  0
LINE
  5
107
100
AcDbEntity
  8
rozmir
  6
ByBlock
 62
    0
370
   -2
100
AcDbLine
 10
3
 20
201
 11
3
 21
212
  0
LINE
  5
108
100
AcDbEntity
  8
rozmir
  6
ByBlock
 62
    0
370
   -2
100
AcDbLine
 10
77.30000000000004
 20
198
 11
77.30000000000004
 21
212
  0
ENDBLK
  5
81
330
7F
100
AcDbEntity
  8
0
100
AcDbBlockEnd
  0
BLOCK
  5
83
330
82
100
AcDbEntity
  8
0
100
AcDbBlockBegin
  2
*D9
 70
    1
 10
0
 20
0
  3
*D9
  1

  0
LINE
  5
109
100
AcDbEntity
  8
rozmir
  6
ByBlock
 62
    0
370
   -2
100
AcDbLine
 10
90
 20
3
 11
90
 21
197
  0
SOLID
  5
10A
100
AcDbEntity
  8
rozmir
  6
ByBlock
 62
    0
370
   -2
100
AcDbTrace
 10
90
 20
3
 30
0
 11
89.16743068445432
 21
8
 31
0
 12
90.83256931554568
 22
8
 32
0
 13
90.83256931554568
 23
8
 33
0
  0
SOLID
  5
10B
100
AcDbEntity
  8
rozmir
  6
ByBlock
 62
    0
370
   -2
100
AcDbTrace
 10
90
 20
197
 30
0
 11
90.83256931554568
 21
192
 31
0
 12
89.16743068445432
 22
192
 32
0
 13
89.16743068445432
 23
192
 33
0
  0
MTEXT
  5
10C
100
AcDbEntity
  8
rozmir
  6
CONTINUOUS
 62
    0
370
   -2
100
AcDbMText
 10
87.25
 20
100
 30
0
 40
3.5
 41
6.611111111111111
 71
    5
 72
    1
  1
194
  7
standard
210
0
220
0
230
1
 50
90
 73
    2
 44
1
  0
LINE
  5
10D
100
AcDbEntity
  8
rozmir
  6
ByBlock
 62
    0
370
   -2
100
AcDbLine
 10
81.30000000000001
 20
3
 11
92
 21
3
  0
LINE
  5
10E
100
AcDbEntity
  8
rozmir
  6
ByBlock
 62
    0
370
   -2
100
AcDbLine
 10
81.30000000000004
 20
197
 11
92
 21
197
  0
ENDBLK
  5
84
330
82
100
AcDbEntity
  8
0
100
AcDbBlockEnd
  0
BLOCK
  5
86
330
85
100
AcDbEntity
  8
0
100
AcDbBlockBegin
  2
*D1
 70
    1
 10
0
 20
0
  3
*D1
  1

  0
LINE
  5
10F
100
AcDbEntity
  8
rozmir
  6
ByBlock
 62
    0
370
   -2
100
AcDbLine
 10
-19.99999999999999
 20
182
 11
-20
 21
3.400000000000002
  0
SOLID
  5
110
100
AcDbEntity
  8
rozmir
  6
ByBlock
 62
    0
370
   -2
100
AcDbTrace
 10
-19.99999999999999
 20
182
 30
0
 11
-19.16743068445431
 21
177
 31
0
 12
-20.83256931554567
 22
177
 32
0
 13
-20.83256931554567
 23
177
 33
0
  0
SOLID
  5
111
100
AcDbEntity
  8
rozmir
  6
ByBlock
 62
    0
370
   -2
100
AcDbTrace
 10
-20
 20
3.400000000000002
 30
0
 11
-20.83256931554568
 21
8.400000000000002
 31
0
 12
-19.16743068445432
 22
8.400000000000002
 32
0
 13
-19.16743068445432
 23
8.400000000000002
 33
0
  0
MTEXT
  5
112
100
AcDbEntity
  8
rozmir
  6
CONTINUOUS
 62
    0
370
   -2
100
AcDbMText
 10
-22.74999999999999
 20
92.7
 30
0
 40
3.5
 41
10.11111111111133
 71
    5
 72
    1
  1
178.6
  7
standard
210
0
220
0
230
1
 50
90
 73
    2
 44
1
  0
LINE
  5
113
100
AcDbEntity
  8
rozmir
  6
ByBlock
 62
    0
370
   -2
100
AcDbLine
 10
2.299999999999999
 20
182
 11
-21.99999999999999
 21
182
  0
LINE
  5
114
100
AcDbEntity
  8
rozmir
  6
ByBlock
 62
    0
370
   -2
100
AcDbLine
 10
2.3
 20
3.4
 11
-22
 21
3.400000000000002
  0
ENDBLK
  5
87
330
85
100
AcDbEntity
  8
0
100
AcDbBlockEnd
  0
BLOCK
  5
89
330
88
100
AcDbEntity
  8
0
100
AcDbBlockBegin
  2
*D17
 70
    1
 10
0
 20
0
  3
*D17
  1

  0
LINE
  5
115
100
AcDbEntity
  8
rozmir
  6
ByBlock
 62
    0
370
   -2
100
AcDbLine
 10
110.5000000000004
 20
-19.84999999999999
 11
129
 21
-19.84999999999999
  0
SOLID
  5
116
100
AcDbEntity
  8
rozmir
  6
ByBlock
 62
    0
370
   -2
100
AcDbTrace
 10
110.5000000000004
 20
-19.84999999999999
 30
0
 11
115.5000000000004
 21
-19.01743068445431
 31
0
 12
115.5000000000004
 22
-20.68256931554567
 32
0
 13
115.5000000000004
 23
-20.68256931554567
 33
0
  0
SOLID
  5
117
100
AcDbEntity
  8
rozmir
  6
ByBlock
 62
    0
370
   -2
100
AcDbTrace
 10
129
 20
-19.84999999999999
 30
0
 11
124
 21
-20.68256931554567
 31
0
 12
124
 22
-19.01743068445431
 32
0
 13
124
 23
-19.01743068445431
 33
0
  0
MTEXT
  5
118
100
AcDbEntity
  8
rozmir
  6
CONTINUOUS
 62
    0
370
   -2
100
AcDbMText
 10
119.7500000000002
 20
-17.09999999999999
 30
0
 40
3.5
 41
7.388888888889106
 71
    5
 72
    1
  1
18.5
  7
standard
210
0
220
0
230
1
 50
0
 73
    2
 44
1
  0
LINE
  5
119
100
AcDbEntity
  8
rozmir
  6
ByBlock
 62
    0
370
   -2
100
AcDbLine
 10
110.5000000000004
 20
-32
 11
110.5000000000004
 21
-17.84999999999999
  0
LINE
  5
11A
100
AcDbEntity
  8
rozmir
  6
ByBlock
 62
    0
370
   -2
100
AcDbLine
 10
129
 20
-29.4
 11
129
 21
-17.84999999999999
  0
ENDBLK
  5
8A
330
88
100
AcDbEntity
  8
0
100
AcDbBlockEnd
  0
BLOCK
  5
8C
330
8B
100
AcDbEntity
  8
0
100
AcDbBlockBegin
  2
*D19
 70
    1
 10
0
 20
0
  3
*D19
  1

  0
LINE
  5
11B
100
AcDbEntity
  8
rozmir
  6
ByBlock
 62
    0
370
   -2
100
AcDbLine
 10
43.50000000000009
 20
-40.84999999999999
 11
71.49999999999989
 21
-40.84999999999999
  0
SOLID
  5
11C
100
AcDbEntity
  8
rozmir
  6
ByBlock
 62
    0
370
   -2
100
AcDbTrace
 10
53.50000000000009
 20
-40.84999999999999
 30
0
 11
48.50000000000009
 21
-41.68256931554568
 31
0
 12
48.50000000000009
 22
-40.01743068445431
 32
0
 13
48.50000000000009
 23
-40.01743068445431
 33
0
  0
SOLID
  5
11D
100
AcDbEntity
  8
rozmir
  6
ByBlock
 62
    0
370
   -2
100
AcDbTrace
 10
61.49999999999989
 20
-40.84999999999999
 30
0
 11
66.49999999999989
 21
-40.01743068445431
 31
0
 12
66.49999999999989
 22
-41.68256931554568
 32
0
 13
66.49999999999989
 23
-41.68256931554568
 33
0
  0
MTEXT
  5
11E
100
AcDbEntity
  8
rozmir
  6
CONTINUOUS
 62
    0
370
   -2
100
AcDbMText
 10
57.49999999999999
 20
-38.09999999999999
 30
0
 40
3.5
 41
1.555555555555556
 71
    5
 72
    1
  1
8
  7
standard
210
0
220
0
230
1
 50
0
 73
    2
 44
1
  0
LINE
  5
11F
100
AcDbEntity
  8
rozmir
  6
ByBlock
 62
    0
370
   -2
100
AcDbLine
 10
53.50000000000009
 20
-48.04285714285717
 11
53.50000000000009
 21
-38.84999999999999
  0
LINE
  5
120
100
AcDbEntity
  8
rozmir
  6
ByBlock
 62
    0
370
   -2
100
AcDbLine
 10
61.49999999999989
 20
-49.99999999999994
 11
61.49999999999989
 21
-38.84999999999999
  0
ENDBLK
  5
8D
330
8B
100
AcDbEntity
  8
0
100
AcDbBlockEnd
  0
BLOCK
  5
8F
330
8E
100
AcDbEntity
  8
0
100
AcDbBlockBegin
  2
*D11
 70
    1
 10
0
 20
0
  3
*D11
  1

  0
LINE
  5
121
100
AcDbEntity
  8
rozmir
  6
ByBlock
 62
    0
370
   -2
100
AcDbLine
 10
0
 20
230
 11
129
 21
230
  0
SOLID
  5
122
100
AcDbEntity
  8
rozmir
  6
ByBlock
 62
    0
370
   -2
100
AcDbTrace
 10
0
 20
230
 30
0
 11
5
 21
230.8325693155457
 31
0
 12
5
 22
229.1674306844543
 32
0
 13
5
 23
229.1674306844543
 33
0
  0
SOLID
  5
123
100
AcDbEntity
  8
rozmir
  6
ByBlock
 62
    0
370
   -2
100
AcDbTrace
 10
129
 20
230
 30
0
 11
124
 21
229.1674306844543
 31
0
 12
124
 22
230.8325693155457
 32
0
 13
124
 23
230.8325693155457
 33
0
  0
MTEXT
  5
124
100
AcDbEntity
  8
rozmir
  6
CONTINUOUS
 62
    0
370
   -2
100
AcDbMText
 10
64.5
 20
232.75
 30
0
 40
3.5
 41
6.222222222222222
 71
    5
 72
    1
  1
129
  7
standard
210
0
220
0
230
1
 50
0
 73
    2
 44
1
  0
LINE
  5
125
100
AcDbEntity
  8
rozmir
  6
ByBlock
 62
    0
370
   -2
100
AcDbLine
 10
6.123233995736766e-17
 20
201
 11
1.224646799147353e-16
 21
232
  0
LINE
  5
126
100
AcDbEntity
  8
rozmir
  6
ByBlock
 62
    0
370
   -2
100
AcDbLine
 10
129
 20
201
 11
129
 21
232
  0
ENDBLK
  5
90
330
8E
100
AcDbEntity
  8
0
100
AcDbBlockEnd
  0
BLOCK
  5
92
330
91
100
AcDbEntity
  8
0
100
AcDbBlockBegin
  2
*D14
 70
    1
 10
0
 20
0
  3
*D14
  1

  0
LINE
  5
127
100
AcDbEntity
  8
rozmir
  6
ByBlock
 62
    0
370
   -2
100
AcDbLine
 10
150
 20
0
 11
150
 21
180
  0
SOLID
  5
128
100
AcDbEntity
  8
rozmir
  6
ByBlock
 62
    0
370
   -2
100
AcDbTrace
 10
150
 20
0
 30
0
 11
149.1674306844543
 21
5
 31
0
 12
150.8325693155457
 22
5
 32
0
 13
150.8325693155457
 23
5
 33
0
  0
SOLID
  5
129
100
AcDbEntity
  8
rozmir
  6
ByBlock
 62
    0
370
   -2
100
AcDbTrace
 10
150
 20
180
 30
0
 11
150.8325693155457
 21
175
 31
0
 12
149.1674306844543
 22
175
 32
0
 13
149.1674306844543
 23
175
 33
0
  0
MTEXT
  5
12A
100
AcDbEntity
  8
rozmir
  6
CONTINUOUS
 62
    0
370
   -2
100
AcDbMText
 10
147.25
 20
90
 30
0
 40
3.5
 41
6.222222222222223
 71
    5
 72
    1
  1
180
  7
standard
210
0
220
0
230
1
 50
90
 73
    2
 44
1
  0
LINE
  5
12B
100
AcDbEntity
  8
rozmir
  6
ByBlock
 62
    0
370
   -2
100
AcDbLine
 10
130
 20
0
 11
152
 21
0
  0
LINE
  5
12C
100
AcDbEntity
  8
rozmir
  6
ByBlock
 62
    0
370
   -2
100
AcDbLine
 10
127
 20
180
 11
152
 21
180
  0
ENDBLK
  5
93
330
91
100
AcDbEntity
  8
0
100
AcDbBlockEnd
  0
BLOCK
  5
95
330
94
100
AcDbEntity
  8
0
100
AcDbBlockBegin
  2
*D18
 70
    1
 10
0
 20
0
  3
*D18
  1

  0
LINE
  5
12D
100
AcDbEntity
  8
rozmir
  6
ByBlock
 62
    0
370
   -2
100
AcDbLine
 10
53.50000000000001
 20
-19.84999999999999
 11
107.5000000000004
 21
-19.84999999999999
  0
SOLID
  5
12E
100
AcDbEntity
  8
rozmir
  6
ByBlock
 62
    0
370
   -2
100
AcDbTrace
 10
53.50000000000001
 20
-19.84999999999999
 30
0
 11
58.50000000000001
 21
-19.01743068445431
 31
0
 12
58.50000000000001
 22
-20.68256931554567
 32
0
 13
58.50000000000001
 23
-20.68256931554567
 33
0
  0
SOLID
  5
12F
100
AcDbEntity
  8
rozmir
  6
ByBlock
 62
    0
370
   -2
100
AcDbTrace
 10
107.5000000000004
 20
-19.84999999999999
 30
0
 11
102.5000000000004
 21
-20.68256931554567
 31
0
 12
102.5000000000004
 22
-19.01743068445431
 32
0
 13
102.5000000000004
 23
-19.01743068445431
 33
0
  0
MTEXT
  5
130
100
AcDbEntity
  8
rozmir
  6
CONTINUOUS
 62
    0
370
   -2
100
AcDbMText
 10
80.50000000000018
 20
-17.09999999999999
 30
0
 40
3.5
 41
4.666666666666884
 71
    5
 72
    1
  1
54
  7
standard
210
0
220
0
230
1
 50
0
 73
    2
 44
1
  0
LINE
  5
131
100
AcDbEntity
  8
rozmir
  6
ByBlock
 62
    0
370
   -2
100
AcDbLine
 10
53.5
 20
-31.99999999999991
 11
53.50000000000001
 21
-17.84999999999999
  0
LINE
  5
132
100
AcDbEntity
  8
rozmir
  6
ByBlock
 62
    0
370
   -2
100
AcDbLine
 10
107.5000000000004
 20
-32
 11
107.5000000000004
 21
-17.84999999999999
  0
ENDBLK
  5
96
330
94
100
AcDbEntity
  8
0
100
AcDbBlockEnd
  0
BLOCK
  5
98
330
97
100
AcDbEntity
  8
0
100
AcDbBlockBegin
  2
*D28
 70
    1
 10
0
 20
0
  3
*D28
  1

  0
LINE
  5
133
100
AcDbEntity
  8
rozmir
  6
ByBlock
 62
    0
370
   -2
100
AcDbLine
 10
3
 20
-100
 11
32
 21
-100
  0
SOLID
  5
134
100
AcDbEntity
  8
rozmir
  6
ByBlock
 62
    0
370
   -2
100
AcDbTrace
 10
3
 20
-100
 30
0
 11
8
 21
-99.16743068445432
 31
0
 12
8
 22
-100.8325693155457
 32
0
 13
8
 23
-100.8325693155457
 33
0
  0
SOLID
  5
135
100
AcDbEntity
  8
rozmir
  6
ByBlock
 62
    0
370
   -2
100
AcDbTrace
 10
32
 20
-100
 30
0
 11
27
 21
-100.8325693155457
 31
0
 12
27
 22
-99.16743068445432
 32
0
 13
27
 23
-99.16743068445432
 33
0
  0
MTEXT
  5
136
100
AcDbEntity
  8
rozmir
  6
CONTINUOUS
 62
    0
370
   -2
100
AcDbMText
 10
17.5
 20
-97.25
 30
0
 40
3.5
 41
4.277777777777778
 71
    5
 72
    1
  1
29
  7
standard
210
0
220
0
230
1
 50
0
 73
    2
 44
1
  0
LINE
  5
137
100
AcDbEntity
  8
rozmir
  6
ByBlock
 62
    0
370
   -2
100
AcDbLine
 10
3
 20
-124
 11
3
 21
-98
  0
LINE
  5
138
100
AcDbEntity
  8
rozmir
  6
ByBlock
 62
    0
370
   -2
100
AcDbLine
 10
32
 20
-124
 11
32
 21
-98
  0
ENDBLK
  5
99
330
97
100
AcDbEntity
  8
0
100
AcDbBlockEnd
  0
BLOCK
  5
9B
330
9A
100
AcDbEntity
  8
0
100
AcDbBlockBegin
  2
*D8
 70
    1
 10
0
 20
0
  3
*D8
  1

  0
LINE
  5
139
100
AcDbEntity
  8
rozmir
  6
ByBlock
 62
    0
370
   -2
100
AcDbLine
 10
5.299999999999997
 20
100
 11
75.00000000000004
 21
100
  0
SOLID
  5
13A
100
AcDbEntity
  8
rozmir
  6
ByBlock
 62
    0
370
   -2
100
AcDbTrace
 10
5.299999999999997
 20
100
 30
0
 11
10.3
 21
100.8325693155457
 31
0
 12
10.3
 22
99.16743068445432
 32
0
 13
10.3
 23
99.16743068445432
 33
0
  0
SOLID
  5
13B
100
AcDbEntity
  8
rozmir
  6
ByBlock
 62
    0
370
   -2
100
AcDbTrace
 10
75.00000000000004
 20
100
 30
0
 11
70.00000000000004
 21
99.16743068445432
 31
0
 12
70.00000000000004
 22
100.8325693155457
 32
0
 13
70.00000000000004
 23
100.8325693155457
 33
0
  0
MTEXT
  5
13C
100
AcDbEntity
  8
rozmir
  6
CONTINUOUS
 62
    0
370
   -2
100
AcDbMText
 10
40.15000000000002
 20
102.75
 30
0
 40
3.5
 41
8.166666666666885
 71
    5
 72
    1
  1
69.7
  7
standard
210
0
220
0
230
1
 50
0
 73
    2
 44
1
  0
LINE
  5
13D
100
AcDbEntity
  8
rozmir
  6
ByBlock
 62
    0
370
   -2
100
AcDbLine
 10
5.3
 20
93.50000000000001
 11
5.299999999999996
 21
102
  0
LINE
  5
13E
100
AcDbEntity
  8
rozmir
  6
ByBlock
 62
    0
370
   -2
100
AcDbLine
 10
75.00000000000004
 20
93.50000000000001
 11
75.00000000000004
 21
102
  0
ENDBLK
  5
9C
330
9A
100
AcDbEntity
  8
0
100
AcDbBlockEnd
  0
BLOCK
  5
9E
330
9D
100
AcDbEntity
  8
0
100
AcDbBlockBegin
  2
*D24
 70
    1
 10
0
 20
0
  3
*D24
  1

  0
LINE
  5
13F
100
AcDbEntity
  8
rozmir
  6
ByBlock
 62
    0
370
   -2
100
AcDbLine
 10
3.702394120755817
 20
-46.54021536511523
 11
9.897704494967437
 21
-52.81838447201925
  0
LINE
  5
140
100
AcDbEntity
  8
rozmir
  6
ByBlock
 62
    0
370
   -2
100
AcDbLine
 10
16.70239412075582
 20
-33.71178824036905
 11
22.89770449496744
 21
-39.98995734727307
  0
LINE
  5
141
100
AcDbEntity
  8
rozmir
  6
ByBlock
 62
    0
370
   -2
100
AcDbLine
 10
8.492916253455803
 20
-51.39480799128116
 11
21.4929162534558
 21
-38.56638086653498
  0
SOLID
  5
142
100
AcDbEntity
  8
rozmir
  6
ByBlock
 62
    0
370
   -2
100
AcDbTrace
 10
8.492916253455803
 20
-51.39480799128116
 30
0
 11
11.46706566294005
 21
-47.29022433940455
 31
0
 12
12.63664924766201
 22
-48.4754504355996
 32
0
 13
12.63664924766201
 23
-48.4754504355996
 33
0
  0
SOLID
  5
143
100
AcDbEntity
  8
rozmir
  6
ByBlock
 62
    0
370
   -2
100
AcDbTrace
 10
21.4929162534558
 20
-38.56638086653498
 30
0
 11
18.51876684397156
 21
-42.67096451841159
 31
0
 12
17.34918325924959
 22
-41.48573842221654
 32
0
 13
17.34918325924959
 23
-41.48573842221654
 33
0
  0
MTEXT
  5
144
100
AcDbEntity
  8
rozmir
  6
CONTINUOUS
 62
    0
370
   -2
100
AcDbMText
 10
13.06133242137731
 20
-43.0231767678932
 30
0
 40
3.5
 41
7.388888888889106
 71
    5
 72
    1
  1
18.3
  7
standard
210
0
220
0
230
1
 50
44.61940163863016
 73
    2
 44
1
  0
ENDBLK
  5
9F
330
9D
100
AcDbEntity
  8
0
100
AcDbBlockEnd
  0
BLOCK
  5
A1
330
A0
100
AcDbEntity
  8
0
100
AcDbBlockBegin
  2
*D15
 70
    1
 10
0
 20
0
  3
*D15
  1

  0
LINE
  5
145
100
AcDbEntity
  8
rozmir
  6
ByBlock
 62
    0
370
   -2
100
AcDbLine
 10
140
 20
0
 11
140
 21
90.49999999999997
  0
SOLID
  5
146
100
AcDbEntity
  8
rozmir
  6
ByBlock
 62
    0
370
   -2
100
AcDbTrace
 10
140
 20
0
 30
0
 11
139.1674306844544
 21
5
 31
0
 12
140.8325693155457
 22
5
 32
0
 13
140.8325693155457
 23
5
 33
0
  0
SOLID
  5
147
100
AcDbEntity
  8
rozmir
  6
ByBlock
 62
    0
370
   -2
100
AcDbTrace
 10
140
 20
90.49999999999997
 30
0
 11
140.8325693155457
 21
85.49999999999997
 31
0
 12
139.1674306844544
 22
85.49999999999997
 32
0
 13
139.1674306844544
 23
85.49999999999997
 33
0
  0
MTEXT
  5
148
100
AcDbEntity
  8
rozmir
  6
CONTINUOUS
 62
    0
370
   -2
100
AcDbMText
 10
137.25
 20
45.24999999999999
 30
0
 40
3.5
 41
8.166666666667101
 71
    5
 72
    1
  1
90.5
  7
standard
210
0
220
0
230
1
 50
90
 73
    2
 44
1
  0
LINE
  5
149
100
AcDbEntity
  8
rozmir
  6
ByBlock
 62
    0
370
   -2
100
AcDbLine
 10
130
 20
0
 11
142
 21
0
  0
LINE
  5
14A
100
AcDbEntity
  8
rozmir
  6
ByBlock
 62
    0
370
   -2
100
AcDbLine
 10
127
 20
90.49999999999997
 11
142
 21
90.49999999999997
  0
ENDBLK
  5
A2
330
A0
100
AcDbEntity
  8
0
100
AcDbBlockEnd
  0
BLOCK
  5
A4
330
A3
100
AcDbEntity
  8
0
100
AcDbBlockBegin
  2
*D16
 70
    1
 10
0
 20
0
  3
*D16
  1

  0
LINE
  5
14B
100
AcDbEntity
  8
rozmir
  6
ByBlock
 62
    0
370
   -2
100
AcDbLine
 10
0
 20
-19.84999999999999
 11
50.5
 21
-19.84999999999999
  0
SOLID
  5
14C
100
AcDbEntity
  8
rozmir
  6
ByBlock
 62
    0
370
   -2
100
AcDbTrace
 10
0
 20
-19.84999999999999
 30
0
 11
5
 21
-19.01743068445431
 31
0
 12
5
 22
-20.68256931554567
 32
0
 13
5
 23
-20.68256931554567
 33
0
  0
SOLID
  5
14D
100
AcDbEntity
  8
rozmir
  6
ByBlock
 62
    0
370
   -2
100
AcDbTrace
 10
50.5
 20
-19.84999999999999
 30
0
 11
45.5
 21
-20.68256931554567
 31
0
 12
45.5
 22
-19.01743068445431
 32
0
 13
45.5
 23
-19.01743068445431
 33
0
  0
MTEXT
  5
14E
100
AcDbEntity
  8
rozmir
  6
CONTINUOUS
 62
    0
370
   -2
100
AcDbMText
 10
25.25
 20
-17.09999999999999
 30
0
 40
3.5
 41
8.166666666667101
 71
    5
 72
    1
  1
50.5
  7
standard
210
0
220
0
230
1
 50
0
 73
    2
 44
1
  0
LINE
  5
14F
100
AcDbEntity
  8
rozmir
  6
ByBlock
 62
    0
370
   -2
100
AcDbLine
 10
6.123233995736766e-17
 20
-29.40000013634333
 11
1.224646799147353e-16
 21
-17.84999999999999
  0
LINE
  5
150
100
AcDbEntity
  8
rozmir
  6
ByBlock
 62
    0
370
   -2
100
AcDbLine
 10
50.5
 20
-31.9999999999999
 11
50.5
 21
-17.84999999999999
  0
ENDBLK
  5
A5
330
A3
100
AcDbEntity
  8
0
100
AcDbBlockEnd
  0
BLOCK
  5
A7
330
A6
100
AcDbEntity
  8
0
100
AcDbBlockBegin
  2
*D27
 70
    1
 10
0
 20
0
  3
*D27
  1

  0
LINE
  5
151
100
AcDbEntity
  8
rozmir
  6
ByBlock
 62
    0
370
   -2
100
AcDbLine
 10
43
 20
-109
 11
43
 21
-125
  0
SOLID
  5
152
100
AcDbEntity
  8
rozmir
  6
ByBlock
 62
    0
370
   -2
100
AcDbTrace
 10
43
 20
-109
 30
0
 11
43.83256931554568
 21
-114
 31
0
 12
42.16743068445432
 22
-114
 32
0
 13
42.16743068445432
 23
-114
 33
0
  0
SOLID
  5
153
100
AcDbEntity
  8
rozmir
  6
ByBlock
 62
    0
370
   -2
100
AcDbTrace
 10
43
 20
-125
 30
0
 11
42.16743068445432
 21
-120
 31
0
 12
43.83256931554568
 22
-120
 32
0
 13
43.83256931554568
 23
-120
 33
0
  0
MTEXT
  5
154
100
AcDbEntity
  8
rozmir
  6
CONTINUOUS
 62
    0
370
   -2
100
AcDbMText
 10
40.25
 20
-117
 30
0
 40
3.5
 41
3.500000000000217
 71
    5
 72
    1
  1
16
  7
standard
210
0
220
0
230
1
 50
90
 73
    2
 44
1
  0
LINE
  5
155
100
AcDbEntity
  8
rozmir
  6
ByBlock
 62
    0
370
   -2
100
AcDbLine
 10
52.5
 20
-109
 11
41
 21
-109
  0
LINE
  5
156
100
AcDbEntity
  8
rozmir
  6
ByBlock
 62
    0
370
   -2
100
AcDbLine
 10
49.50000000000001
 20
-125
 11
41
 21
-125
  0
ENDBLK
  5
A8
330
A6
100
AcDbEntity
  8
0
100
AcDbBlockEnd
  0
ENDSEC
  0
SECTION
  2
ENTITIES
  0
LWPOLYLINE
  5
157
100
AcDbEntity
  8
karkas2
  6
ByLayer
 62
  256
370
   -1
100
AcDbPolyline
 90
    4
 70
    1
 43
0
 10
0
 20
0
 10
3
 20
0
 10
3
 20
200
 10
0
 20
200
  0
LWPOLYLINE
  5
158
100
AcDbEntity
  8
karkas1
  6
ByLayer
 62
  256
370
   -1
100
AcDbPolyline
 90
    4
 70
    1
 43
0
 10
3.3
 20
3.4
 10
5.299999999999999
 20
3.4
 10
5.299999999999998
 20
182
 10
3.299999999999999
 20
182
  0
LWPOLYLINE
  5
159
100
AcDbEntity
  8
karkas2
  6
ByLayer
 62
  256
370
   -1
100
AcDbPolyline
 90
    4
 70
    1
 43
0
 10
200
 20
0
 10
203
 20
0
 10
203
 20
200
 10
200
 20
200
  0
DIMENSION
  5
15A
100
AcDbEntity
  8
rozmir
  6
ByLayer
 62
  256
370
   -1
100
AcDbDimension
  2
*D1
 10
-20
 20
3.400000000000003
 30
0
 11
-22.74999999999999
 21
92.7
 31
0
 70
   32
 71
    5
  3
Standard
 53
0
210
0
220
0
230
1
100
AcDbAlignedDimension
 13
3.299999999999999
 23
182
 33
0
 14
3.3
 24
3.4
 34
0
 50
90
100
AcDbRotatedDimension
  0
DIMENSION
  5
15B
100
AcDbEntity
  8
rozmir
  6
ByLayer
 62
  256
370
   -1
100
AcDbDimension
  2
*D2
 10
-10
 20
90.50000000000001
 30
0
 11
-12.75
 21
46.95
 31
0
 70
   32
 71
    5
  3
Standard
 53
0
210
0
220
0
230
1
100
AcDbAlignedDimension
 13
3.3
 23
3.4
 33
0
 14
5.3
 24
90.50000000000001
 34
0
 50
90
100
AcDbRotatedDimension
  0
LWPOLYLINE
  5
15C
100
AcDbEntity
  8
karkas2
  6
ByLayer
 62
  256
370
   -1
100
AcDbPolyline
 90
    4
 70
    1
 43
0
 10
203
 20
0
 10
295
 20
1.110223024625157e-16
 10
295
 20
3
 10
203
 20
3
  0
LWPOLYLINE
  5
15D
100
AcDbEntity
  8
karkas2
  6
ByLayer
 62
  256
370
   -1
100
AcDbPolyline
 90
    4
 70
    1
 43
0
 10
295
 20
0
 10
298
 20
0
 10
298
 20
200
 10
295
 20
200
  0
LWPOLYLINE
  5
15E
100
AcDbEntity
  8
karkas2
  6
ByLayer
 62
  256
370
   -1
100
AcDbPolyline
 90
    4
 70
    1
 43
0
 10
203
 20
197
 10
295
 20
197
 10
295
 20
200
 10
203
 20
200
  0
LWPOLYLINE
  5
15F
100
AcDbEntity
  8
karkas1
  6
ByLayer
 62
  256
370
   -1
100
AcDbPolyline
 90
    4
 70
    1
 43
0
 10
203
 20
182
 10
295
 20
182
 10
295
 20
180
 10
203
 20
180
  0
LWPOLYLINE
  5
160
100
AcDbEntity
  8
karkas1
  6
ByLayer
 62
  256
370
   -1
100
AcDbPolyline
 90
    4
 70
    1
 43
0
 10
203
 20
92.49999999999994
 10
295
 20
92.49999999999997
 10
295
 20
90.49999999999997
 10
203
 20
90.49999999999994
  0
DIMENSION
  5
161
100
AcDbEntity
  8
rozmir
  6
ByLayer
 62
  256
370
   -1
100
AcDbDimension
  2
*D3
 10
295.3
 20
210
 30
0
 11
249
 21
212.75
 31
0
 70
   32
 71
    5
  3
Standard
 53
0
210
0
220
0
230
1
100
AcDbAlignedDimension
 13
203
 23
200
 33
0
 14
295
 24
200
 34
0
100
AcDbRotatedDimension
  0
DIMENSION
  5
162
100
AcDbEntity
  8
rozmir
  6
ByLayer
 62
  256
370
   -1
100
AcDbDimension
  2
*D4
 10
298.3
 20
220
 30
0
 11
249
 21
222.75
 31
0
 70
   32
 71
    5
  3
Standard
 53
0
210
0
220
0
230
1
100
AcDbAlignedDimension
 13
200
 23
200
 33
0
 14
298
 24
200
 34
0
100
AcDbRotatedDimension
  0
DIMENSION
  5
163
100
AcDbEntity
  8
rozmir
  6
ByLayer
 62
  256
370
   -1
100
AcDbDimension
  2
*D5
 10
307.7
 20
0.9999999999999988
 30
0
 11
304.95
 21
91
 31
0
 70
   32
 71
    5
  3
Standard
 53
0
210
0
220
0
230
1
100
AcDbAlignedDimension
 13
297
 23
181.5
 33
0
 14
297
 24
0.5000000000000001
 34
0
 50
90
100
AcDbRotatedDimension
  0
LWPOLYLINE
  5
164
100
AcDbEntity
  8
obshivka
  6
ByLayer
 62
  256
370
   -1
100
AcDbPolyline
 90
    4
 70
    1
 43
0
 10
200.9
 20
181.5
 10
297.2
 20
181.5
 10
297.2
 20
0.5
 10
200.9
 20
0.4999999999999999
  0
LWPOLYLINE
  5
165
100
AcDbEntity
  8
karkas1
  6
ByLayer
 62
  256
370
   -1
100
AcDbPolyline
 90
    4
 70
    1
 43
0
 10
5.299999999999999
 20
3.4
 10
75.00000000000003
 20
3.4
 10
75.00000000000003
 20
5.4
 10
5.299999999999999
 20
5.4
  0
LWPOLYLINE
  5
166
100
AcDbEntity
  8
karkas2
  6
ByLayer
 62
  256
370
   -1
100
AcDbPolyline
 90
    4
 70
    1
 43
0
 10
77.30000000000001
 20
3
 10
80.30000000000001
 20
3
 10
80.30000000000004
 20
197
 10
77.30000000000004
 20
197
  0
LWPOLYLINE
  5
167
100
AcDbEntity
  8
karkas1
  6
ByLayer
 62
  256
370
   -1
100
AcDbPolyline
 90
    4
 70
    1
 43
0
 10
5.300000000000001
 20
182
 10
75.00000000000004
 20
182
 10
75.00000000000004
 20
180
 10
5.300000000000001
 20
180
  0
LWPOLYLINE
  5
168
100
AcDbEntity
  8
karkas1
  6
ByLayer
 62
  256
370
   -1
100
AcDbPolyline
 90
    4
 70
    1
 43
0
 10
75.00000000000003
 20
3.4
 10
77.00000000000003
 20
3.4
 10
77.00000000000003
 20
182
 10
75.00000000000003
 20
182
  0
LWPOLYLINE
  5
169
100
AcDbEntity
  8
karkas1
  6
ByLayer
 62
  256
370
   -1
100
AcDbPolyline
 90
    4
 70
    1
 43
0
 10
5.3
 20
92.50000000000001
 10
75.00000000000004
 20
92.50000000000001
 10
75.00000000000004
 20
90.50000000000001
 10
5.3
 20
90.50000000000001
  0
DIMENSION
  5
16A
100
AcDbEntity
  8
rozmir
  6
ByLayer
 62
  256
370
   -1
100
AcDbDimension
  2
*D6
 10
73.50000000000001
 20
210
 30
0
 11
40.15000000000002
 21
212.75
 31
0
 70
   32
 71
    5
  3
Standard
 53
0
210
0
220
0
230
1
100
AcDbAlignedDimension
 13
3
 23
200
 33
0
 14
77.30000000000004
 24
197
 34
0
100
AcDbRotatedDimension
  0
DIMENSION
  5
16B
100
AcDbEntity
  8
rozmir
  6
ByLayer
 62
  256
370
   -1
100
AcDbDimension
  2
*D7
 10
73.2
 20
190
 30
0
 11
40.15000000000001
 21
192.75
 31
0
 70
   32
 71
    5
  3
Standard
 53
0
210
0
220
0
230
1
100
AcDbAlignedDimension
 13
3.299999999999999
 23
182
 33
0
 14
77.00000000000003
 24
182
 34
0
100
AcDbRotatedDimension
  0
DIMENSION
  5
16C
100
AcDbEntity
  8
rozmir
  6
ByLayer
 62
  256
370
   -1
100
AcDbDimension
  2
*D8
 10
71.20000000000002
 20
100
 30
0
 11
40.15000000000002
 21
102.75
 31
0
 70
   32
 71
    5
  3
Standard
 53
0
210
0
220
0
230
1
100
AcDbAlignedDimension
 13
5.3
 23
92.50000000000001
 33
0
 14
75.00000000000004
 24
92.50000000000001
 34
0
100
AcDbRotatedDimension
  0
DIMENSION
  5
16D
100
AcDbEntity
  8
rozmir
  6
ByLayer
 62
  256
370
   -1
100
AcDbDimension
  2
*D9
 10
90
 20
197
 30
0
 11
87.25
 21
100
 31
0
 70
   32
 71
    5
  3
Standard
 53
0
210
0
220
0
230
1
100
AcDbAlignedDimension
 13
80.30000000000001
 23
3
 33
0
 14
80.30000000000004
 24
197
 34
0
 50
90
100
AcDbRotatedDimension
  0
LWPOLYLINE
  5
16E
100
AcDbEntity
  8
karkas2
  6
ByLayer
 62
  256
370
   -1
100
AcDbPolyline
 90
    4
 70
    1
 43
0
 10
3
 20
0
 10
126
 20
1.110223024625157e-16
 10
126
 20
3
 10
3
 20
3
  0
LWPOLYLINE
  5
16F
100
AcDbEntity
  8
karkas2
  6
ByLayer
 62
  256
370
   -1
100
AcDbPolyline
 90
    4
 70
    1
 43
0
 10
126
 20
0
 10
129
 20
0
 10
129
 20
200
 10
126
 20
200
  0
LWPOLYLINE
  5
170
100
AcDbEntity
  8
karkas2
  6
ByLayer
 62
  256
370
   -1
100
AcDbPolyline
 90
    4
 70
    1
 43
0
 10
3
 20
197
 10
126
 20
197
 10
126
 20
200
 10
3
 20
200
  0
DIMENSION
  5
171
100
AcDbEntity
  8
rozmir
  6
ByLayer
 62
  256
370
   -1
100
AcDbDimension
  2
*D10
 10
116.3
 20
220
 30
0
 11
64.5
 21
222.75
 31
0
 70
   32
 71
    5
  3
Standard
 53
0
210
0
220
0
230
1
100
AcDbAlignedDimension
 13
3
 23
200
 33
0
 14
126
 24
200
 34
0
100
AcDbRotatedDimension
  0
DIMENSION
  5
172
100
AcDbEntity
  8
rozmir
  6
ByLayer
 62
  256
370
   -1
100
AcDbDimension
  2
*D11
 10
119.3
 20
230
 30
0
 11
64.5
 21
232.75
 31
0
 70
   32
 71
    5
  3
Standard
 53
0
210
0
220
0
230
1
100
AcDbAlignedDimension
 13
0
 23
200
 33
0
 14
129
 24
200
 34
0
100
AcDbRotatedDimension
  0
LWPOLYLINE
  5
173
100
AcDbEntity
  8
karkas1
  6
ByLayer
 62
  256
370
   -1
100
AcDbPolyline
 90
    4
 70
    1
 43
0
 10
80.30000000000004
 20
182
 10
126
 20
182
 10
126
 20
180
 10
80.30000000000004
 20
180
  0
LWPOLYLINE
  5
174
100
AcDbEntity
  8
karkas1
  6
ByLayer
 62
  256
370
   -1
100
AcDbPolyline
 90
    4
 70
    1
 43
0
 10
80.30000000000003
 20
92.49999999999997
 10
126
 20
92.49999999999997
 10
126
 20
90.49999999999997
 10
80.30000000000003
 20
90.49999999999997
  0
DIMENSION
  5
175
100
AcDbEntity
  8
rozmir
  6
ByLayer
 62
  256
370
   -1
100
AcDbDimension
  2
*D12
 10
116.3
 20
210
 30
0
 11
103.15
 21
212.75
 31
0
 70
   32
 71
    5
  3
Standard
 53
0
210
0
220
0
230
1
100
AcDbAlignedDimension
 13
80.30000000000004
 23
197
 33
0
 14
126
 24
200
 34
0
100
AcDbRotatedDimension
  0
DIMENSION
  5
176
100
AcDbEntity
  8
rozmir
  6
ByLayer
 62
  256
370
   -1
100
AcDbDimension
  2
*D13
 10
160
 20
0
 30
0
 11
157.25
 21
100
 31
0
 70
   32
 71
    5
  3
Standard
 53
0
210
0
220
0
230
1
100
AcDbAlignedDimension
 13
129
 23
200
 33
0
 14
129
 24
0
 34
0
 50
90
100
AcDbRotatedDimension
  0
DIMENSION
  5
177
100
AcDbEntity
  8
rozmir
  6
ByLayer
 62
  256
370
   -1
100
AcDbDimension
  2
*D14
 10
150
 20
180
 30
0
 11
147.25
 21
90
 31
0
 70
   32
 71
    5
  3
Standard
 53
0
210
0
220
0
230
1
100
AcDbAlignedDimension
 13
129
 23
0
 33
0
 14
126
 24
180
 34
0
 50
90
100
AcDbRotatedDimension
  0
DIMENSION
  5
178
100
AcDbEntity
  8
rozmir
  6
ByLayer
 62
  256
370
   -1
100
AcDbDimension
  2
*D15
 10
140
 20
90.5
 30
0
 11
137.25
 21
45.24999999999999
 31
0
 70
   32
 71
    5
  3
Standard
 53
0
210
0
220
0
230
1
100
AcDbAlignedDimension
 13
129
 23
0
 33
0
 14
126
 24
90.49999999999997
 34
0
 50
90
100
AcDbRotatedDimension
  0
LWPOLYLINE
  5
179
100
AcDbEntity
  8
obshivka
  6
ByLayer
 62
  256
370
   -1
100
AcDbPolyline
 90
   38
 70
    0
 43
0
 10
0
 20
-31
 10
0
 20
-32.8
 10
-1
 20
-33.8
 10
-1
 20
-40.5
 10
0
 20
-41.5
 10
0
 20
-43.30000000000001
 10
-1
 20
-44.30000000000001
 10
-1
 20
-51
 10
0
 20
-52
 10
1.4210854715202e-14
 20
-53.80000000000001
 10
-0.9999999999999858
 20
-54.80000000000001
 10
-1
 20
-61.5
 10
0
 20
-62.5
 10
1.4210854715202e-14
 20
-64.30000000000001
 10
-0.9999999999999858
 20
-65.30000000000001
 10
-0.9999999999999858
 20
-72
 10
1.4210854715202e-14
 20
-73
 10
1.4210854715202e-14
 20
-74.80000000000001
 10
-0.9999999999999858
 20
-75.80000000000001
 10
-0.9999999999999858
 20
-82.5
 10
1.4210854715202e-14
 20
-83.5
 10
1.4210854715202e-14
 20
-85.30000000000001
 10
-0.9999999999999858
 20
-86.30000000000001
 10
-0.9999999999999858
 20
-93
 10
1.4210854715202e-14
 20
-94
 10
1.4210854715202e-14
 20
-95.80000000000001
 10
-0.9999999999999858
 20
-96.80000000000001
 10
-0.9999999999999858
 20
-103.5
 10
1.4210854715202e-14
 20
-104.5
 10
1.4210854715202e-14
 20
-106.3
 10
-0.9999999999999858
 20
-107.3
 10
-0.9999999999999858
 20
-114
 10
1.4210854715202e-14
 20
-115
 10
1.4210854715202e-14
 20
-116.8
 10
-0.9999999999999858
 20
-117.8
 10
-0.9999999999999858
 20
-124.5
 10
1.4210854715202e-14
 20
-125.5
 10
1.4210854715202e-14
 20
-127.3
  0
LWPOLYLINE
  5
17A
100
AcDbEntity
  8
karkas2
  6
ByLayer
 62
  256
370
   -1
100
AcDbPolyline
 90
    8
 70
    1
 43
0
 10
2.600000000000001
 20
-33
 42
0.4142135623730953
 10
3
 20
-32.6
 10
3
 20
-30.4
 42
0.4142135623730957
 10
2.6
 20
-30
 10
0.3999999999999999
 20
-30
 42
0.414213562373096
 10
-5.551115123125783e-17
 20
-30.4
 10
1.609823385706477e-15
 20
-32.6
 42
0.414213562373095
 10
0.4000000000000001
 20
-33
  0
LWPOLYLINE
  5
17B
100
AcDbEntity
  8
karkas2
  6
DASHED2
 62
  256
370
   -1
100
AcDbPolyline
 90
    8
 70
    1
 43
0
 10
34.59999999999999
 20
-32.99999999999999
 42
0.4142135623730846
 10
35.00000000000001
 20
-32.60000000000001
 10
35.00000000000001
 20
-30.40000000000001
 42
0.4142135623731003
 10
34.59999999999999
 20
-30
 10
32.40000000000001
 20
-30
 42
0.4142135623730976
 10
31.99999999999999
 20
-30.40000000000001
 10
32.00000000000001
 20
-32.60000000000001
 42
0.4142135623730846
 10
32.40000000000001
 20
-33
  0
LWPOLYLINE
  5
17C
100
AcDbEntity
  8
obshivka
  6
ByLayer
 62
  256
370
   -1
100
AcDbPolyline
 90
   38
 70
    0
 43
0
 10
129
 20
-31
 10
129
 20
-32.8
 10
130
 20
-33.8
 10
130
 20
-40.5
 10
129
 20
-41.5
 10
129
 20
-43.30000000000001
 10
130
 20
-44.30000000000001
 10
130
 20
-51
 10
129
 20
-52
 10
129
 20
-53.80000000000001
 10
130
 20
-54.80000000000001
 10
130
 20
-61.5
 10
129
 20
-62.5
 10
129
 20
-64.30000000000001
 10
130
 20
-65.30000000000001
 10
130
 20
-72
 10
129
 20
-73
 10
129
 20
-74.80000000000001
 10
130
 20
-75.80000000000001
 10
130
 20
-82.5
 10
129
 20
-83.5
 10
129
 20
-85.30000000000001
 10
130
 20
-86.30000000000001
 10
130
 20
-93
 10
129
 20
-94
 10
129
 20
-95.80000000000001
 10
130
 20
-96.80000000000001
 10
130
 20
-103.5
 10
129
 20
-104.5
 10
129
 20
-106.3
 10
130
 20
-107.3
 10
130
 20
-114
 10
129
 20
-115
 10
129
 20
-116.8
 10
130
 20
-117.8
 10
130
 20
-124.5
 10
129
 20
-125.5
 10
129
 20
-127.3
  0
LWPOLYLINE
  5
17D
100
AcDbEntity
  8
karkas2
  6
ByLayer
 62
  256
370
   -1
100
AcDbPolyline
 90
    8
 70
    1
 43
0
 10
128.6
 20
-33
 42
0.4142135623730846
 10
129
 20
-32.6
 10
129
 20
-30.4
 42
0.4142135623730846
 10
128.6
 20
-30
 10
126.4
 20
-30
 42
0.4142135623730898
 10
126
 20
-30.4
 10
126
 20
-32.59999999999999
 42
0.4142135623730924
 10
126.4
 20
-33
  0
LINE
  5
17E
100
AcDbEntity
  8
karkas2
  6
ByLayer
 62
  256
370
   -1
100
AcDbLine
 10
2.600000110503453
 20
-30.00000000000001
 11
126.4
 21
-30
  0
LINE
  5
17F
100
AcDbEntity
  8
karkas2
  6
ByLayer
 62
  256
370
   -1
100
AcDbLine
 10
2.60000150845101
 20
-33.00000000000001
 11
126.4000013979476
 21
-33
  0
LWPOLYLINE
  5
180
100
AcDbEntity
  8
obshivka
  6
ByLayer
 62
  256
370
   -1
100
AcDbPolyline
 90
   48
 70
    0
 43
0
 10
0.5999999999999872
 20
-30
 10
2.399999999999987
 20
-30
 10
3.399999999999987
 20
-29
 10
10.09999999999999
 20
-29
 10
11.09999999999999
 20
-30
 10
12.89999999999999
 20
-30
 10
13.89999999999999
 20
-29
 10
20.59999999999999
 20
-29
 10
21.59999999999999
 20
-30
 10
23.39999999999999
 20
-30
 10
24.39999999999999
 20
-29
 10
31.09999999999999
 20
-29
 10
32.09999999999999
 20
-30
 10
33.89999999999998
 20
-30
 10
34.89999999999998
 20
-29
 10
41.59999999999999
 20
-29
 10
42.59999999999999
 20
-30
 10
44.39999999999998
 20
-30
 10
45.39999999999998
 20
-29
 10
52.09999999999999
 20
-29
 10
53.09999999999999
 20
-30
 10
54.89999999999998
 20
-30
 10
55.89999999999998
 20
-29
 10
62.59999999999999
 20
-29
 10
63.59999999999999
 20
-30
 10
65.39999999999998
 20
-30
 10
66.39999999999998
 20
-29
 10
73.09999999999999
 20
-29
 10
74.09999999999999
 20
-30
 10
75.89999999999998
 20
-30
 10
76.89999999999998
 20
-29
 10
83.59999999999999
 20
-29
 10
84.59999999999999
 20
-30
 10
86.39999999999998
 20
-30
 10
87.39999999999998
 20
-29
 10
94.09999999999999
 20
-29
 10
95.09999999999999
 20
-30
 10
96.89999999999998
 20
-30
 10
97.89999999999998
 20
-29
 10
104.6
 20
-29
 10
105.6
 20
-30
 10
107.4
 20
-30
 10
108.4
 20
-29
 10
115.1
 20
-29
 10
116.1
 20
-30
 10
117.9
 20
-30
 10
118.9
 20
-29
 10
119.6
 20
-29
  0
LWPOLYLINE
  5
181
100
AcDbEntity
  8
obshivka
  6
CONTINUOUS
 62
  256
370
   -1
100
AcDbPolyline
 90
    6
 70
    0
 43
0
 10
116.1
 20
-29.9
 10
117.9
 20
-29.9
 10
118.9
 20
-28.9
 10
125.6
 20
-28.9
 10
126.6
 20
-29.9
 10
128.4
 20
-29.9
  0
LWPOLYLINE
  5
182
100
AcDbEntity
  8
karkas2
  6
ByLayer
 62
  256
370
   -1
100
AcDbPolyline
 90
    8
 70
    1
 43
0
 10
2.599999999999994
 20
-128
 42
0.4142135623730857
 10
3
 20
-127.6
 10
2.999999999999994
 20
-125.4
 42
0.4142135623730908
 10
2.599999999999994
 20
-125
 10
0.4000000000000064
 20
-125
 42
0.4142135623730955
 10
-5.551115123125783e-17
 20
-125.4
 10
7.494005416219807e-15
 20
-127.6
 42
0.4142135623730799
 10
0.4000000000000053
 20
-128
  0
LWPOLYLINE
  5
183
100
AcDbEntity
  8
karkas1
  6
DASHED2
 62
  256
370
   -1
100
AcDbPolyline
 90
    8
 70
    1
 43
0
 10
4.899999999999995
 20
-128
 42
0.4142135623730852
 10
5.300000000000001
 20
-127.6
 10
5.299999999999994
 20
-125.4
 42
0.4142135623730898
 10
4.899999999999995
 20
-125
 10
3.700000000000006
 20
-125
 42
0.4142135623730957
 10
3.299999999999999
 20
-125.4
 10
3.300000000000006
 20
-127.6
 42
0.414213562373081
 10
3.700000000000006
 20
-128
  0
LINE
  5
184
100
AcDbEntity
  8
karkas2
  6
ByLayer
 62
  256
370
   -1
100
AcDbLine
 10
1.609823385706477e-15
 20
-32.6
 11
-1.110223024625157e-16
 21
-125.4
  0
LINE
  5
185
100
AcDbEntity
  8
karkas2
  6
ByLayer
 62
  256
370
   -1
100
AcDbLine
 10
3
 20
-33
 11
2.999999999999994
 21
-125
  0
LWPOLYLINE
  5
186
100
AcDbEntity
  8
karkas2
  6
DASHED2
 62
  256
370
   -1
100
AcDbPolyline
 90
    8
 70
    1
 43
0
 10
79.90000000000001
 20
-128
 42
0.4142135623730742
 10
80.30000000000001
 20
-127.6
 10
80.30000000000001
 20
-125.4
 42
0.414213562373095
 10
79.90000000000001
 20
-125
 10
77.70000000000002
 20
-125
 42
0.414213562373095
 10
77.30000000000001
 20
-125.4
 10
77.30000000000001
 20
-127.6
 42
0.4142135623730638
 10
77.70000000000002
 20
-128
  0
LWPOLYLINE
  5
187
100
AcDbEntity
  8
karkas1
  6
DASHED2
 62
  256
370
   -1
100
AcDbPolyline
 90
    8
 70
    1
 43
0
 10
76.59999999999999
 20
-128
 42
0.4142135623730742
 10
77
 20
-127.6
 10
77
 20
-125.4
 42
0.414213562373095
 10
76.59999999999999
 20
-125
 10
75.40000000000001
 20
-125
 42
0.414213562373095
 10
75
 20
-125.4
 10
75
 20
-127.6
 42
0.4142135623730638
 10
75.40000000000001
 20
-128
  0
LINE
  5
188
100
AcDbEntity
  8
karkas2
  6
ByLayer
 62
  256
370
   -1
100
AcDbLine
 10
35
 20
-33
 11
34.99999999999999
 21
-125
  0
LINE
  5
189
100
AcDbEntity
  8
karkas2
  6
ByLayer
 62
  256
370
   -1
100
AcDbLine
 10
32
 20
-33
 11
32
 21
-125
  0
LWPOLYLINE
  5
18A
100
AcDbEntity
  8
karkas2
  6
ByLayer
 62
  256
370
   -1
100
AcDbPolyline
 90
    8
 70
    1
 43
0
 10
128.6
 20
-128
 42
0.4142135623730638
 10
129
 20
-127.6
 10
129
 20
-125.4
 42
0.4142135623730846
 10
128.6
 20
-125
 10
126.4
 20
-125
 42
0.414213562373095
 10
126
 20
-125.4
 10
126
 20
-127.6
 42
0.4142135623730638
 10
126.4
 20
-128
  0
LINE
  5
18B
100
AcDbEntity
  8
karkas2
  6
ByLayer
 62
  256
370
   -1
100
AcDbLine
 10
2.599998030238803
 20
-125
 11
126.3999979197354
 21
-125
  0
LINE
  5
18C
100
AcDbEntity
  8
karkas2
  6
ByLayer
 62
  256
370
   -1
100
AcDbLine
 10
2.59999942818636
 20
-128
 11
126.3999993176829
 21
-128
  0
LINE
  5
18D
100
AcDbEntity
  8
karkas2
  6
ByLayer
 62
  256
370
   -1
100
AcDbLine
 10
129
 20
-32.6
 11
129
 21
-125.4
  0
LINE
  5
18E
100
AcDbEntity
  8
karkas2
  6
ByLayer
 62
  256
370
   -1
100
AcDbLine
 10
126
 20
-33
 11
126
 21
-125
  0
LWPOLYLINE
  5
18F
100
AcDbEntity
  8
obshivka
  6
ByLayer
 62
  256
370
   -1
100
AcDbPolyline
 90
   30
 70
    0
 43
0
 10
77.80000000000001
 20
-128
 10
76.00000000000001
 20
-128
 10
75.00000000000001
 20
-129.3
 10
68.30000000000001
 20
-129.3
 10
67.30000000000001
 20
-128
 10
65.50000000000001
 20
-128
 10
64.50000000000001
 20
-129.3
 10
57.80000000000001
 20
-129.3
 10
56.8
 20
-128
 10
55.00000000000001
 20
-128
 10
54.00000000000001
 20
-129.3
 10
47.3
 20
-129.3
 10
46.3
 20
-128
 10
44.50000000000001
 20
-128
 10
43.50000000000001
 20
-129.3
 10
36.8
 20
-129.3
 10
35.8
 20
-128
 10
34.00000000000001
 20
-128
 10
33.00000000000001
 20
-129.3
 10
26.3
 20
-129.3
 10
25.3
 20
-128
 10
23.50000000000002
 20
-128
 10
22.50000000000002
 20
-129.3
 10
15.80000000000001
 20
-129.3
 10
14.80000000000001
 20
-128
 10
13.00000000000002
 20
-128
 10
12.00000000000002
 20
-129.3
 10
5.30000000000001
 20
-129.3
 10
4.30000000000001
 20
-128
 10
2.500000000000016
 20
-128
  0
LWPOLYLINE
  5
190
100
AcDbEntity
  8
obshivka
  6
CONTINUOUS
 62
  256
370
   -1
100
AcDbPolyline
 90
    8
 70
    0
 43
0
 10
112.7
 20
-129.1
 10
114.7
 20
-129.1
 10
115.7
 20
-128.1
 10
117.5
 20
-128.1
 10
118.5
 20
-129.1
 10
125.2
 20
-129.1
 10
126.2
 20
-128.1
 10
128
 20
-128.1
  0
LWPOLYLINE
  5
191
100
AcDbEntity
  8
obshivka
  6
CONTINUOUS
 62
  256
370
   -1
100
AcDbPolyline
 90
   16
 70
    0
 43
0
 10
114.5
 20
-129
 10
112.6
 20
-129
 10
111.6
 20
-128
 10
109.8
 20
-128
 10
108.8
 20
-129
 10
102.1
 20
-129
 10
101.1
 20
-128
 10
99.30000000000003
 20
-128
 10
98.30000000000003
 20
-129
 10
91.60000000000002
 20
-129
 10
90.60000000000002
 20
-128
 10
88.80000000000003
 20
-128
 10
87.80000000000003
 20
-129
 10
81.10000000000002
 20
-129
 10
80.10000000000002
 20
-128
 10
78.30000000000001
 20
-128
  0
LWPOLYLINE
  5
192
100
AcDbEntity
  8
bak
  6
ByLayer
 62
  256
370
   -1
100
AcDbPolyline
 90
    4
 70
    1
 43
0
 10
48.50000000000003
 20
-111
 10
112.5
 20
-111
 10
112.5
 20
-47.00000000000001
 10
48.50000000000003
 20
-47.00000000000001
  0
CIRCLE
  5
193
100
AcDbEntity
  8
bak
  6
ByLayer
 62
  256
370
   -1
100
AcDbCircle
 10
80.5
 20
-79
 40
9.5
  0
LINE
  5
194
100
AcDbEntity
  8
rozmir
  6
DASHDOT2
 62
  256
370
   -1
100
AcDbLine
 10
80.5
 20
-19.84999999999999
 11
80.5
 21
-139.85
  0
LINE
  5
195
100
AcDbEntity
  8
rozmir
  6
DASHDOT2
 62
  256
370
   -1
100
AcDbLine
 10
10.84000000000003
 20
-79
 11
150.85
 21
-79
  0
LWPOLYLINE
  5
196
100
AcDbEntity
  8
karkas2
  6
ByLayer
 62
  256
370
   -1
100
AcDbPolyline
 90
    4
 70
    1
 43
0
 10
50.5
 20
-32.9999999999999
 10
53.5
 20
-32.9999999999999
 10
53.5
 20
-125
 10
50.5
 20
-125
  0
DIMENSION
  5
197
100
AcDbEntity
  8
rozmir
  6
ByLayer
 62
  256
370
   -1
100
AcDbDimension
  2
*D16
 10
50.45000000000002
 20
-19.84999999999999
 30
0
 11
25.25
 21
-17.09999999999999
 31
0
 70
   32
 71
    5
  3
Standard
 53
0
210
0
220
0
230
1
100
AcDbAlignedDimension
 13
0
 23
-30.40000013634333
 33
0
 14
50.5
 24
-32.9999999999999
 34
0
100
AcDbRotatedDimension
  0
LWPOLYLINE
  5
198
100
AcDbEntity
  8
karkas2
  6
ByLayer
 62
  256
370
   -1
100
AcDbPolyline
 90
    4
 70
    1
 43
0
 10
110.5000000000004
 20
-33
 10
107.5000000000004
 20
-33
 10
107.5
 20
-125
 10
110.5
 20
-125
  0
DIMENSION
  5
199
100
AcDbEntity
  8
rozmir
  6
ByLayer
 62
  256
370
   -1
100
AcDbDimension
  2
*D17
 10
140.15
 20
-19.84999999999999
 30
0
 11
119.7500000000002
 21
-17.09999999999999
 31
0
 70
   32
 71
    5
  3
Standard
 53
0
210
0
220
0
230
1
100
AcDbAlignedDimension
 13
110.5000000000004
 23
-33
 33
0
 14
129
 24
-30.4
 34
0
100
AcDbRotatedDimension
  0
DIMENSION
  5
19A
100
AcDbEntity
  8
rozmir
  6
ByLayer
 62
  256
370
   -1
100
AcDbDimension
  2
*D18
 10
107.5500000000002
 20
-19.84999999999999
 30
0
 11
80.50000000000018
 21
-17.09999999999999
 31
0
 70
   32
 71
    5
  3
Standard
 53
0
210
0
220
0
230
1
100
AcDbAlignedDimension
 13
53.5
 23
-32.99999999999991
 33
0
 14
107.5000000000004
 24
-33
 34
0
100
AcDbRotatedDimension
  0
LWPOLYLINE
  5
19B
100
AcDbEntity
  8
karkas1
  6
ByLayer
 62
  256
370
   -1
100
AcDbPolyline
 90
    4
 70
    1
 43
0
 10
53.50000000000009
 20
-49
 10
107.5000000000002
 20
-49
 10
107.5000000000001
 20
-51
 10
53.5
 20
-51
  0
LWPOLYLINE
  5
19C
100
AcDbEntity
  8
karkas1
  6
ByLayer
 62
  256
370
   -1
100
AcDbPolyline
 90
    4
 70
    1
 43
0
 10
53.5
 20
-109
 10
107.5000000000001
 20
-109
 10
107.5000000000002
 20
-107
 10
53.50000000000011
 20
-107
  0
DIMENSION
  5
19D
100
AcDbEntity
  8
rozmir
  6
ByLayer
 62
  256
370
   -1
100
AcDbDimension
  2
*D19
 10
61.44999999999993
 20
-40.84999999999999
 30
0
 11
57.49999999999999
 21
-38.09999999999999
 31
0
 70
   32
 71
    5
  3
Standard
 53
0
210
0
220
0
230
1
100
AcDbAlignedDimension
 13
53.50000000000009
 23
-49.04285714285717
 33
0
 14
61.49999999999989
 24
-50.99999999999994
 34
0
100
AcDbRotatedDimension
  0
LWPOLYLINE
  5
19E
100
AcDbEntity
  8
karkas1
  6
ByLayer
 62
  256
370
   -1
100
AcDbPolyline
 90
    4
 70
    1
 43
0
 10
61.49999999999989
 20
-50.99999999999994
 10
63.49999999999997
 20
-51.00000000000001
 10
63.5
 20
-107
 10
61.5
 20
-107
  0
DIMENSION
  5
19F
100
AcDbEntity
  8
rozmir
  6
ByLayer
 62
  256
370
   -1
100
AcDbDimension
  2
*D20
 10
105.85
 20
-59.95
 30
0
 11
103.1
 21
-55.50000000000001
 31
0
 70
   32
 71
    5
  3
Standard
 53
0
210
0
220
0
230
1
100
AcDbAlignedDimension
 13
99.5
 23
-51
 33
0
 14
97.5
 24
-60.00000000000001
 34
0
 50
90
100
AcDbRotatedDimension
  0
DIMENSION
  5
1A0
100
AcDbEntity
  8
rozmir
  6
ByLayer
 62
  256
370
   -1
100
AcDbDimension
  2
*D21
 10
107.55
 20
-40.84999999999999
 30
0
 11
103.5000000000001
 21
-38.09999999999999
 31
0
 70
   32
 71
    5
  3
Standard
 53
0
210
0
220
0
230
1
100
AcDbAlignedDimension
 13
99.5
 23
-51
 33
0
 14
107.5000000000002
 24
-49
 34
0
100
AcDbRotatedDimension
  0
DIMENSION
  5
1A1
100
AcDbEntity
  8
rozmir
  6
ByLayer
 62
  256
370
   -1
100
AcDbDimension
  2
*D22
 10
105.85
 20
-98.05
 30
0
 11
103.1
 21
-102.5
 31
0
 70
   32
 71
    5
  3
Standard
 53
0
210
0
220
0
230
1
100
AcDbAlignedDimension
 13
99.4999999999998
 23
-107
 33
0
 14
97.49999999999991
 24
-98
 34
0
 50
90
100
AcDbRotatedDimension
  0
LWPOLYLINE
  5
1A2
100
AcDbEntity
  8
karkas1
  6
ByLayer
 62
  256
370
   -1
100
AcDbPolyline
 90
    4
 70
    1
 43
0
 10
99.50000000000011
 20
-51
 10
97.5
 20
-51
 10
97.50000000000003
 20
-107
 10
99.4999999999998
 20
-107
  0
LWPOLYLINE
  5
1A3
100
AcDbEntity
  8
karkas1
  6
ByLayer
 62
  256
370
   -1
100
AcDbPolyline
 90
    4
 70
    1
 43
0
 10
63.49999999999997
 20
-60
 10
97.5
 20
-60.00000000000001
 10
97.49999999999989
 20
-62.00000000000001
 10
63.49999999999989
 20
-62
  0
DIMENSION
  5
1A4
100
AcDbEntity
  8
rozmir
  6
ByLayer
 62
  256
370
   -1
100
AcDbDimension
  2
*D23
 10
97.55000000000001
 20
-40.84999999999999
 30
0
 11
80.49999999999999
 21
-38.09999999999999
 31
0
 70
   32
 71
    5
  3
Standard
 53
0
210
0
220
0
230
1
100
AcDbAlignedDimension
 13
63.49999999999997
 23
-51.00000000000001
 33
0
 14
97.5
 24
-51
 34
0
100
AcDbRotatedDimension
  0
LWPOLYLINE
  5
1A5
100
AcDbEntity
  8
karkas1
  6
ByLayer
 62
  256
370
   -1
100
AcDbPolyline
 90
    4
 70
    1
 43
0
 10
63.49999999999989
 20
-98.00000000000001
 10
97.49999999999991
 20
-98
 10
97.4999999999998
 20
-96
 10
63.4999999999998
 20
-96.00000000000001
  0
LWPOLYLINE
  5
1A6
100
AcDbEntity
  8
karkas1
  6
ByLayer
 62
  256
370
   -1
100
AcDbPolyline
 90
    5
 70
    0
 43
0
 10
3
 20
-45.82842712474618
 10
3
 20
-43.00000000000001
 10
13
 20
-33
 10
15.82842712474621
 20
-33.00000000000001
 10
3
 20
-45.82842712474618
  0
DIMENSION
  5
1A7
100
AcDbEntity
  8
rozmir
  6
ByLayer
 62
  256
370
   -1
100
AcDbDimension
  2
*D24
 10
21.4929162534558
 20
-38.56638086653498
 30
0
 11
13.06133242137731
 21
-43.0231767678932
 31
0
 70
   33
 71
    5
  3
Standard
 53
0
210
0
220
0
230
1
100
AcDbAlignedDimension
 13
3
 23
-45.82842712474618
 33
0
 14
16
 24
-33
 34
0
  0
LWPOLYLINE
  5
1A8
100
AcDbEntity
  8
karkas1
  6
ByLayer
 62
  256
370
   -1
100
AcDbPolyline
 90
    5
 70
    0
 43
0
 10
3
 20
-112.1715728752538
 10
3
 20
-115
 10
13
 20
-125
 10
15.82842712474621
 20
-125
 10
3
 20
-112.1715728752538
  0
DIMENSION
  5
1A9
100
AcDbEntity
  8
rozmir
  6
ByLayer
 62
  256
370
   -1
100
AcDbDimension
  2
*D25
 10
43
 20
-47
 30
0
 11
40.25
 21
-40.99999999999995
 31
0
 70
   32
 71
    5
  3
Standard
 53
0
210
0
220
0
230
1
100
AcDbAlignedDimension
 13
50.50000000000001
 23
-32.9999999999999
 33
0
 14
53.5
 24
-49
 34
0
 50
90
100
AcDbRotatedDimension
  0
DIMENSION
  5
1AA
100
AcDbEntity
  8
rozmir
  6
ByLayer
 62
  256
370
   -1
100
AcDbDimension
  2
*D26
 10
43
 20
-57
 30
0
 11
40.25
 21
-79
 31
0
 70
   32
 71
    5
  3
Standard
 53
0
210
0
220
0
230
1
100
AcDbAlignedDimension
 13
53.5
 23
-51
 33
0
 14
53.50000000000011
 24
-107
 34
0
 50
90
100
AcDbRotatedDimension
  0
DIMENSION
  5
1AB
100
AcDbEntity
  8
rozmir
  6
ByLayer
 62
  256
370
   -1
100
AcDbDimension
  2
*D27
 10
43
 20
-125
 30
0
 11
40.25
 21
-117
 31
0
 70
   32
 71
    5
  3
Standard
 53
0
210
0
220
0
230
1
100
AcDbAlignedDimension
 13
53.5
 23
-109
 33
0
 14
50.50000000000001
 24
-125
 34
0
 50
90
100
AcDbRotatedDimension
  0
LWPOLYLINE
  5
1AC
100
AcDbEntity
  8
karkas1
  6
ByLayer
 62
  256
370
   -1
100
AcDbPolyline
 90
    5
 70
    0
 43
0
 10
126
 20
-112.1715728752538
 10
126
 20
-114.9999999999999
 10
116
 20
-125
 10
113.1715728752539
 20
-125
 10
126
 20
-112.1715728752538
  0
LWPOLYLINE
  5
1AD
100
AcDbEntity
  8
karkas1
  6
ByLayer
 62
  256
370
   -1
100
AcDbPolyline
 90
    5
 70
    0
 43
0
 10
126.0000000000001
 20
-45.8284271247461
 10
126.0000000000001
 20
-42.99999999999993
 10
116
 20
-33
 10
113.1715728752538
 20
-33.00000000000001
 10
126.0000000000001
 20
-45.8284271247461
  0
DIMENSION
  5
1AE
100
AcDbEntity
  8
rozmir
  6
ByLayer
 62
  256
370
   -1
100
AcDbDimension
  2
*D28
 10
32
 20
-100
 30
0
 11
17.5
 21
-97.25
 31
0
 70
   32
 71
    5
  3
Standard
 53
0
210
0
220
0
230
1
100
AcDbAlignedDimension
 13
3
 23
-125
 33
0
 14
32
 24
-125
 34
0
100
AcDbRotatedDimension
  0
LINE
  5
1AF
100
AcDbEntity
  8
karkas2
  6
DASHED2
 62
  256
370
   -1
100
AcDbLine
 10
32
 20
5.4
 11
32
 21
3.4
  0
LINE
  5
1B0
100
AcDbEntity
  8
karkas2
  6
DASHED2
 62
  256
370
   -1
100
AcDbLine
 10
35
 20
5.4
 11
35
 21
3.4
  0
LINE
  5
1B1
100
AcDbEntity
  8
karkas2
  6
DASHED2
 62
  256
370
   -1
100
AcDbLine
 10
32.00000000000001
 20
92.50000000000001
 11
32.00000000000001
 21
90.50000000000001
  0
LINE
  5
1B2
100
AcDbEntity
  8
karkas2
  6
DASHED2
 62
  256
370
   -1
100
AcDbLine
 10
35.00000000000001
 20
92.50000000000001
 11
35.00000000000001
 21
90.50000000000001
  0
LINE
  5
1B3
100
AcDbEntity
  8
karkas2
  6
DASHED2
 62
  256
370
   -1
100
AcDbLine
 10
32.00000000000003
 20
182
 11
32.00000000000003
 21
180
  0
LINE
  5
1B4
100
AcDbEntity
  8
karkas2
  6
DASHED2
 62
  256
370
   -1
100
AcDbLine
 10
35.00000000000003
 20
182
 11
35
 21
180
  0
LWPOLYLINE
  5
1B5
100
AcDbEntity
  8
karkas2
  6
ByLayer
 62
  256
370
   -1
100
AcDbPolyline
 90
    4
 70
    0
 43
0
 10
32.00000000000003
 20
182
 10
32.00000000000003
 20
197
 10
35.00000000000003
 20
197
 10
35
 20
182
  0
LWPOLYLINE
  5
1B6
100
AcDbEntity
  8
karkas2
  6
ByLayer
 62
  256
370
   -1
100
AcDbPolyline
 90
    4
 70
    0
 43
0
 10
32
 20
3.4
 10
32
 20
3
 10
35
 20
3
 10
35
 20
3.4
  0
LINE
  5
1B7
100
AcDbEntity
  8
karkas2
  6
ByLayer
 62
  256
370
   -1
100
AcDbLine
 10
32
 20
5.4
 11
32.00000000000001
 21
90.50000000000001
  0
LINE
  5
1B8
100
AcDbEntity
  8
karkas2
  6
ByLayer
 62
  256
370
   -1
100
AcDbLine
 10
32.00000000000001
 20
92.50000000000001
 11
32.00000000000003
 21
180
  0
LINE
  5
1B9
100
AcDbEntity
  8
karkas2
  6
ByLayer
 62
  256
370
   -1
100
AcDbLine
 10
35
 20
5.4
 11
35.00000000000001
 21
90.50000000000001
  0
LINE
  5
1BA
100
AcDbEntity
  8
karkas2
  6
ByLayer
 62
  256
370
   -1
100
AcDbLine
 10
35.00000000000001
 20
92.50000000000001
 11
35.00000000000003
 21
180
  0
LWPOLYLINE
  5
1BB
100
AcDbEntity
  8
karkas2
  6
ByLayer
 62
  256
370
   -1
100
AcDbPolyline
 90
    4
 70
    1
 43
0
 10
243
 20
3
 10
246
 20
3
 10
246.0000000000001
 20
197
 10
243.0000000000001
 20
197
  0
LWPOLYLINE
  5
1BC
100
AcDbEntity
  8
karkas2
  6
DASHED2
 62
  256
370
   -1
100
AcDbPolyline
 90
    8
 70
    1
 43
0
 10
34.59999999999999
 20
-76.00000000000001
 42
0.4142135623730846
 10
35.00000000000001
 20
-75.60000000000001
 10
35
 20
-73.40000000000002
 42
0.414213562373095
 10
34.59999999999999
 20
-73
 10
32.40000000000001
 20
-73
 42
0.4142135623731003
 10
31.99999999999999
 20
-73.40000000000002
 10
32.00000000000001
 20
-75.60000000000002
 42
0.4142135623730846
 10
32.40000000000001
 20
-76.00000000000001
  0
LWPOLYLINE
  5
1BD
100
AcDbEntity
  8
obshivka
  6
ByLayer
 62
  256
370
   -1
100
AcDbPolyline
 90
   18
 70
    0
 43
0
 10
35
 20
-31.10000000000001
 10
35
 20
-32.90000000000001
 10
36
 20
-33.90000000000001
 10
36
 20
-40.60000000000001
 10
35
 20
-41.60000000000001
 10
35
 20
-43.40000000000002
 10
36
 20
-44.40000000000002
 10
36
 20
-51.10000000000001
 10
35
 20
-52.10000000000001
 10
35
 20
-53.90000000000002
 10
36
 20
-54.90000000000002
 10
36
 20
-61.60000000000001
 10
35
 20
-62.60000000000001
 10
35
 20
-64.40000000000002
 10
36
 20
-65.40000000000002
 10
36
 20
-72.10000000000001
 10
35
 20
-73.10000000000001
 10
35
 20
-74.90000000000002
  0
DIMENSION
  5
1BE
100
AcDbEntity
  8
rozmir
  6
ByLayer
 62
  256
370
   -1
100
AcDbDimension
  2
*D29
 10
243
 20
20
 30
0
 11
223
 21
22.75
 31
0
 70
   32
 71
    5
  3
Standard
 53
0
210
0
220
0
230
1
100
AcDbAlignedDimension
 13
203
 23
3
 33
0
 14
243
 24
3
 34
0
100
AcDbRotatedDimension
  0
ENDSEC
  0
SECTION
  2
OBJECTS
  0
DICTIONARY
  5
C
330
0
100
AcDbDictionary
281
    1
  3
ACAD_GROUP
350
D
  0
DICTIONARY
  5
D
330
C
100
AcDbDictionary
281
    1
  0
ENDSEC
  0
EOF
