999
dxfrw 0.6.3
  0
SECTION
  2
HEADER
  9
$ACADVER
  1
AC1021
  9
$DWGCODEPAGE
  3
ANSI_1252
  9
$INSBASE
 10
0
 20
0
 30
0
  9
$EXTMIN
 10
-24.5
 20
-130
 30
0
  9
$EXTMAX
 10
310
 20
234.5
 30
0
  9
$LIMMIN
 10
0
 20
0
  9
$LIMMAX
 10
420
 20
297
  9
$ORTHOMODE
 70
    0
  9
$REGENMODE
 70
    1
  9
$FILLMODE
 70
    1
  9
$QTEXTMODE
 70
    0
  9
$MIRRTEXT
 70
    0
  9
$LTSCALE
 40
1
  9
$ATTMODE
 70
    0
  9
$TEXTSIZE
 40
2.5
  9
$TRACEWID
 40
15.68
  9
$TEXTSTYLE
  7
STANDARD
  9
$CLAYER
  8
rozmir
  9
$CELTYPE
  6
BYLAYER
  9
$CECOLOR
 62
  256
  9
$CELTSCALE
 40
1
  9
$DISPSILH
 70
    0
  9
$DIMSCALE
 40
1
  9
$DIMASZ
 40
5
  9
$DIMEXO
 40
1
  9
$DIMDLI
 40
3.75
  9
$DIMRND
 40
0
  9
$DIMDLE
 40
0
  9
$DIMEXE
 40
2
  9
$DIMTP
 40
0
  9
$DIMTM
 40
0
  9
$DIMTXT
 40
3.5
  9
$DIMCEN
 40
2.5
  9
$DIMTSZ
 40
0
  9
$DIMTOL
 70
    0
  9
$DIMLIM
 70
    0
  9
$DIMTIH
 70
    0
  9
$DIMTOH
 70
    0
  9
$DIMSE1
 70
    0
  9
$DIMSE2
 70
    0
  9
$DIMTAD
 70
    1
  9
$DIMZIN
 70
    9
  9
$DIMBLK
  1

  9
$DIMASO
 70
    1
  9
$DIMSHO
 70
    1
  9
$DIMPOST
  1

  9
$DIMAPOST
  1

  9
$DIMALT
 70
    0
  9
$DIMALTD
 70
    3
  9
$DIMALTF
 40
0.03937
  9
$DIMLFAC
 40
1
  9
$DIMTOFL
 70
    1
  9
$DIMTVP
 40
0
  9
$DIMTIX
 70
    0
  9
$DIMSOXD
 70
    0
  9
$DIMSAH
 70
    0
  9
$DIMBLK1
  1

  9
$DIMBLK2
  1

  9
$DIMSTYLE
  2
STANDARD
  9
$DIMCLRD
 70
    0
  9
$DIMCLRE
 70
    0
  9
$DIMCLRT
 70
    0
  9
$DIMTFAC
 40
1
  9
$DIMGAP
 40
1
  9
$DIMJUST
 70
    0
  9
$DIMSD1
 70
    0
  9
$DIMSD2
 70
    0
  9
$DIMTOLJ
 70
    0
  9
$DIMTZIN
 70
    8
  9
$DIMALTZ
 70
    0
  9
$DIMALTTZ
 70
    0
  9
$DIMUPT
 70
    0
  9
$DIMDEC
 70
    1
  9
$DIMTDEC
 70
    2
  9
$DIMALTU
 70
    2
  9
$DIMALTTD
 70
    3
  9
$DIMTXSTY
  7
standard
  9
$DIMAUNIT
 70
    0
  9
$DIMADEC
 70
    1
  9
$DIMALTRND
 40
0
  9
$DIMAZIN
 70
    0
  9
$DIMDSEP
 70
    0
  9
$DIMATFIT
 70
    3
  9
$DIMFRAC
 70
    0
  9
$DIMLDRBLK
  1
STANDARD
  9
$DIMLUNIT
 70
    2
  9
$DIMLWD
 70
   -2
  9
$DIMLWE
 70
   -2
  9
$DIMTMOVE
 70
    0
  9
$DIMFXL
 40
1
  9
$DIMFXLON
 70
    0
  9
$DIMJOGANG
 40
0.7854
  9
$DIMTFILL
 70
    0
  9
$DIMTFILLCLR
 70
    0
  9
$DIMARCSYM
 70
    0
  9
$DIMLTYPE
  6

  9
$DIMLTEX1
  6

  9
$DIMLTEX2
  6

  9
$LUNITS
 70
    2
  9
$LUPREC
 70
    1
  9
$SKETCHINC
 40
1
  9
$FILLETRAD
 40
0
  9
$AUNITS
 70
    0
  9
$AUPREC
 70
    1
  9
$MENU
  1
.
  9
$ELEVATION
 40
0
  9
$PELEVATION
 40
0
  9
$THICKNESS
 40
0
  9
$LIMCHECK
 70
    0
  9
$CHAMFERA
 40
0
  9
$CHAMFERB
 40
0
  9
$CHAMFERC
 40
0
  9
$CHAMFERD
 40
0
  9
$SKPOLY
 70
    0
  9
$USRTIMER
 70
    1
  9
$ANGBASE
 50
0
  9
$ANGDIR
 70
    0
  9
$PDMODE
 70
   34
  9
$PDSIZE
 40
0
  9
$PLINEWID
 40
0
  9
$SPLFRAME
 70
    0
  9
$SPLINETYPE
 70
    2
  9
$SPLINESEGS
 70
    8
  9
$HANDSEED
  5
20000
  9
$SURFTAB1
 70
    6
  9
$SURFTAB2
 70
    6
  9
$SURFTYPE
 70
    6
  9
$SURFU
 70
    6
  9
$SURFV
 70
    6
  9
$UCSBASE
  2

  9
$UCSNAME
  2

  9
$UCSORG
 10
0
 20
0
 30
0
  9
$UCSXDIR
 10
1
 20
0
 30
0
  9
$UCSYDIR
 10
0
 20
1
 30
0
  9
$UCSORTHOREF
  2

  9
$UCSORTHOVIEW
 70
    0
  9
$UCSORGTOP
 10
0
 20
0
 30
0
  9
$UCSORGBOTTOM
 10
0
 20
0
 30
0
  9
$UCSORGLEFT
 10
0
 20
0
 30
0
  9
$UCSORGRIGHT
 10
0
 20
0
 30
0
  9
$UCSORGFRONT
 10
0
 20
0
 30
0
  9
$UCSORGBACK
 10
0
 20
0
 30
0
  9
$PUCSBASE
  2

  9
$PUCSNAME
  2

  9
$PUCSORG
 10
0
 20
0
 30
0
  9
$PUCSXDIR
 10
1
 20
0
 30
0
  9
$PUCSYDIR
 10
0
 20
1
 30
0
  9
$PUCSORTHOREF
  2

  9
$PUCSORTHOVIEW
 70
    0
  9
$PUCSORGTOP
 10
0
 20
0
 30
0
  9
$PUCSORGBOTTOM
 10
0
 20
0
 30
0
  9
$PUCSORGLEFT
 10
0
 20
0
 30
0
  9
$PUCSORGRIGHT
 10
0
 20
0
 30
0
  9
$PUCSORGFRONT
 10
0
 20
0
 30
0
  9
$PUCSORGBACK
 10
0
 20
0
 30
0
  9
$USERI1
 70
    0
  9
$USERI2
 70
    0
  9
$USERI3
 70
    0
  9
$USERI4
 70
    0
  9
$USERI5
 70
    0
  9
$USERR1
 40
0
  9
$USERR2
 40
0
  9
$USERR3
 40
0
  9
$USERR4
 40
0
  9
$USERR5
 40
0
  9
$WORLDVIEW
 70
    1
  9
$SHADEDGE
 70
    3
  9
$SHADEDIF
 70
   70
  9
$TILEMODE
 70
    1
  9
$MAXACTVP
 70
   64
  9
$PINSBASE
 10
0
 20
0
 30
0
  9
$PLIMCHECK
 70
    0
  9
$PEXTMIN
 10
0
 20
0
 30
0
  9
$PEXTMAX
 10
0
 20
0
 30
0
  9
$GRIDMODE
 70
    1
  9
$GRIDUNIT
 10
0
 20
0
  9
$PLIMMIN
 10
0
 20
0
  9
$PLIMMAX
 10
29.7
 20
21
  9
$UNITMODE
 70
    0
  9
$VISRETAIN
 70
    1
  9
$PLINEGEN
 70
    0
  9
$PSLTSCALE
 70
    1
  9
$TREEDEPTH
 70
 3020
  9
$CMLSTYLE
  2
Standard
  9
$CMLJUST
 70
    0
  9
$CMLSCALE
 40
20
  9
$PROXYGRAPHICS
 70
    1
  9
$MEASUREMENT
 70
    1
  9
$CELWEIGHT
370
   -1
  9
$ENDCAPS
280
    0
  9
$JOINSTYLE
280
    0
  9
$LWDISPLAY
290
    0
  9
$INSUNITS
 70
    5
  9
$HYPERLINKBASE
  1

  9
$STYLESHEET
  1

  9
$XEDIT
290
    1
  9
$CEPSNTYPE
380
    0
  9
$PSTYLEMODE
290
    1
  9
$EXTNAMES
290
    1
  9
$PSVPSCALE
 40
1
  9
$OLESTARTUP
290
    0
  9
$SORTENTS
280
  127
  9
$INDEXCTL
280
    0
  9
$HIDETEXT
280
    1
  9
$XCLIPFRAME
290
    0
  9
$HALOGAP
280
    0
  9
$OBSCOLOR
 70
  257
  9
$OBSLTYPE
280
    0
  9
$INTERSECTIONDISPLAY
280
    0
  9
$INTERSECTIONCOLOR
 70
  257
  9
$DIMASSOC
280
    1
  9
$PROJECTNAME
  1

  9
$CAMERADISPLAY
290
    0
  9
$LENSLENGTH
 40
50
  9
$CAMERAHEIGHT
 40
0
  9
$STEPSPERSEC
 40
2
  9
$STEPSIZE
 40
50
  9
$3DDWFPREC
 40
2
  9
$PSOLWIDTH
 40
5
  9
$PSOLHEIGHT
 40
80
  9
$LOFTANG1
 40
1.570796326794897
  9
$LOFTANG2
 40
1.570796326794897
  9
$LOFTMAG1
 40
0
  9
$LOFTMAG2
 40
0
  9
$LOFTPARAM
 70
    7
  9
$LOFTNORMALS
280
    1
  9
$LATITUDE
 40
1
  9
$LONGITUDE
 40
1
  9
$NORTHDIRECTION
 40
0
  9
$TIMEZONE
 70
-8000
  9
$LIGHTGLYPHDISPLAY
280
    1
  9
$TILEMODELIGHTSYNCH
280
    1
  9
$SOLIDHIST
280
    1
  9
$SHOWHIST
280
    1
  9
$DWFFRAME
280
    2
  9
$DGNFRAME
280
    0
  9
$REALWORLDSCALE
290
    1
  9
$INTERFERECOLOR
 62
    1
  9
$CSHADOW
280
    0
  9
$SHADOWPLANELOCATION
 40
0
  0
ENDSEC
  0
SECTION
  2
CLASSES
  0
ENDSEC
  0
SECTION
  2
TABLES
  0
TABLE
  2
VPORT
  5
8
330
0
100
AcDbSymbolTable
 70
    1
  0
VPORT
  5
31
330
2
100
AcDbSymbolTableRecord
100
AcDbViewportTableRecord
  2
*ACTIVE
 70
    0
 10
0
 20
0
 11
1
 21
1
 12
259.9554698457223
 22
119.8811360448808
 13
0
 23
0
 14
10
 24
10
 15
10
 25
10
 16
0
 26
0
 36
1
 17
0
 27
0
 37
0
 40
374.7244039270687
 41
2.012278308321965
 42
50
 43
0
 44
0
 50
0
 51
0
 71
    0
 72
  100
 73
    1
 74
    3
 75
    0
 76
    1
 77
    0
 78
    0
281
    0
 65
    1
110
0
120
0
130
0
111
1
121
0
131
0
112
0
122
1
132
0
 79
    0
146
0
348
10020
 60
    7
 61
    5
292
1
282
    1
141
0
142
0
 63
  250
421
3358443
  0
ENDTAB
  0
TABLE
  2
LTYPE
  5
5
330
0
100
AcDbSymbolTable
 70
    4
  0
LTYPE
  5
14
330
5
100
AcDbSymbolTableRecord
100
AcDbLinetypeTableRecord
  2
ByBlock
 70
    0
  3

 72
   65
 73
    0
 40
0
  0
LTYPE
  5
15
330
5
100
AcDbSymbolTableRecord
100
AcDbLinetypeTableRecord
  2
ByLayer
 70
    0
  3

 72
   65
 73
    0
 40
0
  0
LTYPE
  5
16
330
5
100
AcDbSymbolTableRecord
100
AcDbLinetypeTableRecord
  2
Continuous
 70
    0
  3
Solid line
 72
   65
 73
    0
 40
0
  0
LTYPE
  5
32
330
5
100
AcDbSymbolTableRecord
100
AcDbLinetypeTableRecord
  2
DOT
 70
    0
  3
Dot . . . . . . . . . . . . . . . . . . . . . .
 72
   65
 73
    2
 40
6.35
 49
0
 74
    0
 49
-6.35
 74
    0
  0
LTYPE
  5
33
330
5
100
AcDbSymbolTableRecord
100
AcDbLinetypeTableRecord
  2
DOTTINY
 70
    0
  3
Dot (.15x) .....................................
 72
   65
 73
    2
 40
0.9525
 49
0
 74
    0
 49
-0.9525
 74
    0
  0
LTYPE
  5
34
330
5
100
AcDbSymbolTableRecord
100
AcDbLinetypeTableRecord
  2
DOT2
 70
    0
  3
Dot (.5x) .....................................
 72
   65
 73
    2
 40
3.175
 49
0
 74
    0
 49
-3.175
 74
    0
  0
LTYPE
  5
35
330
5
100
AcDbSymbolTableRecord
100
AcDbLinetypeTableRecord
  2
DOTX2
 70
    0
  3
Dot (2x) .  .  .  .  .  .  .  .  .  .  .  .  .
 72
   65
 73
    2
 40
12.7
 49
0
 74
    0
 49
-12.7
 74
    0
  0
LTYPE
  5
36
330
5
100
AcDbSymbolTableRecord
100
AcDbLinetypeTableRecord
  2
DASHED
 70
    0
  3
Dashed _ _ _ _ _ _ _ _ _ _ _ _ _ _ _ _ _
 72
   65
 73
    2
 40
19.05
 49
12.7
 74
    0
 49
-6.35
 74
    0
  0
LTYPE
  5
37
330
5
100
AcDbSymbolTableRecord
100
AcDbLinetypeTableRecord
  2
DASHEDTINY
 70
    0
  3
Dashed (.15x) _ _ _ _ _ _ _ _ _ _ _ _ _ _ _ _ _
 72
   65
 73
    2
 40
2.8575
 49
1.905
 74
    0
 49
-0.9525
 74
    0
  0
LTYPE
  5
38
330
5
100
AcDbSymbolTableRecord
100
AcDbLinetypeTableRecord
  2
DASHED2
 70
    0
  3
Dashed (.5x) _ _ _ _ _ _ _ _ _ _ _ _ _ _ _ _ _
 72
   65
 73
    2
 40
9.524999999999999
 49
6.35
 74
    0
 49
-3.175
 74
    0
  0
LTYPE
  5
39
330
5
100
AcDbSymbolTableRecord
100
AcDbLinetypeTableRecord
  2
DASHEDX2
 70
    0
  3
Dashed (2x) ____  ____  ____  ____  ____  ___
 72
   65
 73
    2
 40
38.09999999999999
 49
25.4
 74
    0
 49
-12.7
 74
    0
  0
LTYPE
  5
3A
330
5
100
AcDbSymbolTableRecord
100
AcDbLinetypeTableRecord
  2
DASHDOT
 70
    0
  3
Dash dot __ . __ . __ . __ . __ . __ . __ . __
 72
   65
 73
    4
 40
25.4
 49
12.7
 74
    0
 49
-6.35
 74
    0
 49
0
 74
    0
 49
-6.35
 74
    0
  0
LTYPE
  5
3B
330
5
100
AcDbSymbolTableRecord
100
AcDbLinetypeTableRecord
  2
DASHDOTTINY
 70
    0
  3
Dash dot (.15x) _._._._._._._._._._._._._._._.
 72
   65
 73
    4
 40
3.81
 49
1.905
 74
    0
 49
-0.9525
 74
    0
 49
0
 74
    0
 49
-0.9525
 74
    0
  0
LTYPE
  5
3C
330
5
100
AcDbSymbolTableRecord
100
AcDbLinetypeTableRecord
  2
DASHDOT2
 70
    0
  3
Dash dot (.5x) _._._._._._._._._._._._._._._.
 72
   65
 73
    4
 40
12.7
 49
6.35
 74
    0
 49
-3.175
 74
    0
 49
0
 74
    0
 49
-3.175
 74
    0
  0
LTYPE
  5
3D
330
5
100
AcDbSymbolTableRecord
100
AcDbLinetypeTableRecord
  2
DASHDOTX2
 70
    0
  3
Dash dot (2x) ____  .  ____  .  ____  .  ___
 72
   65
 73
    4
 40
50.8
 49
25.4
 74
    0
 49
-12.7
 74
    0
 49
0
 74
    0
 49
-12.7
 74
    0
  0
LTYPE
  5
3E
330
5
100
AcDbSymbolTableRecord
100
AcDbLinetypeTableRecord
  2
DIVIDE
 70
    0
  3
Divide ____ . . ____ . . ____ . . ____ . . ____
 72
   65
 73
    6
 40
31.75
 49
12.7
 74
    0
 49
-6.35
 74
    0
 49
0
 74
    0
 49
-6.35
 74
    0
 49
0
 74
    0
 49
-6.35
 74
    0
  0
LTYPE
  5
3F
330
5
100
AcDbSymbolTableRecord
100
AcDbLinetypeTableRecord
  2
DIVIDETINY
 70
    0
  3
Divide (.15x) __..__..__..__..__..__..__..__.._
 72
   65
 73
    6
 40
4.7625
 49
1.905
 74
    0
 49
-0.9525
 74
    0
 49
0
 74
    0
 49
-0.9525
 74
    0
 49
0
 74
    0
 49
-0.9525
 74
    0
  0
LTYPE
  5
40
330
5
100
AcDbSymbolTableRecord
100
AcDbLinetypeTableRecord
  2
DIVIDE2
 70
    0
  3
Divide (.5x) __..__..__..__..__..__..__..__.._
 72
   65
 73
    6
 40
15.875
 49
6.35
 74
    0
 49
-3.175
 74
    0
 49
0
 74
    0
 49
-3.175
 74
    0
 49
0
 74
    0
 49
-3.175
 74
    0
  0
LTYPE
  5
41
330
5
100
AcDbSymbolTableRecord
100
AcDbLinetypeTableRecord
  2
DIVIDEX2
 70
    0
  3
Divide (2x) ________  .  .  ________  .  .  _
 72
   65
 73
    6
 40
63.5
 49
25.4
 74
    0
 49
-12.7
 74
    0
 49
0
 74
    0
 49
-12.7
 74
    0
 49
0
 74
    0
 49
-12.7
 74
    0
  0
LTYPE
  5
42
330
5
100
AcDbSymbolTableRecord
100
AcDbLinetypeTableRecord
  2
BORDER
 70
    0
  3
Border __ __ . __ __ . __ __ . __ __ . __ __ .
 72
   65
 73
    6
 40
44.45
 49
12.7
 74
    0
 49
-6.35
 74
    0
 49
12.7
 74
    0
 49
-6.35
 74
    0
 49
0
 74
    0
 49
-6.35
 74
    0
  0
LTYPE
  5
43
330
5
100
AcDbSymbolTableRecord
100
AcDbLinetypeTableRecord
  2
BORDERTINY
 70
    0
  3
Border (.15x) __.__.__.__.__.__.__.__.__.__.__.
 72
   65
 73
    6
 40
6.6675
 49
1.905
 74
    0
 49
-0.9525
 74
    0
 49
1.905
 74
    0
 49
-0.9525
 74
    0
 49
0
 74
    0
 49
-0.9525
 74
    0
  0
LTYPE
  5
44
330
5
100
AcDbSymbolTableRecord
100
AcDbLinetypeTableRecord
  2
BORDER2
 70
    0
  3
Border (.5x) __.__.__.__.__.__.__.__.__.__.__.
 72
   65
 73
    6
 40
22.225
 49
6.35
 74
    0
 49
-3.175
 74
    0
 49
6.35
 74
    0
 49
-3.175
 74
    0
 49
0
 74
    0
 49
-3.175
 74
    0
  0
LTYPE
  5
45
330
5
100
AcDbSymbolTableRecord
100
AcDbLinetypeTableRecord
  2
BORDERX2
 70
    0
  3
Border (2x) ____  ____  .  ____  ____  .  ___
 72
   65
 73
    6
 40
88.89999999999999
 49
25.4
 74
    0
 49
-12.7
 74
    0
 49
25.4
 74
    0
 49
-12.7
 74
    0
 49
0
 74
    0
 49
-12.7
 74
    0
  0
LTYPE
  5
46
330
5
100
AcDbSymbolTableRecord
100
AcDbLinetypeTableRecord
  2
CENTER
 70
    0
  3
Center ____ _ ____ _ ____ _ ____ _ ____ _ ____
 72
   65
 73
    4
 40
50.8
 49
31.75
 74
    0
 49
-6.35
 74
    0
 49
6.35
 74
    0
 49
-6.35
 74
    0
  0
LTYPE
  5
47
330
5
100
AcDbSymbolTableRecord
100
AcDbLinetypeTableRecord
  2
CENTERTINY
 70
    0
  3
Center (.15x) ___ _ ___ _ ___ _ ___ _ ___ _ ___
 72
   65
 73
    4
 40
7.619999999999999
 49
4.7625
 74
    0
 49
-0.9525
 74
    0
 49
0.9525
 74
    0
 49
-0.9525
 74
    0
  0
LTYPE
  5
48
330
5
100
AcDbSymbolTableRecord
100
AcDbLinetypeTableRecord
  2
CENTER2
 70
    0
  3
Center (.5x) ___ _ ___ _ ___ _ ___ _ ___ _ ___
 72
   65
 73
    4
 40
28.575
 49
19.05
 74
    0
 49
-3.175
 74
    0
 49
3.175
 74
    0
 49
-3.175
 74
    0
  0
LTYPE
  5
49
330
5
100
AcDbSymbolTableRecord
100
AcDbLinetypeTableRecord
  2
CENTERX2
 70
    0
  3
Center (2x) ________  __  ________  __  _____
 72
   65
 73
    4
 40
101.6
 49
63.5
 74
    0
 49
-12.7
 74
    0
 49
12.7
 74
    0
 49
-12.7
 74
    0
  0
ENDTAB
  0
TABLE
  2
LAYER
  5
2
330
0
100
AcDbSymbolTable
 70
    1
  0
LAYER
  5
10
330
2
100
AcDbSymbolTableRecord
100
AcDbLayerTableRecord
  2
0
 70
    0
 62
    7
  6
CONTINUOUS
370
    0
390
F
1001
LibreCad
1070
    1
  0
LAYER
  5
4A
330
2
100
AcDbSymbolTableRecord
100
AcDbLayerTableRecord
  2
bak
 70
    0
 62
    2
  6
CONTINUOUS
370
   50
390
F
  0
LAYER
  5
4B
330
2
100
AcDbSymbolTableRecord
100
AcDbLayerTableRecord
  2
karkas1
 70
    0
 62
  136
420
32896
  6
CONTINUOUS
370
   50
390
F
  0
LAYER
  5
4C
330
2
100
AcDbSymbolTableRecord
100
AcDbLayerTableRecord
  2
karkas2
 70
    0
 62
  216
420
8388736
  6
CONTINUOUS
370
   50
390
F
  0
LAYER
  5
4D
330
2
100
AcDbSymbolTableRecord
100
AcDbLayerTableRecord
  2
obshivka
 70
    0
 62
   96
420
32768
  6
CONTINUOUS
370
   50
390
F
  0
LAYER
  5
4E
330
2
100
AcDbSymbolTableRecord
100
AcDbLayerTableRecord
  2
rozmir
 70
    0
 62
    4
  6
CONTINUOUS
370
   35
390
F
  0
ENDTAB
  0
TABLE
  2
STYLE
  5
3
330
0
100
AcDbSymbolTable
 70
    3
  0
STYLE
  5
4F
330
2
100
AcDbSymbolTableRecord
100
AcDbTextStyleTableRecord
  2
Standard
 70
    0
 40
0
 41
1
 50
0
 71
    0
 42
1
  3
txt
  4

  0
ENDTAB
  0
TABLE
  2
VIEW
  5
6
330
0
100
AcDbSymbolTable
 70
    0
  0
ENDTAB
  0
TABLE
  2
UCS
  5
7
330
0
100
AcDbSymbolTable
 70
    0
  0
ENDTAB
  0
TABLE
  2
APPID
  5
9
330
0
100
AcDbSymbolTable
 70
    1
  0
APPID
  5
12
330
9
100
AcDbSymbolTableRecord
100
AcDbRegAppTableRecord
  2
ACAD
 70
    0
  0
APPID
  5
50
330
9
100
AcDbSymbolTableRecord
100
AcDbRegAppTableRecord
  2
LibreCad
 70
    0
  0
ENDTAB
  0
TABLE
  2
DIMSTYLE
  5
A
330
0
100
AcDbSymbolTable
 70
    1
100
AcDbDimStyleTable
 71
    1
  0
DIMSTYLE
105
51
330
A
100
AcDbSymbolTableRecord
100
AcDbDimStyleTableRecord
  2
Standard
 70
    0
 40
1
 41
5
 42
1
 43
0.38
 44
2
 45
0
 46
0
 47
0
 48
0
 49
1
140
3.5
141
0.09
142
0
143
25.4
144
1
145
0
146
1
147
1
148
0
 71
    0
 72
    0
 73
    0
 74
    1
 75
    0
 76
    0
 77
    0
 78
    9
 79
    0
170
    0
171
    2
172
    0
173
    0
174
    0
175
    0
176
    0
177
    0
178
    0
179
    1
271
    1
272
    4
273
    2
274
    2
275
    0
276
    0
277
    2
278
    0
279
    0
280
    0
281
    0
282
    0
283
    1
284
    0
285
    0
286
    0
288
    0
289
    3
340
standard
341

371
   -2
372
   -2
  0
ENDTAB
  0
TABLE
  2
BLOCK_RECORD
  5
1
330
0
100
AcDbSymbolTable
 70
    2
  0
BLOCK_RECORD
  5
1F
330
1
100
AcDbSymbolTableRecord
100
AcDbBlockTableRecord
  2
*Model_Space
 70
    0
280
    1
281
    0
  0
BLOCK_RECORD
  5
1E
330
1
100
AcDbSymbolTableRecord
100
AcDbBlockTableRecord
  2
*Paper_Space
 70
    0
280
    1
281
    0
  0
BLOCK_RECORD
  5
52
330
1
100
AcDbSymbolTableRecord
100
AcDbBlockTableRecord
  2
*D22
 70
    0
280
    1
281
    0
  0
BLOCK_RECORD
  5
55
330
1
100
AcDbSymbolTableRecord
100
AcDbBlockTableRecord
  2
*D16
 70
    0
280
    1
281
    0
  0
BLOCK_RECORD
  5
58
330
1
100
AcDbSymbolTableRecord
100
AcDbBlockTableRecord
  2
*D27
 70
    0
280
    1
281
    0
  0
BLOCK_RECORD
  5
5B
330
1
100
AcDbSymbolTableRecord
100
AcDbBlockTableRecord
  2
*D14
 70
    0
280
    1
281
    0
  0
BLOCK_RECORD
  5
5E
330
1
100
AcDbSymbolTableRecord
100
AcDbBlockTableRecord
  2
*D10
 70
    0
280
    1
281
    0
  0
BLOCK_RECORD
  5
61
330
1
100
AcDbSymbolTableRecord
100
AcDbBlockTableRecord
  2
*D23
 70
    0
280
    1
281
    0
  0
BLOCK_RECORD
  5
64
330
1
100
AcDbSymbolTableRecord
100
AcDbBlockTableRecord
  2
*D9
 70
    0
280
    1
281
    0
  0
BLOCK_RECORD
  5
67
330
1
100
AcDbSymbolTableRecord
100
AcDbBlockTableRecord
  2
*D4
 70
    0
280
    1
281
    0
  0
BLOCK_RECORD
  5
6A
330
1
100
AcDbSymbolTableRecord
100
AcDbBlockTableRecord
  2
*D17
 70
    0
280
    1
281
    0
  0
BLOCK_RECORD
  5
6D
330
1
100
AcDbSymbolTableRecord
100
AcDbBlockTableRecord
  2
*D5
 70
    0
280
    1
281
    0
  0
BLOCK_RECORD
  5
70
330
1
100
AcDbSymbolTableRecord
100
AcDbBlockTableRecord
  2
*D18
 70
    0
280
    1
281
    0
  0
BLOCK_RECORD
  5
73
330
1
100
AcDbSymbolTableRecord
100
AcDbBlockTableRecord
  2
*D2
 70
    0
280
    1
281
    0
  0
BLOCK_RECORD
  5
76
330
1
100
AcDbSymbolTableRecord
100
AcDbBlockTableRecord
  2
*D12
 70
    0
280
    1
281
    0
  0
BLOCK_RECORD
  5
79
330
1
100
AcDbSymbolTableRecord
100
AcDbBlockTableRecord
  2
*D15
 70
    0
280
    1
281
    0
  0
BLOCK_RECORD
  5
7C
330
1
100
AcDbSymbolTableRecord
100
AcDbBlockTableRecord
  2
*D7
 70
    0
280
    1
281
    0
  0
BLOCK_RECORD
  5
7F
330
1
100
AcDbSymbolTableRecord
100
AcDbBlockTableRecord
  2
*D24
 70
    0
280
    1
281
    0
  0
BLOCK_RECORD
  5
82
330
1
100
AcDbSymbolTableRecord
100
AcDbBlockTableRecord
  2
*D1
 70
    0
280
    1
281
    0
  0
BLOCK_RECORD
  5
85
330
1
100
AcDbSymbolTableRecord
100
AcDbBlockTableRecord
  2
*D20
 70
    0
280
    1
281
    0
  0
BLOCK_RECORD
  5
88
330
1
100
AcDbSymbolTableRecord
100
AcDbBlockTableRecord
  2
*D19
 70
    0
280
    1
281
    0
  0
BLOCK_RECORD
  5
8B
330
1
100
AcDbSymbolTableRecord
100
AcDbBlockTableRecord
  2
*D11
 70
    0
280
    1
281
    0
  0
BLOCK_RECORD
  5
8E
330
1
100
AcDbSymbolTableRecord
100
AcDbBlockTableRecord
  2
*D25
 70
    0
280
    1
281
    0
  0
BLOCK_RECORD
  5
91
330
1
100
AcDbSymbolTableRecord
100
AcDbBlockTableRecord
  2
*D21
 70
    0
280
    1
281
    0
  0
BLOCK_RECORD
  5
94
330
1
100
AcDbSymbolTableRecord
100
AcDbBlockTableRecord
  2
*D6
 70
    0
280
    1
281
    0
  0
BLOCK_RECORD
  5
97
330
1
100
AcDbSymbolTableRecord
100
AcDbBlockTableRecord
  2
*D13
 70
    0
280
    1
281
    0
  0
BLOCK_RECORD
  5
9A
330
1
100
AcDbSymbolTableRecord
100
AcDbBlockTableRecord
  2
*D8
 70
    0
280
    1
281
    0
  0
BLOCK_RECORD
  5
9D
330
1
100
AcDbSymbolTableRecord
100
AcDbBlockTableRecord
  2
*D3
 70
    0
280
    1
281
    0
  0
BLOCK_RECORD
  5
A0
330
1
100
AcDbSymbolTableRecord
100
AcDbBlockTableRecord
  2
*D26
 70
    0
280
    1
281
    0
  0
ENDTAB
  0
ENDSEC
  0
SECTION
  2
BLOCKS
  0
BLOCK
  5
20
330
1F
100
AcDbEntity
  8
0
100
AcDbBlockBegin
  2
*Model_Space
 70
    0
 10
0
 20
0
 30
0
  3
*Model_Space
  1

  0
ENDBLK
  5
21
330
1F
100
AcDbEntity
  8
0
100
AcDbBlockEnd
  0
BLOCK
  5
1C
330
1B
100
AcDbEntity
  8
0
100
AcDbBlockBegin
  2
*Paper_Space
 70
    0
 10
0
 20
0
 30
0
  3
*Paper_Space
  1

  0
ENDBLK
  5
1D
330
1F
100
AcDbEntity
  8
0
100
AcDbBlockEnd
  0
BLOCK
  5
53
330
52
100
AcDbEntity
  8
0
100
AcDbBlockBegin
  2
*D22
 70
    1
 10
0
 20
0
  3
*D22
  1

  0
LINE
  5
A3
100
AcDbEntity
  8
rozmir
  6
ByBlock
 62
    0
370
   -2
100
AcDbLine
 10
68.70000000000007
 20
-31
 11
96.7
 21
-31
  0
SOLID
  5
A4
100
AcDbEntity
  8
rozmir
  6
ByBlock
 62
    0
370
   -2
100
AcDbTrace
 10
78.70000000000007
 20
-31
 30
0
 11
73.70000000000007
 21
-31.83256931554568
 31
0
 12
73.70000000000007
 22
-30.16743068445432
 32
0
 13
73.70000000000007
 23
-30.16743068445432
 33
0
  0
SOLID
  5
A5
100
AcDbEntity
  8
rozmir
  6
ByBlock
 62
    0
370
   -2
100
AcDbTrace
 10
86.7
 20
-31
 30
0
 11
91.7
 21
-30.16743068445432
 31
0
 12
91.7
 22
-31.83256931554568
 32
0
 13
91.7
 23
-31.83256931554568
 33
0
  0
MTEXT
  5
A6
100
AcDbEntity
  8
rozmir
  6
CONTINUOUS
 62
    0
370
   -2
100
AcDbMText
 10
82.70000000000005
 20
-28.25
 30
0
 40
3.5
 41
1.555555555555556
 71
    5
 72
    1
  1
8
  7
standard
210
0
220
0
230
1
 50
0
 73
    2
 44
1
  0
LINE
  5
A7
100
AcDbEntity
  8
rozmir
  6
ByBlock
 62
    0
370
   -2
100
AcDbLine
 10
78.70000000000007
 20
-40.1
 11
78.70000000000007
 21
-29
  0
LINE
  5
A8
100
AcDbEntity
  8
rozmir
  6
ByBlock
 62
    0
370
   -2
100
AcDbLine
 10
86.7
 20
-38.1
 11
86.7
 21
-29
  0
ENDBLK
  5
54
330
52
100
AcDbEntity
  8
0
100
AcDbBlockEnd
  0
BLOCK
  5
56
330
55
100
AcDbEntity
  8
0
100
AcDbBlockBegin
  2
*D16
 70
    1
 10
0
 20
0
  3
*D16
  1

  0
LINE
  5
A9
100
AcDbEntity
  8
rozmir
  6
ByBlock
 62
    0
370
   -2
100
AcDbLine
 10
89.70000000000016
 20
-10
 11
119.3
 21
-10
  0
SOLID
  5
AA
100
AcDbEntity
  8
rozmir
  6
ByBlock
 62
    0
370
   -2
100
AcDbTrace
 10
89.70000000000016
 20
-10
 30
0
 11
94.70000000000016
 21
-9.16743068445432
 31
0
 12
94.70000000000016
 22
-10.83256931554568
 32
0
 13
94.70000000000016
 23
-10.83256931554568
 33
0
  0
SOLID
  5
AB
100
AcDbEntity
  8
rozmir
  6
ByBlock
 62
    0
370
   -2
100
AcDbTrace
 10
119.3
 20
-10
 30
0
 11
114.3
 21
-10.83256931554568
 31
0
 12
114.3
 22
-9.167430684454319
 32
0
 13
114.3
 23
-9.167430684454319
 33
0
  0
MTEXT
  5
AC
100
AcDbEntity
  8
rozmir
  6
CONTINUOUS
 62
    0
370
   -2
100
AcDbMText
 10
104.5000000000001
 20
-7.25
 30
0
 40
3.5
 41
8.166666666666885
 71
    5
 72
    1
  1
29.6
  7
standard
210
0
220
0
230
1
 50
0
 73
    2
 44
1
  0
LINE
  5
AD
100
AcDbEntity
  8
rozmir
  6
ByBlock
 62
    0
370
   -2
100
AcDbLine
 10
89.70000000000016
 20
-22.0000000000001
 11
89.70000000000016
 21
-8
  0
LINE
  5
AE
100
AcDbEntity
  8
rozmir
  6
ByBlock
 62
    0
370
   -2
100
AcDbLine
 10
119.3
 20
-19.4
 11
119.3
 21
-8
  0
ENDBLK
  5
57
330
55
100
AcDbEntity
  8
0
100
AcDbBlockEnd
  0
BLOCK
  5
59
330
58
100
AcDbEntity
  8
0
100
AcDbBlockBegin
  2
*D27
 70
    1
 10
0
 20
0
  3
*D27
  1

  0
LINE
  5
AF
100
AcDbEntity
  8
rozmir
  6
ByBlock
 62
    0
370
   -2
100
AcDbLine
 10
308
 20
181.5000000000001
 11
308
 21
0.5
  0
SOLID
  5
B0
100
AcDbEntity
  8
rozmir
  6
ByBlock
 62
    0
370
   -2
100
AcDbTrace
 10
308
 20
181.5000000000001
 30
0
 11
308.8325693155457
 21
176.5000000000001
 31
0
 12
307.1674306844543
 22
176.5000000000001
 32
0
 13
307.1674306844543
 23
176.5000000000001
 33
0
  0
SOLID
  5
B1
100
AcDbEntity
  8
rozmir
  6
ByBlock
 62
    0
370
   -2
100
AcDbTrace
 10
308
 20
0.5
 30
0
 11
307.1674306844543
 21
5.5
 31
0
 12
308.8325693155457
 22
5.5
 32
0
 13
308.8325693155457
 23
5.5
 33
0
  0
MTEXT
  5
B2
100
AcDbEntity
  8
rozmir
  6
CONTINUOUS
 62
    0
370
   -2
100
AcDbMText
 10
305.25
 20
91.00000000000003
 30
0
 40
3.5
 41
5.444444444444445
 71
    5
 72
    1
  1
181
  7
standard
210
0
220
0
230
1
 50
90
 73
    2
 44
1
  0
LINE
  5
B3
100
AcDbEntity
  8
rozmir
  6
ByBlock
 62
    0
370
   -2
100
AcDbLine
 10
298.3
 20
181.5
 11
310
 21
181.5000000000001
  0
LINE
  5
B4
100
AcDbEntity
  8
rozmir
  6
ByBlock
 62
    0
370
   -2
100
AcDbLine
 10
298.3
 20
0.5
 11
310
 21
0.5
  0
ENDBLK
  5
5A
330
58
100
AcDbEntity
  8
0
100
AcDbBlockEnd
  0
BLOCK
  5
5C
330
5B
100
AcDbEntity
  8
0
100
AcDbBlockBegin
  2
*D14
 70
    1
 10
0
 20
0
  3
*D14
  1

  0
LINE
  5
B5
100
AcDbEntity
  8
rozmir
  6
ByBlock
 62
    0
370
   -2
100
AcDbLine
 10
90
 20
3
 11
90
 21
197
  0
SOLID
  5
B6
100
AcDbEntity
  8
rozmir
  6
ByBlock
 62
    0
370
   -2
100
AcDbTrace
 10
90
 20
3
 30
0
 11
89.16743068445432
 21
8
 31
0
 12
90.83256931554568
 22
8
 32
0
 13
90.83256931554568
 23
8
 33
0
  0
SOLID
  5
B7
100
AcDbEntity
  8
rozmir
  6
ByBlock
 62
    0
370
   -2
100
AcDbTrace
 10
90
 20
197
 30
0
 11
90.83256931554568
 21
192
 31
0
 12
89.16743068445432
 22
192
 32
0
 13
89.16743068445432
 23
192
 33
0
  0
MTEXT
  5
B8
100
AcDbEntity
  8
rozmir
  6
CONTINUOUS
 62
    0
370
   -2
100
AcDbMText
 10
87.25
 20
100
 30
0
 40
3.5
 41
6.611111111111111
 71
    5
 72
    1
  1
194
  7
standard
210
0
220
0
230
1
 50
90
 73
    2
 44
1
  0
LINE
  5
B9
100
AcDbEntity
  8
rozmir
  6
ByBlock
 62
    0
370
   -2
100
AcDbLine
 10
77.49999999999999
 20
3
 11
92
 21
3
  0
LINE
  5
BA
100
AcDbEntity
  8
rozmir
  6
ByBlock
 62
    0
370
   -2
100
AcDbLine
 10
77.50000000000001
 20
197
 11
92
 21
197
  0
ENDBLK
  5
5D
330
5B
100
AcDbEntity
  8
0
100
AcDbBlockEnd
  0
BLOCK
  5
5F
330
5E
100
AcDbEntity
  8
0
100
AcDbBlockBegin
  2
*D10
 70
    1
 10
0
 20
0
  3
*D10
  1

  0
LINE
  5
BB
100
AcDbEntity
  8
rozmir
  6
ByBlock
 62
    0
370
   -2
100
AcDbLine
 10
3.299999999999983
 20
190
 11
73.2
 21
190
  0
SOLID
  5
BC
100
AcDbEntity
  8
rozmir
  6
ByBlock
 62
    0
370
   -2
100
AcDbTrace
 10
3.299999999999983
 20
190
 30
0
 11
8.299999999999983
 21
190.8325693155457
 31
0
 12
8.299999999999983
 22
189.1674306844543
 32
0
 13
8.299999999999983
 23
189.1674306844543
 33
0
  0
SOLID
  5
BD
100
AcDbEntity
  8
rozmir
  6
ByBlock
 62
    0
370
   -2
100
AcDbTrace
 10
73.2
 20
190
 30
0
 11
68.2
 21
189.1674306844543
 31
0
 12
68.2
 22
190.8325693155457
 32
0
 13
68.2
 23
190.8325693155457
 33
0
  0
MTEXT
  5
BE
100
AcDbEntity
  8
rozmir
  6
CONTINUOUS
 62
    0
370
   -2
100
AcDbMText
 10
38.24999999999999
 20
192.75
 30
0
 40
3.5
 41
8.166666666666885
 71
    5
 72
    1
  1
69.9
  7
standard
210
0
220
0
230
1
 50
0
 73
    2
 44
1
  0
LINE
  5
BF
100
AcDbEntity
  8
rozmir
  6
ByBlock
 62
    0
370
   -2
100
AcDbLine
 10
3.299999999999997
 20
183
 11
3.299999999999979
 21
192
  0
LINE
  5
C0
100
AcDbEntity
  8
rozmir
  6
ByBlock
 62
    0
370
   -2
100
AcDbLine
 10
73.2
 20
183
 11
73.2
 21
192
  0
ENDBLK
  5
60
330
5E
100
AcDbEntity
  8
0
100
AcDbBlockEnd
  0
BLOCK
  5
62
330
61
100
AcDbEntity
  8
0
100
AcDbBlockBegin
  2
*D23
 70
    1
 10
0
 20
0
  3
*D23
  1

  0
LINE
  5
C1
100
AcDbEntity
  8
rozmir
  6
ByBlock
 62
    0
370
   -2
100
AcDbLine
 10
42.59999999999999
 20
-31
 11
76.69999999999999
 21
-31
  0
SOLID
  5
C2
100
AcDbEntity
  8
rozmir
  6
ByBlock
 62
    0
370
   -2
100
AcDbTrace
 10
42.59999999999999
 20
-31
 30
0
 11
47.59999999999999
 21
-30.16743068445432
 31
0
 12
47.59999999999999
 22
-31.83256931554568
 32
0
 13
47.59999999999999
 23
-31.83256931554568
 33
0
  0
SOLID
  5
C3
100
AcDbEntity
  8
rozmir
  6
ByBlock
 62
    0
370
   -2
100
AcDbTrace
 10
76.69999999999999
 20
-31
 30
0
 11
71.69999999999999
 21
-31.83256931554568
 31
0
 12
71.69999999999999
 22
-30.16743068445432
 32
0
 13
71.69999999999999
 23
-30.16743068445432
 33
0
  0
MTEXT
  5
C4
100
AcDbEntity
  8
rozmir
  6
CONTINUOUS
 62
    0
370
   -2
100
AcDbMText
 10
59.64999999999999
 20
-28.25
 30
0
 40
3.5
 41
7.777777777777994
 71
    5
 72
    1
  1
34.1
  7
standard
210
0
220
0
230
1
 50
0
 73
    2
 44
1
  0
LINE
  5
C5
100
AcDbEntity
  8
rozmir
  6
ByBlock
 62
    0
370
   -2
100
AcDbLine
 10
42.59999999999999
 20
-40.10000000000001
 11
42.59999999999999
 21
-29
  0
LINE
  5
C6
100
AcDbEntity
  8
rozmir
  6
ByBlock
 62
    0
370
   -2
100
AcDbLine
 10
76.69999999999999
 20
-40.1
 11
76.69999999999999
 21
-29
  0
ENDBLK
  5
63
330
61
100
AcDbEntity
  8
0
100
AcDbBlockEnd
  0
BLOCK
  5
65
330
64
100
AcDbEntity
  8
0
100
AcDbBlockBegin
  2
*D9
 70
    1
 10
0
 20
0
  3
*D9
  1

  0
LINE
  5
C7
100
AcDbEntity
  8
rozmir
  6
ByBlock
 62
    0
370
   -2
100
AcDbLine
 10
200
 20
220
 11
298.3
 21
220
  0
SOLID
  5
C8
100
AcDbEntity
  8
rozmir
  6
ByBlock
 62
    0
370
   -2
100
AcDbTrace
 10
200
 20
220
 30
0
 11
205
 21
220.8325693155457
 31
0
 12
205
 22
219.1674306844543
 32
0
 13
205
 23
219.1674306844543
 33
0
  0
SOLID
  5
C9
100
AcDbEntity
  8
rozmir
  6
ByBlock
 62
    0
370
   -2
100
AcDbTrace
 10
298.3
 20
220
 30
0
 11
293.3
 21
219.1674306844543
 31
0
 12
293.3
 22
220.8325693155457
 32
0
 13
293.3
 23
220.8325693155457
 33
0
  0
MTEXT
  5
CA
100
AcDbEntity
  8
rozmir
  6
CONTINUOUS
 62
    0
370
   -2
100
AcDbMText
 10
249.15
 20
222.75
 30
0
 40
3.5
 41
8.166666666667101
 71
    5
 72
    1
  1
98.3
  7
standard
210
0
220
0
230
1
 50
0
 73
    2
 44
1
  0
LINE
  5
CB
100
AcDbEntity
  8
rozmir
  6
ByBlock
 62
    0
370
   -2
100
AcDbLine
 10
200
 20
201
 11
200
 21
222
  0
LINE
  5
CC
100
AcDbEntity
  8
rozmir
  6
ByBlock
 62
    0
370
   -2
100
AcDbLine
 10
298.3
 20
201
 11
298.3
 21
222
  0
ENDBLK
  5
66
330
64
100
AcDbEntity
  8
0
100
AcDbBlockEnd
  0
BLOCK
  5
68
330
67
100
AcDbEntity
  8
0
100
AcDbBlockBegin
  2
*D4
 70
    1
 10
0
 20
0
  3
*D4
  1

  0
LINE
  5
CD
100
AcDbEntity
  8
rozmir
  6
ByBlock
 62
    0
370
   -2
100
AcDbLine
 10
3
 20
210
 11
73.50000000000001
 21
210
  0
SOLID
  5
CE
100
AcDbEntity
  8
rozmir
  6
ByBlock
 62
    0
370
   -2
100
AcDbTrace
 10
3
 20
210
 30
0
 11
8
 21
210.8325693155457
 31
0
 12
8
 22
209.1674306844543
 32
0
 13
8
 23
209.1674306844543
 33
0
  0
SOLID
  5
CF
100
AcDbEntity
  8
rozmir
  6
ByBlock
 62
    0
370
   -2
100
AcDbTrace
 10
73.50000000000001
 20
210
 30
0
 11
68.50000000000001
 21
209.1674306844543
 31
0
 12
68.50000000000001
 22
210.8325693155457
 32
0
 13
68.50000000000001
 23
210.8325693155457
 33
0
  0
MTEXT
  5
D0
100
AcDbEntity
  8
rozmir
  6
CONTINUOUS
 62
    0
370
   -2
100
AcDbMText
 10
38.25000000000001
 20
212.75
 30
0
 40
3.5
 41
8.166666666666885
 71
    5
 72
    1
  1
70.5
  7
standard
210
0
220
0
230
1
 50
0
 73
    2
 44
1
  0
LINE
  5
D1
100
AcDbEntity
  8
rozmir
  6
ByBlock
 62
    0
370
   -2
100
AcDbLine
 10
3
 20
201
 11
3
 21
212
  0
LINE
  5
D2
100
AcDbEntity
  8
rozmir
  6
ByBlock
 62
    0
370
   -2
100
AcDbLine
 10
73.50000000000001
 20
198
 11
73.50000000000001
 21
212
  0
ENDBLK
  5
69
330
67
100
AcDbEntity
  8
0
100
AcDbBlockEnd
  0
BLOCK
  5
6B
330
6A
100
AcDbEntity
  8
0
100
AcDbBlockBegin
  2
*D17
 70
    1
 10
0
 20
0
  3
*D17
  1

  0
LINE
  5
D3
100
AcDbEntity
  8
rozmir
  6
ByBlock
 62
    0
370
   -2
100
AcDbLine
 10
32.6
 20
-9.999999999999998
 11
86.70000000000017
 21
-9.999999999999998
  0
SOLID
  5
D4
100
AcDbEntity
  8
rozmir
  6
ByBlock
 62
    0
370
   -2
100
AcDbTrace
 10
32.6
 20
-9.999999999999998
 30
0
 11
37.6
 21
-9.167430684454319
 31
0
 12
37.6
 22
-10.83256931554568
 32
0
 13
37.6
 23
-10.83256931554568
 33
0
  0
SOLID
  5
D5
100
AcDbEntity
  8
rozmir
  6
ByBlock
 62
    0
370
   -2
100
AcDbTrace
 10
86.70000000000017
 20
-9.999999999999998
 30
0
 11
81.70000000000017
 21
-10.83256931554568
 31
0
 12
81.70000000000017
 22
-9.167430684454317
 32
0
 13
81.70000000000017
 23
-9.167430684454317
 33
0
  0
MTEXT
  5
D6
100
AcDbEntity
  8
rozmir
  6
CONTINUOUS
 62
    0
370
   -2
100
AcDbMText
 10
59.65000000000009
 20
-7.249999999999998
 30
0
 40
3.5
 41
7.777777777777994
 71
    5
 72
    1
  1
54.1
  7
standard
210
0
220
0
230
1
 50
0
 73
    2
 44
1
  0
LINE
  5
D7
100
AcDbEntity
  8
rozmir
  6
ByBlock
 62
    0
370
   -2
100
AcDbLine
 10
32.6
 20
-22.00000000000001
 11
32.6
 21
-7.999999999999998
  0
LINE
  5
D8
100
AcDbEntity
  8
rozmir
  6
ByBlock
 62
    0
370
   -2
100
AcDbLine
 10
86.70000000000017
 20
-22.0000000000001
 11
86.70000000000017
 21
-7.999999999999998
  0
ENDBLK
  5
6C
330
6A
100
AcDbEntity
  8
0
100
AcDbBlockEnd
  0
BLOCK
  5
6E
330
6D
100
AcDbEntity
  8
0
100
AcDbBlockBegin
  2
*D5
 70
    1
 10
0
 20
0
  3
*D5
  1

  0
LINE
  5
D9
100
AcDbEntity
  8
rozmir
  6
ByBlock
 62
    0
370
   -2
100
AcDbLine
 10
76.50000000000001
 20
210
 11
116.3
 21
210
  0
SOLID
  5
DA
100
AcDbEntity
  8
rozmir
  6
ByBlock
 62
    0
370
   -2
100
AcDbTrace
 10
76.50000000000001
 20
210
 30
0
 11
81.50000000000001
 21
210.8325693155457
 31
0
 12
81.50000000000001
 22
209.1674306844543
 32
0
 13
81.50000000000001
 23
209.1674306844543
 33
0
  0
SOLID
  5
DB
100
AcDbEntity
  8
rozmir
  6
ByBlock
 62
    0
370
   -2
100
AcDbTrace
 10
116.3
 20
210
 30
0
 11
111.3
 21
209.1674306844543
 31
0
 12
111.3
 22
210.8325693155457
 32
0
 13
111.3
 23
210.8325693155457
 33
0
  0
MTEXT
  5
DC
100
AcDbEntity
  8
rozmir
  6
CONTINUOUS
 62
    0
370
   -2
100
AcDbMText
 10
96.40000000000001
 20
212.75
 30
0
 40
3.5
 41
8.166666666666885
 71
    5
 72
    1
  1
39.8
  7
standard
210
0
220
0
230
1
 50
0
 73
    2
 44
1
  0
LINE
  5
DD
100
AcDbEntity
  8
rozmir
  6
ByBlock
 62
    0
370
   -2
100
AcDbLine
 10
76.50000000000001
 20
198
 11
76.50000000000001
 21
212
  0
LINE
  5
DE
100
AcDbEntity
  8
rozmir
  6
ByBlock
 62
    0
370
   -2
100
AcDbLine
 10
116.3
 20
201
 11
116.3
 21
212
  0
ENDBLK
  5
6F
330
6D
100
AcDbEntity
  8
0
100
AcDbBlockEnd
  0
BLOCK
  5
71
330
70
100
AcDbEntity
  8
0
100
AcDbBlockBegin
  2
*D18
 70
    1
 10
0
 20
0
  3
*D18
  1

  0
LINE
  5
DF
100
AcDbEntity
  8
rozmir
  6
ByBlock
 62
    0
370
   -2
100
AcDbLine
 10
100
 20
-23.0000000000001
 11
100
 21
-39.1
  0
SOLID
  5
E0
100
AcDbEntity
  8
rozmir
  6
ByBlock
 62
    0
370
   -2
100
AcDbTrace
 10
100
 20
-23.0000000000001
 30
0
 11
100.8325693155457
 21
-28.0000000000001
 31
0
 12
99.16743068445432
 22
-28.0000000000001
 32
0
 13
99.16743068445432
 23
-28.0000000000001
 33
0
  0
SOLID
  5
E1
100
AcDbEntity
  8
rozmir
  6
ByBlock
 62
    0
370
   -2
100
AcDbTrace
 10
100
 20
-39.1
 30
0
 11
99.16743068445432
 21
-34.1
 31
0
 12
100.8325693155457
 22
-34.1
 32
0
 13
100.8325693155457
 23
-34.1
 33
0
  0
MTEXT
  5
E2
100
AcDbEntity
  8
rozmir
  6
CONTINUOUS
 62
    0
370
   -2
100
AcDbMText
 10
97.25
 20
-31.05000000000005
 30
0
 40
3.5
 41
6.611111111111329
 71
    5
 72
    1
  1
16.1
  7
standard
210
0
220
0
230
1
 50
90
 73
    2
 44
1
  0
LINE
  5
E3
100
AcDbEntity
  8
rozmir
  6
ByBlock
 62
    0
370
   -2
100
AcDbLine
 10
90.70000000000017
 20
-23.0000000000001
 11
102
 21
-23.0000000000001
  0
LINE
  5
E4
100
AcDbEntity
  8
rozmir
  6
ByBlock
 62
    0
370
   -2
100
AcDbLine
 10
87.7
 20
-39.1
 11
102
 21
-39.1
  0
ENDBLK
  5
72
330
70
100
AcDbEntity
  8
0
100
AcDbBlockEnd
  0
BLOCK
  5
74
330
73
100
AcDbEntity
  8
0
100
AcDbBlockBegin
  2
*D2
 70
    1
 10
0
 20
0
  3
*D2
  1

  0
LINE
  5
E5
100
AcDbEntity
  8
rozmir
  6
ByBlock
 62
    0
370
   -2
100
AcDbLine
 10
130
 20
0
 11
130
 21
90.49999999999997
  0
SOLID
  5
E6
100
AcDbEntity
  8
rozmir
  6
ByBlock
 62
    0
370
   -2
100
AcDbTrace
 10
130
 20
0
 30
0
 11
129.1674306844543
 21
5
 31
0
 12
130.8325693155457
 22
5
 32
0
 13
130.8325693155457
 23
5
 33
0
  0
SOLID
  5
E7
100
AcDbEntity
  8
rozmir
  6
ByBlock
 62
    0
370
   -2
100
AcDbTrace
 10
130
 20
90.49999999999997
 30
0
 11
130.8325693155457
 21
85.49999999999997
 31
0
 12
129.1674306844543
 22
85.49999999999997
 32
0
 13
129.1674306844543
 23
85.49999999999997
 33
0
  0
MTEXT
  5
E8
100
AcDbEntity
  8
rozmir
  6
CONTINUOUS
 62
    0
370
   -2
100
AcDbMText
 10
127.25
 20
45.24999999999999
 30
0
 40
3.5
 41
8.166666666667101
 71
    5
 72
    1
  1
90.5
  7
standard
210
0
220
0
230
1
 50
90
 73
    2
 44
1
  0
LINE
  5
E9
100
AcDbEntity
  8
rozmir
  6
ByBlock
 62
    0
370
   -2
100
AcDbLine
 10
120.3
 20
-1.110223024625157e-16
 11
132
 21
0
  0
LINE
  5
EA
100
AcDbEntity
  8
rozmir
  6
ByBlock
 62
    0
370
   -2
100
AcDbLine
 10
117.3
 20
90.49999999999997
 11
132
 21
90.49999999999997
  0
ENDBLK
  5
75
330
73
100
AcDbEntity
  8
0
100
AcDbBlockEnd
  0
BLOCK
  5
77
330
76
100
AcDbEntity
  8
0
100
AcDbBlockBegin
  2
*D12
 70
    1
 10
0
 20
0
  3
*D12
  1

  0
LINE
  5
EB
100
AcDbEntity
  8
rozmir
  6
ByBlock
 62
    0
370
   -2
100
AcDbLine
 10
-19.99999999999999
 20
182
 11
-20
 21
3.400000000000002
  0
SOLID
  5
EC
100
AcDbEntity
  8
rozmir
  6
ByBlock
 62
    0
370
   -2
100
AcDbTrace
 10
-19.99999999999999
 20
182
 30
0
 11
-19.16743068445431
 21
177
 31
0
 12
-20.83256931554567
 22
177
 32
0
 13
-20.83256931554567
 23
177
 33
0
  0
SOLID
  5
ED
100
AcDbEntity
  8
rozmir
  6
ByBlock
 62
    0
370
   -2
100
AcDbTrace
 10
-20
 20
3.400000000000002
 30
0
 11
-20.83256931554568
 21
8.400000000000002
 31
0
 12
-19.16743068445432
 22
8.400000000000002
 32
0
 13
-19.16743068445432
 23
8.400000000000002
 33
0
  0
MTEXT
  5
EE
100
AcDbEntity
  8
rozmir
  6
CONTINUOUS
 62
    0
370
   -2
100
AcDbMText
 10
-22.74999999999999
 20
92.7
 30
0
 40
3.5
 41
10.11111111111133
 71
    5
 72
    1
  1
178.6
  7
standard
210
0
220
0
230
1
 50
90
 73
    2
 44
1
  0
LINE
  5
EF
100
AcDbEntity
  8
rozmir
  6
ByBlock
 62
    0
370
   -2
100
AcDbLine
 10
2.299999999999999
 20
182
 11
-21.99999999999999
 21
182
  0
LINE
  5
F0
100
AcDbEntity
  8
rozmir
  6
ByBlock
 62
    0
370
   -2
100
AcDbLine
 10
2.3
 20
3.4
 11
-22
 21
3.400000000000003
  0
ENDBLK
  5
78
330
76
100
AcDbEntity
  8
0
100
AcDbBlockEnd
  0
BLOCK
  5
7A
330
79
100
AcDbEntity
  8
0
100
AcDbBlockBegin
  2
*D15
 70
    1
 10
0
 20
0
  3
*D15
  1

  0
LINE
  5
F1
100
AcDbEntity
  8
rozmir
  6
ByBlock
 62
    0
370
   -2
100
AcDbLine
 10
-3.552713678800501e-15
 20
-10
 11
29.6
 21
-10
  0
SOLID
  5
F2
100
AcDbEntity
  8
rozmir
  6
ByBlock
 62
    0
370
   -2
100
AcDbTrace
 10
-3.552713678800501e-15
 20
-10
 30
0
 11
4.999999999999996
 21
-9.16743068445432
 31
0
 12
4.999999999999996
 22
-10.83256931554568
 32
0
 13
4.999999999999996
 23
-10.83256931554568
 33
0
  0
SOLID
  5
F3
100
AcDbEntity
  8
rozmir
  6
ByBlock
 62
    0
370
   -2
100
AcDbTrace
 10
29.6
 20
-10
 30
0
 11
24.6
 21
-10.83256931554568
 31
0
 12
24.6
 22
-9.167430684454319
 32
0
 13
24.6
 23
-9.167430684454319
 33
0
  0
MTEXT
  5
F4
100
AcDbEntity
  8
rozmir
  6
CONTINUOUS
 62
    0
370
   -2
100
AcDbMText
 10
14.8
 20
-7.25
 30
0
 40
3.5
 41
8.166666666666885
 71
    5
 72
    1
  1
29.6
  7
standard
210
0
220
0
230
1
 50
0
 73
    2
 44
1
  0
LINE
  5
F5
100
AcDbEntity
  8
rozmir
  6
ByBlock
 62
    0
370
   -2
100
AcDbLine
 10
-3.828568698926949e-16
 20
-19.4
 11
-4.318427418585891e-15
 21
-8
  0
LINE
  5
F6
100
AcDbEntity
  8
rozmir
  6
ByBlock
 62
    0
370
   -2
100
AcDbLine
 10
29.6
 20
-22
 11
29.6
 21
-8
  0
ENDBLK
  5
7B
330
79
100
AcDbEntity
  8
0
100
AcDbBlockEnd
  0
BLOCK
  5
7D
330
7C
100
AcDbEntity
  8
0
100
AcDbBlockBegin
  2
*D7
 70
    1
 10
0
 20
0
  3
*D7
  1

  0
LINE
  5
F7
100
AcDbEntity
  8
rozmir
  6
ByBlock
 62
    0
370
   -2
100
AcDbLine
 10
-1.4210854715202e-14
 20
230
 11
119.3
 21
230
  0
SOLID
  5
F8
100
AcDbEntity
  8
rozmir
  6
ByBlock
 62
    0
370
   -2
100
AcDbTrace
 10
-1.4210854715202e-14
 20
230
 30
0
 11
4.999999999999986
 21
230.8325693155457
 31
0
 12
4.999999999999986
 22
229.1674306844543
 32
0
 13
4.999999999999986
 23
229.1674306844543
 33
0
  0
SOLID
  5
F9
100
AcDbEntity
  8
rozmir
  6
ByBlock
 62
    0
370
   -2
100
AcDbTrace
 10
119.3
 20
230
 30
0
 11
114.3
 21
229.1674306844543
 31
0
 12
114.3
 22
230.8325693155457
 32
0
 13
114.3
 23
230.8325693155457
 33
0
  0
MTEXT
  5
FA
100
AcDbEntity
  8
rozmir
  6
CONTINUOUS
 62
    0
370
   -2
100
AcDbMText
 10
59.65
 20
232.75
 30
0
 40
3.5
 41
9.333333333333552
 71
    5
 72
    1
  1
119.3
  7
standard
210
0
220
0
230
1
 50
0
 73
    2
 44
1
  0
LINE
  5
FB
100
AcDbEntity
  8
rozmir
  6
ByBlock
 62
    0
370
   -2
100
AcDbLine
 10
-3.828568698926949e-16
 20
201
 11
-1.497656845498739e-14
 21
232
  0
LINE
  5
FC
100
AcDbEntity
  8
rozmir
  6
ByBlock
 62
    0
370
   -2
100
AcDbLine
 10
119.3
 20
201
 11
119.3
 21
232
  0
ENDBLK
  5
7E
330
7C
100
AcDbEntity
  8
0
100
AcDbBlockEnd
  0
BLOCK
  5
80
330
7F
100
AcDbEntity
  8
0
100
AcDbBlockBegin
  2
*D24
 70
    1
 10
0
 20
0
  3
*D24
  1

  0
LINE
  5
FD
100
AcDbEntity
  8
rozmir
  6
ByBlock
 62
    0
370
   -2
100
AcDbLine
 10
85
 20
-31.1
 11
85
 21
-60.10000000000001
  0
SOLID
  5
FE
100
AcDbEntity
  8
rozmir
  6
ByBlock
 62
    0
370
   -2
100
AcDbTrace
 10
85
 20
-41.1
 30
0
 11
84.16743068445432
 21
-36.1
 31
0
 12
85.83256931554568
 22
-36.1
 32
0
 13
85.83256931554568
 23
-36.1
 33
0
  0
SOLID
  5
FF
100
AcDbEntity
  8
rozmir
  6
ByBlock
 62
    0
370
   -2
100
AcDbTrace
 10
85
 20
-50.10000000000001
 30
0
 11
85.83256931554568
 21
-55.10000000000001
 31
0
 12
84.16743068445432
 22
-55.10000000000001
 32
0
 13
84.16743068445432
 23
-55.10000000000001
 33
0
  0
MTEXT
  5
100
100
AcDbEntity
  8
rozmir
  6
CONTINUOUS
 62
    0
370
   -2
100
AcDbMText
 10
82.25
 20
-45.60000000000001
 30
0
 40
3.5
 41
1.555555555555773
 71
    5
 72
    1
  1
9
  7
standard
210
0
220
0
230
1
 50
90
 73
    2
 44
1
  0
LINE
  5
101
100
AcDbEntity
  8
rozmir
  6
ByBlock
 62
    0
370
   -2
100
AcDbLine
 10
79.70000000000007
 20
-41.1
 11
87
 21
-41.1
  0
LINE
  5
102
100
AcDbEntity
  8
rozmir
  6
ByBlock
 62
    0
370
   -2
100
AcDbLine
 10
77.7
 20
-50.10000000000001
 11
87
 21
-50.10000000000001
  0
ENDBLK
  5
81
330
7F
100
AcDbEntity
  8
0
100
AcDbBlockEnd
  0
BLOCK
  5
83
330
82
100
AcDbEntity
  8
0
100
AcDbBlockBegin
  2
*D1
 70
    1
 10
0
 20
0
  3
*D1
  1

  0
LINE
  5
103
100
AcDbEntity
  8
rozmir
  6
ByBlock
 62
    0
370
   -2
100
AcDbLine
 10
150
 20
200
 11
150
 21
-1.110223024625157e-16
  0
SOLID
  5
104
100
AcDbEntity
  8
rozmir
  6
ByBlock
 62
    0
370
   -2
100
AcDbTrace
 10
150
 20
200
 30
0
 11
150.8325693155457
 21
195
 31
0
 12
149.1674306844543
 22
195
 32
0
 13
149.1674306844543
 23
195
 33
0
  0
SOLID
  5
105
100
AcDbEntity
  8
rozmir
  6
ByBlock
 62
    0
370
   -2
100
AcDbTrace
 10
150
 20
-1.110223024625157e-16
 30
0
 11
149.1674306844543
 21
5
 31
0
 12
150.8325693155457
 22
5
 32
0
 13
150.8325693155457
 23
5
 33
0
  0
MTEXT
  5
106
100
AcDbEntity
  8
rozmir
  6
CONTINUOUS
 62
    0
370
   -2
100
AcDbMText
 10
147.25
 20
100
 30
0
 40
3.5
 41
7
 71
    5
 72
    1
  1
200
  7
standard
210
0
220
0
230
1
 50
90
 73
    2
 44
1
  0
LINE
  5
107
100
AcDbEntity
  8
rozmir
  6
ByBlock
 62
    0
370
   -2
100
AcDbLine
 10
120.3
 20
200
 11
152
 21
200
  0
LINE
  5
108
100
AcDbEntity
  8
rozmir
  6
ByBlock
 62
    0
370
   -2
100
AcDbLine
 10
120.3
 20
-1.110223024625157e-16
 11
152
 21
-1.110223024625157e-16
  0
ENDBLK
  5
84
330
82
100
AcDbEntity
  8
0
100
AcDbBlockEnd
  0
BLOCK
  5
86
330
85
100
AcDbEntity
  8
0
100
AcDbBlockBegin
  2
*D20
 70
    1
 10
0
 20
0
  3
*D20
  1

  0
LINE
  5
109
100
AcDbEntity
  8
rozmir
  6
ByBlock
 62
    0
370
   -2
100
AcDbLine
 10
100
 20
-99.20000000000002
 11
100
 21
-115.3000000000001
  0
SOLID
  5
10A
100
AcDbEntity
  8
rozmir
  6
ByBlock
 62
    0
370
   -2
100
AcDbTrace
 10
100
 20
-99.20000000000002
 30
0
 11
100.8325693155457
 21
-104.2
 31
0
 12
99.16743068445432
 22
-104.2
 32
0
 13
99.16743068445432
 23
-104.2
 33
0
  0
SOLID
  5
10B
100
AcDbEntity
  8
rozmir
  6
ByBlock
 62
    0
370
   -2
100
AcDbTrace
 10
100
 20
-115.3000000000001
 30
0
 11
99.16743068445432
 21
-110.3000000000001
 31
0
 12
100.8325693155457
 22
-110.3000000000001
 32
0
 13
100.8325693155457
 23
-110.3000000000001
 33
0
  0
MTEXT
  5
10C
100
AcDbEntity
  8
rozmir
  6
CONTINUOUS
 62
    0
370
   -2
100
AcDbMText
 10
97.25
 20
-107.2500000000001
 30
0
 40
3.5
 41
6.611111111111329
 71
    5
 72
    1
  1
16.1
  7
standard
210
0
220
0
230
1
 50
90
 73
    2
 44
1
  0
LINE
  5
10D
100
AcDbEntity
  8
rozmir
  6
ByBlock
 62
    0
370
   -2
100
AcDbLine
 10
87.6999999999999
 20
-99.20000000000002
 11
102
 21
-99.20000000000002
  0
LINE
  5
10E
100
AcDbEntity
  8
rozmir
  6
ByBlock
 62
    0
370
   -2
100
AcDbLine
 10
90.69999999999986
 20
-115.3000000000001
 11
102
 21
-115.3000000000001
  0
ENDBLK
  5
87
330
85
100
AcDbEntity
  8
0
100
AcDbBlockEnd
  0
BLOCK
  5
89
330
88
100
AcDbEntity
  8
0
100
AcDbBlockBegin
  2
*D19
 70
    1
 10
0
 20
0
  3
*D19
  1

  0
LINE
  5
10F
100
AcDbEntity
  8
rozmir
  6
ByBlock
 62
    0
370
   -2
100
AcDbLine
 10
100
 20
-41.1
 11
100
 21
-97.2
  0
SOLID
  5
110
100
AcDbEntity
  8
rozmir
  6
ByBlock
 62
    0
370
   -2
100
AcDbTrace
 10
100
 20
-41.1
 30
0
 11
100.8325693155457
 21
-46.1
 31
0
 12
99.16743068445432
 22
-46.1
 32
0
 13
99.16743068445432
 23
-46.1
 33
0
  0
SOLID
  5
111
100
AcDbEntity
  8
rozmir
  6
ByBlock
 62
    0
370
   -2
100
AcDbTrace
 10
100
 20
-97.2
 30
0
 11
99.16743068445432
 21
-92.2
 31
0
 12
100.8325693155457
 22
-92.2
 32
0
 13
100.8325693155457
 23
-92.2
 33
0
  0
MTEXT
  5
112
100
AcDbEntity
  8
rozmir
  6
CONTINUOUS
 62
    0
370
   -2
100
AcDbMText
 10
97.25
 20
-69.15000000000001
 30
0
 40
3.5
 41
7.388888888889323
 71
    5
 72
    1
  1
56.1
  7
standard
210
0
220
0
230
1
 50
90
 73
    2
 44
1
  0
LINE
  5
113
100
AcDbEntity
  8
rozmir
  6
ByBlock
 62
    0
370
   -2
100
AcDbLine
 10
87.6999999999999
 20
-41.1
 11
102
 21
-41.1
  0
LINE
  5
114
100
AcDbEntity
  8
rozmir
  6
ByBlock
 62
    0
370
   -2
100
AcDbLine
 10
87.69999999999992
 20
-97.2
 11
102
 21
-97.2
  0
ENDBLK
  5
8A
330
88
100
AcDbEntity
  8
0
100
AcDbBlockEnd
  0
BLOCK
  5
8C
330
8B
100
AcDbEntity
  8
0
100
AcDbBlockBegin
  2
*D11
 70
    1
 10
0
 20
0
  3
*D11
  1

  0
LINE
  5
115
100
AcDbEntity
  8
rozmir
  6
ByBlock
 62
    0
370
   -2
100
AcDbLine
 10
5.299999999999997
 20
100
 11
71.20000000000002
 21
100
  0
SOLID
  5
116
100
AcDbEntity
  8
rozmir
  6
ByBlock
 62
    0
370
   -2
100
AcDbTrace
 10
5.299999999999997
 20
100
 30
0
 11
10.3
 21
100.8325693155457
 31
0
 12
10.3
 22
99.16743068445432
 32
0
 13
10.3
 23
99.16743068445432
 33
0
  0
SOLID
  5
117
100
AcDbEntity
  8
rozmir
  6
ByBlock
 62
    0
370
   -2
100
AcDbTrace
 10
71.20000000000002
 20
100
 30
0
 11
66.20000000000002
 21
99.16743068445432
 31
0
 12
66.20000000000002
 22
100.8325693155457
 32
0
 13
66.20000000000002
 23
100.8325693155457
 33
0
  0
MTEXT
  5
118
100
AcDbEntity
  8
rozmir
  6
CONTINUOUS
 62
    0
370
   -2
100
AcDbMText
 10
38.25000000000001
 20
102.75
 30
0
 40
3.5
 41
8.166666666667101
 71
    5
 72
    1
  1
65.9
  7
standard
210
0
220
0
230
1
 50
0
 73
    2
 44
1
  0
LINE
  5
119
100
AcDbEntity
  8
rozmir
  6
ByBlock
 62
    0
370
   -2
100
AcDbLine
 10
5.3
 20
93.50000000000001
 11
5.299999999999996
 21
102
  0
LINE
  5
11A
100
AcDbEntity
  8
rozmir
  6
ByBlock
 62
    0
370
   -2
100
AcDbLine
 10
71.20000000000002
 20
93.50000000000001
 11
71.20000000000002
 21
102
  0
ENDBLK
  5
8D
330
8B
100
AcDbEntity
  8
0
100
AcDbBlockEnd
  0
BLOCK
  5
8F
330
8E
100
AcDbEntity
  8
0
100
AcDbBlockBegin
  2
*D25
 70
    1
 10
0
 20
0
  3
*D25
  1

  0
LINE
  5
11B
100
AcDbEntity
  8
rozmir
  6
ByBlock
 62
    0
370
   -2
100
AcDbLine
 10
85
 20
-107.2
 11
85
 21
-78.2
  0
SOLID
  5
11C
100
AcDbEntity
  8
rozmir
  6
ByBlock
 62
    0
370
   -2
100
AcDbTrace
 10
85
 20
-97.2
 30
0
 11
85.83256931554568
 21
-102.2
 31
0
 12
84.16743068445432
 22
-102.2
 32
0
 13
84.16743068445432
 23
-102.2
 33
0
  0
SOLID
  5
11D
100
AcDbEntity
  8
rozmir
  6
ByBlock
 62
    0
370
   -2
100
AcDbTrace
 10
85
 20
-88.2
 30
0
 11
84.16743068445432
 21
-83.2
 31
0
 12
85.83256931554568
 22
-83.2
 32
0
 13
85.83256931554568
 23
-83.2
 33
0
  0
MTEXT
  5
11E
100
AcDbEntity
  8
rozmir
  6
CONTINUOUS
 62
    0
370
   -2
100
AcDbMText
 10
82.25
 20
-92.7
 30
0
 40
3.5
 41
1.555555555555773
 71
    5
 72
    1
  1
9
  7
standard
210
0
220
0
230
1
 50
90
 73
    2
 44
1
  0
LINE
  5
11F
100
AcDbEntity
  8
rozmir
  6
ByBlock
 62
    0
370
   -2
100
AcDbLine
 10
79.69999999999993
 20
-97.2
 11
87
 21
-97.2
  0
LINE
  5
120
100
AcDbEntity
  8
rozmir
  6
ByBlock
 62
    0
370
   -2
100
AcDbLine
 10
77.7
 20
-88.2
 11
87
 21
-88.2
  0
ENDBLK
  5
90
330
8E
100
AcDbEntity
  8
0
100
AcDbBlockEnd
  0
BLOCK
  5
92
330
91
100
AcDbEntity
  8
0
100
AcDbBlockBegin
  2
*D21
 70
    1
 10
0
 20
0
  3
*D21
  1

  0
LINE
  5
121
100
AcDbEntity
  8
rozmir
  6
ByBlock
 62
    0
370
   -2
100
AcDbLine
 10
22.6
 20
-31
 11
50.59999999999993
 21
-31
  0
SOLID
  5
122
100
AcDbEntity
  8
rozmir
  6
ByBlock
 62
    0
370
   -2
100
AcDbTrace
 10
32.6
 20
-31
 30
0
 11
27.6
 21
-31.83256931554568
 31
0
 12
27.6
 22
-30.16743068445432
 32
0
 13
27.6
 23
-30.16743068445432
 33
0
  0
SOLID
  5
123
100
AcDbEntity
  8
rozmir
  6
ByBlock
 62
    0
370
   -2
100
AcDbTrace
 10
40.59999999999993
 20
-31
 30
0
 11
45.59999999999993
 21
-30.16743068445432
 31
0
 12
45.59999999999993
 22
-31.83256931554568
 32
0
 13
45.59999999999993
 23
-31.83256931554568
 33
0
  0
MTEXT
  5
124
100
AcDbEntity
  8
rozmir
  6
CONTINUOUS
 62
    0
370
   -2
100
AcDbMText
 10
36.59999999999997
 20
-28.25
 30
0
 40
3.5
 41
1.555555555555556
 71
    5
 72
    1
  1
8
  7
standard
210
0
220
0
230
1
 50
0
 73
    2
 44
1
  0
LINE
  5
125
100
AcDbEntity
  8
rozmir
  6
ByBlock
 62
    0
370
   -2
100
AcDbLine
 10
32.6
 20
-38.14285714285715
 11
32.6
 21
-29
  0
LINE
  5
126
100
AcDbEntity
  8
rozmir
  6
ByBlock
 62
    0
370
   -2
100
AcDbLine
 10
40.59999999999993
 20
-40.09999999999993
 11
40.59999999999993
 21
-29
  0
ENDBLK
  5
93
330
91
100
AcDbEntity
  8
0
100
AcDbBlockEnd
  0
BLOCK
  5
95
330
94
100
AcDbEntity
  8
0
100
AcDbBlockBegin
  2
*D6
 70
    1
 10
0
 20
0
  3
*D6
  1

  0
LINE
  5
127
100
AcDbEntity
  8
rozmir
  6
ByBlock
 62
    0
370
   -2
100
AcDbLine
 10
2.999999999999986
 20
220
 11
116.3
 21
220
  0
SOLID
  5
128
100
AcDbEntity
  8
rozmir
  6
ByBlock
 62
    0
370
   -2
100
AcDbTrace
 10
2.999999999999986
 20
220
 30
0
 11
7.999999999999986
 21
220.8325693155457
 31
0
 12
7.999999999999986
 22
219.1674306844543
 32
0
 13
7.999999999999986
 23
219.1674306844543
 33
0
  0
SOLID
  5
129
100
AcDbEntity
  8
rozmir
  6
ByBlock
 62
    0
370
   -2
100
AcDbTrace
 10
116.3
 20
220
 30
0
 11
111.3
 21
219.1674306844543
 31
0
 12
111.3
 22
220.8325693155457
 32
0
 13
111.3
 23
220.8325693155457
 33
0
  0
MTEXT
  5
12A
100
AcDbEntity
  8
rozmir
  6
CONTINUOUS
 62
    0
370
   -2
100
AcDbMText
 10
59.65
 20
222.75
 30
0
 40
3.5
 41
9.333333333333769
 71
    5
 72
    1
  1
113.3
  7
standard
210
0
220
0
230
1
 50
0
 73
    2
 44
1
  0
LINE
  5
12B
100
AcDbEntity
  8
rozmir
  6
ByBlock
 62
    0
370
   -2
100
AcDbLine
 10
3
 20
201
 11
2.999999999999984
 21
222
  0
LINE
  5
12C
100
AcDbEntity
  8
rozmir
  6
ByBlock
 62
    0
370
   -2
100
AcDbLine
 10
116.3
 20
201
 11
116.3
 21
222
  0
ENDBLK
  5
96
330
94
100
AcDbEntity
  8
0
100
AcDbBlockEnd
  0
BLOCK
  5
98
330
97
100
AcDbEntity
  8
0
100
AcDbBlockBegin
  2
*D13
 70
    1
 10
0
 20
0
  3
*D13
  1

  0
LINE
  5
12D
100
AcDbEntity
  8
rozmir
  6
ByBlock
 62
    0
370
   -2
100
AcDbLine
 10
-10.00000000000001
 20
3.399999999999991
 11
-10
 21
90.50000000000001
  0
SOLID
  5
12E
100
AcDbEntity
  8
rozmir
  6
ByBlock
 62
    0
370
   -2
100
AcDbTrace
 10
-10.00000000000001
 20
3.399999999999991
 30
0
 11
-10.83256931554569
 21
8.399999999999991
 31
0
 12
-9.167430684454324
 22
8.399999999999991
 32
0
 13
-9.167430684454324
 23
8.399999999999991
 33
0
  0
SOLID
  5
12F
100
AcDbEntity
  8
rozmir
  6
ByBlock
 62
    0
370
   -2
100
AcDbTrace
 10
-10
 20
90.50000000000001
 30
0
 11
-9.167430684454319
 21
85.50000000000001
 31
0
 12
-10.83256931554568
 22
85.50000000000001
 32
0
 13
-10.83256931554568
 23
85.50000000000001
 33
0
  0
MTEXT
  5
130
100
AcDbEntity
  8
rozmir
  6
CONTINUOUS
 62
    0
370
   -2
100
AcDbMText
 10
-12.75
 20
46.95
 30
0
 40
3.5
 41
7.388888888888889
 71
    5
 72
    1
  1
87.1
  7
standard
210
0
220
0
230
1
 50
90
 73
    2
 44
1
  0
LINE
  5
131
100
AcDbEntity
  8
rozmir
  6
ByBlock
 62
    0
370
   -2
100
AcDbLine
 10
2.3
 20
3.4
 11
-12.00000000000001
 21
3.399999999999992
  0
LINE
  5
132
100
AcDbEntity
  8
rozmir
  6
ByBlock
 62
    0
370
   -2
100
AcDbLine
 10
4.3
 20
90.50000000000001
 11
-12
 21
90.50000000000001
  0
ENDBLK
  5
99
330
97
100
AcDbEntity
  8
0
100
AcDbBlockEnd
  0
BLOCK
  5
9B
330
9A
100
AcDbEntity
  8
0
100
AcDbBlockBegin
  2
*D8
 70
    1
 10
0
 20
0
  3
*D8
  1

  0
LINE
  5
133
100
AcDbEntity
  8
rozmir
  6
ByBlock
 62
    0
370
   -2
100
AcDbLine
 10
203
 20
210
 11
295.3
 21
210
  0
SOLID
  5
134
100
AcDbEntity
  8
rozmir
  6
ByBlock
 62
    0
370
   -2
100
AcDbTrace
 10
203
 20
210
 30
0
 11
208
 21
210.8325693155457
 31
0
 12
208
 22
209.1674306844543
 32
0
 13
208
 23
209.1674306844543
 33
0
  0
SOLID
  5
135
100
AcDbEntity
  8
rozmir
  6
ByBlock
 62
    0
370
   -2
100
AcDbTrace
 10
295.3
 20
210
 30
0
 11
290.3
 21
209.1674306844543
 31
0
 12
290.3
 22
210.8325693155457
 32
0
 13
290.3
 23
210.8325693155457
 33
0
  0
MTEXT
  5
136
100
AcDbEntity
  8
rozmir
  6
CONTINUOUS
 62
    0
370
   -2
100
AcDbMText
 10
249.15
 20
212.75
 30
0
 40
3.5
 41
8.166666666667101
 71
    5
 72
    1
  1
92.3
  7
standard
210
0
220
0
230
1
 50
0
 73
    2
 44
1
  0
LINE
  5
137
100
AcDbEntity
  8
rozmir
  6
ByBlock
 62
    0
370
   -2
100
AcDbLine
 10
203
 20
201
 11
203
 21
212
  0
LINE
  5
138
100
AcDbEntity
  8
rozmir
  6
ByBlock
 62
    0
370
   -2
100
AcDbLine
 10
295.3
 20
201
 11
295.3
 21
212
  0
ENDBLK
  5
9C
330
9A
100
AcDbEntity
  8
0
100
AcDbBlockEnd
  0
BLOCK
  5
9E
330
9D
100
AcDbEntity
  8
0
100
AcDbBlockBegin
  2
*D3
 70
    1
 10
0
 20
0
  3
*D3
  1

  0
LINE
  5
139
100
AcDbEntity
  8
rozmir
  6
ByBlock
 62
    0
370
   -2
100
AcDbLine
 10
140
 20
2.842170943040401e-14
 11
140
 21
180
  0
SOLID
  5
13A
100
AcDbEntity
  8
rozmir
  6
ByBlock
 62
    0
370
   -2
100
AcDbTrace
 10
140
 20
2.842170943040401e-14
 30
0
 11
139.1674306844543
 21
5.000000000000028
 31
0
 12
140.8325693155457
 22
5.000000000000028
 32
0
 13
140.8325693155457
 23
5.000000000000028
 33
0
  0
SOLID
  5
13B
100
AcDbEntity
  8
rozmir
  6
ByBlock
 62
    0
370
   -2
100
AcDbTrace
 10
140
 20
180
 30
0
 11
140.8325693155457
 21
175
 31
0
 12
139.1674306844543
 22
175
 32
0
 13
139.1674306844543
 23
175
 33
0
  0
MTEXT
  5
13C
100
AcDbEntity
  8
rozmir
  6
CONTINUOUS
 62
    0
370
   -2
100
AcDbMText
 10
137.25
 20
90.00000000000003
 30
0
 40
3.5
 41
6.222222222222223
 71
    5
 72
    1
  1
180
  7
standard
210
0
220
0
230
1
 50
90
 73
    2
 44
1
  0
LINE
  5
13D
100
AcDbEntity
  8
rozmir
  6
ByBlock
 62
    0
370
   -2
100
AcDbLine
 10
120.3
 20
1.221245327087672e-15
 11
142
 21
3.108624468950438e-14
  0
LINE
  5
13E
100
AcDbEntity
  8
rozmir
  6
ByBlock
 62
    0
370
   -2
100
AcDbLine
 10
117.3
 20
180
 11
142
 21
180
  0
ENDBLK
  5
9F
330
9D
100
AcDbEntity
  8
0
100
AcDbBlockEnd
  0
BLOCK
  5
A1
330
A0
100
AcDbEntity
  8
0
100
AcDbBlockBegin
  2
*D26
 70
    1
 10
0
 20
0
  3
*D26
  1

  0
LINE
  5
13F
100
AcDbEntity
  8
rozmir
  6
ByBlock
 62
    0
370
   -2
100
AcDbLine
 10
3.702394120755817
 20
-36.54021536511523
 11
9.897704494967432
 21
-42.81838447201925
  0
LINE
  5
140
100
AcDbEntity
  8
rozmir
  6
ByBlock
 62
    0
370
   -2
100
AcDbLine
 10
16.70239412075582
 20
-23.71178824036905
 11
22.89770449496743
 21
-29.98995734727306
  0
LINE
  5
141
100
AcDbEntity
  8
rozmir
  6
ByBlock
 62
    0
370
   -2
100
AcDbLine
 10
8.492916253455798
 20
-41.39480799128116
 11
21.4929162534558
 21
-28.56638086653497
  0
SOLID
  5
142
100
AcDbEntity
  8
rozmir
  6
ByBlock
 62
    0
370
   -2
100
AcDbTrace
 10
8.492916253455798
 20
-41.39480799128116
 30
0
 11
11.46706566294005
 21
-37.29022433940455
 31
0
 12
12.63664924766201
 22
-38.47545043559959
 32
0
 13
12.63664924766201
 23
-38.47545043559959
 33
0
  0
SOLID
  5
143
100
AcDbEntity
  8
rozmir
  6
ByBlock
 62
    0
370
   -2
100
AcDbTrace
 10
21.4929162534558
 20
-28.56638086653497
 30
0
 11
18.51876684397155
 21
-32.67096451841158
 31
0
 12
17.34918325924959
 22
-31.48573842221654
 32
0
 13
17.34918325924959
 23
-31.48573842221654
 33
0
  0
MTEXT
  5
144
100
AcDbEntity
  8
rozmir
  6
CONTINUOUS
 62
    0
370
   -2
100
AcDbMText
 10
13.0613324213773
 20
-33.02317676789319
 30
0
 40
3.5
 41
7.388888888889106
 71
    5
 72
    1
  1
18.3
  7
standard
210
0
220
0
230
1
 50
44.61940163863016
 73
    2
 44
1
  0
ENDBLK
  5
A2
330
A0
100
AcDbEntity
  8
0
100
AcDbBlockEnd
  0
ENDSEC
  0
SECTION
  2
ENTITIES
  0
LWPOLYLINE
  5
145
100
AcDbEntity
  8
karkas2
  6
DASHED2
 62
  256
370
   -1
100
AcDbPolyline
 90
    8
 70
    1
 43
0
 10
76.10000000000001
 20
-118.3
 42
0.414213562373095
 10
76.50000000000001
 20
-117.9
 10
76.50000000000001
 20
-115.7
 42
0.4142135623730954
 10
76.10000000000001
 20
-115.3
 10
73.90000000000002
 20
-115.3
 42
0.4142135623730955
 10
73.50000000000001
 20
-115.7
 10
73.50000000000001
 20
-117.9
 42
0.414213562373095
 10
73.90000000000002
 20
-118.3
  0
LWPOLYLINE
  5
146
100
AcDbEntity
  8
obshivka
  6
ByLayer
 62
  256
370
   -1
100
AcDbPolyline
 90
   38
 70
    0
 43
0
 10
0
 20
-21
 10
0
 20
-22.8
 10
-1
 20
-23.8
 10
-1
 20
-30.5
 10
0
 20
-31.5
 10
0
 20
-33.30000000000001
 10
-1
 20
-34.30000000000001
 10
-1
 20
-41
 10
0
 20
-42
 10
1.4210854715202e-14
 20
-43.80000000000001
 10
-0.9999999999999858
 20
-44.80000000000001
 10
-1
 20
-51.5
 10
0
 20
-52.5
 10
1.4210854715202e-14
 20
-54.30000000000001
 10
-0.9999999999999858
 20
-55.30000000000001
 10
-0.9999999999999858
 20
-62
 10
1.4210854715202e-14
 20
-63
 10
1.4210854715202e-14
 20
-64.80000000000001
 10
-0.9999999999999858
 20
-65.80000000000001
 10
-0.9999999999999858
 20
-72.5
 10
1.4210854715202e-14
 20
-73.5
 10
1.4210854715202e-14
 20
-75.30000000000001
 10
-0.9999999999999858
 20
-76.30000000000001
 10
-0.9999999999999858
 20
-83
 10
1.4210854715202e-14
 20
-84
 10
1.4210854715202e-14
 20
-85.80000000000001
 10
-0.9999999999999858
 20
-86.80000000000001
 10
-0.9999999999999858
 20
-93.5
 10
1.4210854715202e-14
 20
-94.5
 10
1.4210854715202e-14
 20
-96.30000000000001
 10
-0.9999999999999858
 20
-97.30000000000001
 10
-0.9999999999999858
 20
-104
 10
1.4210854715202e-14
 20
-105
 10
1.4210854715202e-14
 20
-106.8
 10
-0.9999999999999858
 20
-107.8
 10
-0.9999999999999858
 20
-114.5
 10
1.4210854715202e-14
 20
-115.5
 10
1.4210854715202e-14
 20
-117.3
  0
LWPOLYLINE
  5
147
100
AcDbEntity
  8
obshivka
  6
ByLayer
 62
  256
370
   -1
100
AcDbPolyline
 90
   46
 70
    0
 43
0
 10
1
 20
-20
 10
2.8
 20
-20
 10
3.8
 20
-19
 10
10.5
 20
-19
 10
11.5
 20
-20
 10
13.3
 20
-20
 10
14.3
 20
-19
 10
21
 20
-19
 10
22
 20
-20
 10
23.8
 20
-20
 10
24.8
 20
-19
 10
31.5
 20
-19
 10
32.5
 20
-20
 10
34.3
 20
-20
 10
35.3
 20
-19
 10
42
 20
-19
 10
43
 20
-20
 10
44.8
 20
-20
 10
45.8
 20
-19
 10
52.5
 20
-19
 10
53.5
 20
-20
 10
55.3
 20
-20
 10
56.3
 20
-19
 10
63
 20
-19
 10
64
 20
-20
 10
65.8
 20
-20
 10
66.8
 20
-19
 10
73.5
 20
-19
 10
74.5
 20
-20
 10
76.3
 20
-20
 10
77.3
 20
-19
 10
84
 20
-19
 10
85
 20
-20
 10
86.8
 20
-20
 10
87.8
 20
-19
 10
94.5
 20
-19
 10
95.5
 20
-20
 10
97.3
 20
-20
 10
98.3
 20
-19
 10
105
 20
-19
 10
106
 20
-20
 10
107.8
 20
-20
 10
108.8
 20
-19
 10
115.5
 20
-19
 10
116.5
 20
-20
 10
118.3
 20
-20
  0
LWPOLYLINE
  5
148
100
AcDbEntity
  8
obshivka
  6
ByLayer
 62
  256
370
   -1
100
AcDbPolyline
 90
   38
 70
    0
 43
0
 10
119.3
 20
-21
 10
119.3
 20
-22.8
 10
120.3
 20
-23.8
 10
120.3
 20
-30.5
 10
119.3
 20
-31.5
 10
119.3
 20
-33.30000000000001
 10
120.3
 20
-34.30000000000001
 10
120.3
 20
-41
 10
119.3
 20
-42
 10
119.3
 20
-43.80000000000001
 10
120.3
 20
-44.80000000000001
 10
120.3
 20
-51.5
 10
119.3
 20
-52.5
 10
119.3
 20
-54.30000000000001
 10
120.3
 20
-55.30000000000001
 10
120.3
 20
-62
 10
119.3
 20
-63
 10
119.3
 20
-64.80000000000001
 10
120.3
 20
-65.80000000000001
 10
120.3
 20
-72.5
 10
119.3
 20
-73.5
 10
119.3
 20
-75.30000000000001
 10
120.3
 20
-76.30000000000001
 10
120.3
 20
-83
 10
119.3
 20
-84
 10
119.3
 20
-85.80000000000001
 10
120.3
 20
-86.80000000000001
 10
120.3
 20
-93.5
 10
119.3
 20
-94.5
 10
119.3
 20
-96.30000000000001
 10
120.3
 20
-97.30000000000001
 10
120.3
 20
-104
 10
119.3
 20
-105
 10
119.3
 20
-106.8
 10
120.3
 20
-107.8
 10
120.3
 20
-114.5
 10
119.3
 20
-115.5
 10
119.3
 20
-117.3
  0
LWPOLYLINE
  5
149
100
AcDbEntity
  8
karkas2
  6
ByLayer
 62
  256
370
   -1
100
AcDbPolyline
 90
    8
 70
    1
 43
0
 10
2.600000000000001
 20
-23
 42
0.414213562373095
 10
3
 20
-22.6
 10
3
 20
-20.4
 42
0.4142135623730954
 10
2.6
 20
-20
 10
0.3999999999999999
 20
-20
 42
0.4142135623730955
 10
0
 20
-20.4
 10
1.609823385706477e-15
 20
-22.6
 42
0.414213562373095
 10
0.4000000000000001
 20
-23
  0
LWPOLYLINE
  5
14A
100
AcDbEntity
  8
karkas2
  6
ByLayer
 62
  256
370
   -1
100
AcDbPolyline
 90
    8
 70
    1
 43
0
 10
118.9
 20
-23
 42
0.414213562373095
 10
119.3
 20
-22.6
 10
119.3
 20
-20.4
 42
0.4142135623730954
 10
118.9
 20
-20
 10
116.7
 20
-20
 42
0.4142135623730955
 10
116.3
 20
-20.4
 10
116.3
 20
-22.6
 42
0.414213562373095
 10
116.7
 20
-23
  0
LWPOLYLINE
  5
14B
100
AcDbEntity
  8
karkas2
  6
ByLayer
 62
  256
370
   -1
100
AcDbPolyline
 90
    8
 70
    1
 43
0
 10
118.9
 20
-118.3
 42
0.414213562373095
 10
119.3
 20
-117.9
 10
119.3
 20
-115.7
 42
0.4142135623730954
 10
118.9
 20
-115.3
 10
116.7
 20
-115.3
 42
0.4142135623730955
 10
116.3
 20
-115.7
 10
116.3
 20
-117.9
 42
0.414213562373095
 10
116.7
 20
-118.3
  0
LWPOLYLINE
  5
14C
100
AcDbEntity
  8
karkas2
  6
ByLayer
 62
  256
370
   -1
100
AcDbPolyline
 90
    8
 70
    1
 43
0
 10
2.599999999999994
 20
-118.3
 42
0.414213562373095
 10
3
 20
-117.9
 10
2.999999999999994
 20
-115.7
 42
0.4142135623730954
 10
2.599999999999994
 20
-115.3
 10
0.4000000000000064
 20
-115.3
 42
0.4142135623730955
 10
0
 20
-115.7
 10
7.049916206369744e-15
 20
-117.9
 42
0.414213562373095
 10
0.4000000000000057
 20
-118.3
  0
LWPOLYLINE
  5
14D
100
AcDbEntity
  8
karkas1
  6
DASHED2
 62
  256
370
   -1
100
AcDbPolyline
 90
    8
 70
    1
 43
0
 10
4.899999999999995
 20
-118.3
 42
0.414213562373095
 10
5.300000000000001
 20
-117.9
 10
5.299999999999994
 20
-115.7
 42
0.4142135623730954
 10
4.899999999999995
 20
-115.3
 10
3.700000000000006
 20
-115.3
 42
0.4142135623730955
 10
3.3
 20
-115.7
 10
3.300000000000007
 20
-117.9
 42
0.414213562373095
 10
3.700000000000006
 20
-118.3
  0
LWPOLYLINE
  5
14E
100
AcDbEntity
  8
karkas1
  6
DASHED2
 62
  256
370
   -1
100
AcDbPolyline
 90
    8
 70
    1
 43
0
 10
72.8
 20
-118.3
 42
0.414213562373095
 10
73.2
 20
-117.9
 10
73.2
 20
-115.7
 42
0.4142135623730954
 10
72.8
 20
-115.3
 10
71.60000000000001
 20
-115.3
 42
0.4142135623730955
 10
71.2
 20
-115.7
 10
71.2
 20
-117.9
 42
0.414213562373095
 10
71.60000000000001
 20
-118.3
  0
LWPOLYLINE
  5
14F
100
AcDbEntity
  8
obshivka
  6
ByLayer
 62
  256
370
   -1
100
AcDbPolyline
 90
   18
 70
    0
 43
0
 10
74.5
 20
-118.3
 10
76.3
 20
-118.3
 10
77.3
 20
-119.3
 10
84
 20
-119.3
 10
85
 20
-118.3
 10
86.8
 20
-118.3
 10
87.8
 20
-119.3
 10
94.5
 20
-119.3
 10
95.5
 20
-118.3
 10
97.3
 20
-118.3
 10
98.3
 20
-119.3
 10
105
 20
-119.3
 10
106
 20
-118.3
 10
107.8
 20
-118.3
 10
108.8
 20
-119.3
 10
115.5
 20
-119.3
 10
116.5
 20
-118.3
 10
118.3
 20
-118.3
  0
LWPOLYLINE
  5
150
100
AcDbEntity
  8
karkas2
  6
ByLayer
 62
  256
370
   -1
100
AcDbPolyline
 90
    4
 70
    1
 43
0
 10
3
 20
0
 10
116.3
 20
0
 10
116.3
 20
3
 10
3
 20
3
  0
LWPOLYLINE
  5
151
100
AcDbEntity
  8
obshivka
  6
ByLayer
 62
  256
370
   -1
100
AcDbPolyline
 90
   30
 70
    0
 43
0
 10
74.00000000000001
 20
-118.3
 10
72.20000000000002
 20
-118.3
 10
71.20000000000002
 20
-119.3
 10
64.50000000000001
 20
-119.3
 10
63.50000000000001
 20
-118.3
 10
61.70000000000002
 20
-118.3
 10
60.70000000000002
 20
-119.3
 10
54.00000000000001
 20
-119.3
 10
53.00000000000001
 20
-118.3
 10
51.20000000000002
 20
-118.3
 10
50.20000000000002
 20
-119.3
 10
43.50000000000001
 20
-119.3
 10
42.50000000000001
 20
-118.3
 10
40.70000000000002
 20
-118.3
 10
39.70000000000002
 20
-119.3
 10
33.00000000000001
 20
-119.3
 10
32.00000000000001
 20
-118.3
 10
30.20000000000002
 20
-118.3
 10
29.20000000000002
 20
-119.3
 10
22.50000000000001
 20
-119.3
 10
21.50000000000001
 20
-118.3
 10
19.70000000000002
 20
-118.3
 10
18.70000000000002
 20
-119.3
 10
12.00000000000001
 20
-119.3
 10
11.00000000000001
 20
-118.3
 10
9.200000000000017
 20
-118.3
 10
8.200000000000045
 20
-119.3
 10
5.3
 20
-119.3
 10
4.3
 20
-118.3
 10
2.5
 20
-118.3
  0
LWPOLYLINE
  5
152
100
AcDbEntity
  8
karkas1
  6
ByLayer
 62
  256
370
   -1
100
AcDbPolyline
 90
    4
 70
    1
 43
0
 10
5.299999999999999
 20
3.4
 10
71.2
 20
3.4
 10
71.2
 20
5.4
 10
5.299999999999999
 20
5.4
  0
LINE
  5
153
100
AcDbEntity
  8
karkas2
  6
ByLayer
 62
  256
370
   -1
100
AcDbLine
 10
2.600000110503453
 20
-20.00000000000001
 11
116.7
 21
-20
  0
LINE
  5
154
100
AcDbEntity
  8
karkas2
  6
ByLayer
 62
  256
370
   -1
100
AcDbLine
 10
2.60000150845101
 20
-23.00000000000001
 11
116.7000013979476
 21
-23
  0
LINE
  5
155
100
AcDbEntity
  8
karkas2
  6
ByLayer
 62
  256
370
   -1
100
AcDbLine
 10
2.599998030238803
 20
-115.3
 11
116.6999979197354
 21
-115.3
  0
LINE
  5
156
100
AcDbEntity
  8
karkas2
  6
ByLayer
 62
  256
370
   -1
100
AcDbLine
 10
2.59999942818636
 20
-118.3
 11
116.6999993176829
 21
-118.3
  0
LINE
  5
157
100
AcDbEntity
  8
karkas2
  6
ByLayer
 62
  256
370
   -1
100
AcDbLine
 10
1.609823385706477e-15
 20
-22.6
 11
-1.110223024625157e-16
 21
-115.7
  0
LINE
  5
158
100
AcDbEntity
  8
karkas2
  6
ByLayer
 62
  256
370
   -1
100
AcDbLine
 10
3
 20
-23
 11
2.999999999999994
 21
-115.3
  0
LINE
  5
159
100
AcDbEntity
  8
karkas2
  6
ByLayer
 62
  256
370
   -1
100
AcDbLine
 10
119.3
 20
-22.6
 11
119.3
 21
-115.7
  0
LINE
  5
15A
100
AcDbEntity
  8
karkas2
  6
ByLayer
 62
  256
370
   -1
100
AcDbLine
 10
116.3
 20
-23
 11
116.3
 21
-115.3
  0
LWPOLYLINE
  5
15B
100
AcDbEntity
  8
bak
  6
ByLayer
 62
  256
370
   -1
100
AcDbPolyline
 90
    4
 70
    1
 43
0
 10
27.65000000000001
 20
-101.15
 10
91.65000000000001
 20
-101.15
 10
91.65000000000001
 20
-37.15000000000001
 10
27.65000000000001
 20
-37.15000000000001
  0
CIRCLE
  5
15C
100
AcDbEntity
  8
bak
  6
ByLayer
 62
  256
370
   -1
100
AcDbCircle
 10
59.65000000000001
 20
-69.15000000000001
 40
9.5
  0
LWPOLYLINE
  5
15D
100
AcDbEntity
  8
karkas2
  6
ByLayer
 62
  256
370
   -1
100
AcDbPolyline
 90
    4
 70
    1
 43
0
 10
29.6
 20
-23
 10
32.6
 20
-23
 10
32.6
 20
-115.3
 10
29.59999999999999
 20
-115.3
  0
LWPOLYLINE
  5
15E
100
AcDbEntity
  8
karkas2
  6
ByLayer
 62
  256
370
   -1
100
AcDbPolyline
 90
    4
 70
    1
 43
0
 10
89.70000000000016
 20
-23.0000000000001
 10
86.70000000000016
 20
-23.0000000000001
 10
86.69999999999985
 20
-115.3000000000001
 10
89.69999999999986
 20
-115.3000000000001
  0
LWPOLYLINE
  5
15F
100
AcDbEntity
  8
karkas1
  6
ByLayer
 62
  256
370
   -1
100
AcDbPolyline
 90
    4
 70
    1
 43
0
 10
32.6
 20
-39.1
 10
86.7
 20
-39.1
 10
86.6999999999999
 20
-41.1
 10
32.5999999999999
 20
-41.1
  0
LWPOLYLINE
  5
160
100
AcDbEntity
  8
karkas1
  6
ByLayer
 62
  256
370
   -1
100
AcDbPolyline
 90
    4
 70
    1
 43
0
 10
32.6
 20
-99.20000000000002
 10
86.7
 20
-99.20000000000002
 10
86.7000000000001
 20
-97.2
 10
32.6000000000001
 20
-97.2
  0
LWPOLYLINE
  5
161
100
AcDbEntity
  8
karkas1
  6
ByLayer
 62
  256
370
   -1
100
AcDbPolyline
 90
    4
 70
    1
 43
0
 10
40.59999999999993
 20
-41.09999999999993
 10
42.59999999999999
 20
-41.10000000000001
 10
42.6000000000001
 20
-97.19999999999999
 10
40.60000000000008
 20
-97.19999999999997
  0
LWPOLYLINE
  5
162
100
AcDbEntity
  8
karkas1
  6
ByLayer
 62
  256
370
   -1
100
AcDbPolyline
 90
    4
 70
    1
 43
0
 10
78.70000000000009
 20
-41.1
 10
76.69999999999999
 20
-41.1
 10
76.7000000000001
 20
-97.19999999999999
 10
78.69999999999995
 20
-97.20000000000003
  0
LWPOLYLINE
  5
163
100
AcDbEntity
  8
karkas1
  6
ByLayer
 62
  256
370
   -1
100
AcDbPolyline
 90
    4
 70
    1
 43
0
 10
42.6
 20
-50.1
 10
76.7
 20
-50.10000000000001
 10
76.6999999999999
 20
-52.10000000000001
 10
42.5999999999999
 20
-52.1
  0
LWPOLYLINE
  5
164
100
AcDbEntity
  8
karkas1
  6
ByLayer
 62
  256
370
   -1
100
AcDbPolyline
 90
    4
 70
    1
 43
0
 10
42.6
 20
-88.20000000000002
 10
76.7
 20
-88.2
 10
76.6999999999999
 20
-86.2
 10
42.5999999999999
 20
-86.20000000000002
  0
LWPOLYLINE
  5
165
100
AcDbEntity
  8
karkas2
  6
ByLayer
 62
  256
370
   -1
100
AcDbPolyline
 90
    4
 70
    1
 43
0
 10
203
 20
0
 10
295.3
 20
0
 10
295.3
 20
3
 10
203
 20
3
  0
LWPOLYLINE
  5
166
100
AcDbEntity
  8
karkas1
  6
ByLayer
 62
  256
370
   -1
100
AcDbPolyline
 90
    5
 70
    0
 43
0
 10
3
 20
-35.82842712474618
 10
3
 20
-33
 10
13
 20
-23
 10
15.82842712474618
 20
-23.00000000000001
 10
3
 20
-35.82842712474618
  0
LWPOLYLINE
  5
167
100
AcDbEntity
  8
karkas1
  6
ByLayer
 62
  256
370
   -1
100
AcDbPolyline
 90
    5
 70
    0
 43
0
 10
2.999999999999999
 20
-102.4715728752538
 10
2.999999999999998
 20
-105.3
 10
13
 20
-115.3
 10
15.82842712474618
 20
-115.3
 10
2.999999999999999
 20
-102.4715728752538
  0
LWPOLYLINE
  5
168
100
AcDbEntity
  8
karkas1
  6
ByLayer
 62
  256
370
   -1
100
AcDbPolyline
 90
    5
 70
    0
 43
0
 10
116.2999999999998
 20
-35.8284271247458
 10
116.2999999999998
 20
-32.99999999999963
 10
106.2999999999997
 20
-22.9999999999997
 10
103.4715728752535
 20
-22.99999999999972
 10
116.2999999999998
 20
-35.8284271247458
  0
LWPOLYLINE
  5
169
100
AcDbEntity
  8
karkas1
  6
ByLayer
 62
  256
370
   -1
100
AcDbPolyline
 90
    5
 70
    0
 43
0
 10
116.3000000000003
 20
-102.4715728752535
 10
116.3000000000003
 20
-105.2999999999996
 10
106.3000000000003
 20
-115.2999999999997
 10
103.4715728752542
 20
-115.2999999999997
 10
116.3000000000003
 20
-102.4715728752535
  0
LWPOLYLINE
  5
16A
100
AcDbEntity
  8
karkas2
  6
ByLayer
 62
  256
370
   -1
100
AcDbPolyline
 90
    4
 70
    1
 43
0
 10
0
 20
0
 10
3
 20
0
 10
3
 20
200
 10
0
 20
200
  0
LWPOLYLINE
  5
16B
100
AcDbEntity
  8
karkas2
  6
ByLayer
 62
  256
370
   -1
100
AcDbPolyline
 90
    4
 70
    1
 43
0
 10
116.3
 20
-1.110223024625157e-16
 10
119.3
 20
-1.110223024625157e-16
 10
119.3
 20
200
 10
116.3
 20
200
  0
LWPOLYLINE
  5
16C
100
AcDbEntity
  8
karkas2
  6
ByLayer
 62
  256
370
   -1
100
AcDbPolyline
 90
    4
 70
    1
 43
0
 10
3
 20
197
 10
116.3
 20
197
 10
116.3
 20
200
 10
3
 20
200
  0
LWPOLYLINE
  5
16D
100
AcDbEntity
  8
karkas2
  6
ByLayer
 62
  256
370
   -1
100
AcDbPolyline
 90
    4
 70
    1
 43
0
 10
73.49999999999999
 20
3
 10
76.49999999999999
 20
3
 10
76.50000000000001
 20
197
 10
73.50000000000001
 20
197
  0
LWPOLYLINE
  5
16E
100
AcDbEntity
  8
karkas1
  6
ByLayer
 62
  256
370
   -1
100
AcDbPolyline
 90
    4
 70
    1
 43
0
 10
76.50000000000001
 20
182
 10
116.3
 20
182
 10
116.3
 20
180
 10
76.50000000000001
 20
180
  0
LWPOLYLINE
  5
16F
100
AcDbEntity
  8
karkas1
  6
ByLayer
 62
  256
370
   -1
100
AcDbPolyline
 90
    4
 70
    1
 43
0
 10
5.300000000000001
 20
182
 10
71.20000000000002
 20
182
 10
71.20000000000002
 20
180
 10
5.300000000000001
 20
180
  0
LWPOLYLINE
  5
170
100
AcDbEntity
  8
karkas1
  6
ByLayer
 62
  256
370
   -1
100
AcDbPolyline
 90
    4
 70
    1
 43
0
 10
3.3
 20
3.4
 10
5.299999999999999
 20
3.4
 10
5.299999999999998
 20
182
 10
3.299999999999999
 20
182
  0
LWPOLYLINE
  5
171
100
AcDbEntity
  8
karkas1
  6
ByLayer
 62
  256
370
   -1
100
AcDbPolyline
 90
    4
 70
    1
 43
0
 10
71.2
 20
3.4
 10
73.2
 20
3.4
 10
73.2
 20
182
 10
71.2
 20
182
  0
LWPOLYLINE
  5
172
100
AcDbEntity
  8
karkas2
  6
ByLayer
 62
  256
370
   -1
100
AcDbPolyline
 90
    4
 70
    1
 43
0
 10
200
 20
0
 10
203
 20
0
 10
203
 20
200
 10
200
 20
200
  0
LWPOLYLINE
  5
173
100
AcDbEntity
  8
karkas2
  6
ByLayer
 62
  256
370
   -1
100
AcDbPolyline
 90
    4
 70
    1
 43
0
 10
295.3
 20
-1.110223024625157e-16
 10
298.3
 20
-1.110223024625157e-16
 10
298.3
 20
200
 10
295.3
 20
200
  0
LWPOLYLINE
  5
174
100
AcDbEntity
  8
karkas2
  6
ByLayer
 62
  256
370
   -1
100
AcDbPolyline
 90
    4
 70
    1
 43
0
 10
203
 20
197
 10
295.3
 20
197
 10
295.3
 20
200
 10
203
 20
200
  0
LWPOLYLINE
  5
175
100
AcDbEntity
  8
karkas1
  6
ByLayer
 62
  256
370
   -1
100
AcDbPolyline
 90
    4
 70
    1
 43
0
 10
203
 20
182
 10
295.3
 20
182
 10
295.3
 20
180
 10
203
 20
180
  0
LWPOLYLINE
  5
176
100
AcDbEntity
  8
karkas1
  6
ByLayer
 62
  256
370
   -1
100
AcDbPolyline
 90
    4
 70
    1
 43
0
 10
76.5
 20
92.49999999999997
 10
116.3
 20
92.49999999999997
 10
116.3
 20
90.49999999999997
 10
76.5
 20
90.49999999999997
  0
LWPOLYLINE
  5
177
100
AcDbEntity
  8
karkas1
  6
ByLayer
 62
  256
370
   -1
100
AcDbPolyline
 90
    4
 70
    1
 43
0
 10
5.3
 20
92.50000000000001
 10
71.20000000000002
 20
92.50000000000001
 10
71.20000000000002
 20
90.50000000000001
 10
5.3
 20
90.50000000000001
  0
LWPOLYLINE
  5
178
100
AcDbEntity
  8
karkas1
  6
ByLayer
 62
  256
370
   -1
100
AcDbPolyline
 90
    4
 70
    1
 43
0
 10
203
 20
92.49999999999994
 10
295.3
 20
92.49999999999997
 10
295.3
 20
90.49999999999997
 10
203
 20
90.49999999999994
  0
DIMENSION
  5
179
100
AcDbEntity
  8
rozmir
  6
ByLayer
 62
  256
370
   -1
100
AcDbDimension
  2
*D1
 10
150
 20
0
 30
0
 11
147.25
 21
100
 31
0
 70
   32
 71
    5
  3
Standard
 53
0
210
0
220
0
230
1
100
AcDbAlignedDimension
 13
119.3
 23
200
 33
0
 14
119.3
 24
-1.110223024625157e-16
 34
0
 50
90
100
AcDbRotatedDimension
  0
DIMENSION
  5
17A
100
AcDbEntity
  8
rozmir
  6
ByLayer
 62
  256
370
   -1
100
AcDbDimension
  2
*D2
 10
130
 20
90.49999999999997
 30
0
 11
127.25
 21
45.24999999999999
 31
0
 70
   32
 71
    5
  3
Standard
 53
0
210
0
220
0
230
1
100
AcDbAlignedDimension
 13
119.3
 23
-1.110223024625157e-16
 33
0
 14
116.3
 24
90.49999999999997
 34
0
 50
90
100
AcDbRotatedDimension
  0
DIMENSION
  5
17B
100
AcDbEntity
  8
rozmir
  6
ByLayer
 62
  256
370
   -1
100
AcDbDimension
  2
*D3
 10
140
 20
180
 30
0
 11
137.25
 21
90.00000000000003
 31
0
 70
   32
 71
    5
  3
Standard
 53
0
210
0
220
0
230
1
100
AcDbAlignedDimension
 13
119.3
 23
-1.110223024625157e-16
 33
0
 14
116.3
 24
180
 34
0
 50
90
100
AcDbRotatedDimension
  0
LINE
  5
17C
100
AcDbEntity
  8
rozmir
  6
DASHDOT2
 62
  256
370
   -1
100
AcDbLine
 10
-10.01
 20
-69.15000000000001
 11
130
 21
-69.15000000000001
  0
LINE
  5
17D
100
AcDbEntity
  8
rozmir
  6
DASHDOT2
 62
  256
370
   -1
100
AcDbLine
 10
59.65000000000001
 20
-10
 11
59.65
 21
-130
  0
DIMENSION
  5
17E
100
AcDbEntity
  8
rozmir
  6
ByLayer
 62
  256
370
   -1
100
AcDbDimension
  2
*D4
 10
73.50000000000001
 20
210
 30
0
 11
38.25000000000001
 21
212.75
 31
0
 70
   32
 71
    5
  3
Standard
 53
0
210
0
220
0
230
1
100
AcDbAlignedDimension
 13
3
 23
200
 33
0
 14
73.50000000000001
 24
197
 34
0
100
AcDbRotatedDimension
  0
DIMENSION
  5
17F
100
AcDbEntity
  8
rozmir
  6
ByLayer
 62
  256
370
   -1
100
AcDbDimension
  2
*D5
 10
116.3
 20
210
 30
0
 11
96.40000000000001
 21
212.75
 31
0
 70
   32
 71
    5
  3
Standard
 53
0
210
0
220
0
230
1
100
AcDbAlignedDimension
 13
76.50000000000001
 23
197
 33
0
 14
116.3
 24
200
 34
0
100
AcDbRotatedDimension
  0
DIMENSION
  5
180
100
AcDbEntity
  8
rozmir
  6
ByLayer
 62
  256
370
   -1
100
AcDbDimension
  2
*D6
 10
116.3
 20
220
 30
0
 11
59.65
 21
222.75
 31
0
 70
   32
 71
    5
  3
Standard
 53
0
210
0
220
0
230
1
100
AcDbAlignedDimension
 13
3
 23
200
 33
0
 14
116.3
 24
200
 34
0
100
AcDbRotatedDimension
  0
DIMENSION
  5
181
100
AcDbEntity
  8
rozmir
  6
ByLayer
 62
  256
370
   -1
100
AcDbDimension
  2
*D7
 10
119.3
 20
230
 30
0
 11
59.65
 21
232.75
 31
0
 70
   32
 71
    5
  3
Standard
 53
0
210
0
220
0
230
1
100
AcDbAlignedDimension
 13
0
 23
200
 33
0
 14
119.3
 24
200
 34
0
100
AcDbRotatedDimension
  0
DIMENSION
  5
182
100
AcDbEntity
  8
rozmir
  6
ByLayer
 62
  256
370
   -1
100
AcDbDimension
  2
*D8
 10
295.3
 20
210
 30
0
 11
249.15
 21
212.75
 31
0
 70
   32
 71
    5
  3
Standard
 53
0
210
0
220
0
230
1
100
AcDbAlignedDimension
 13
203
 23
200
 33
0
 14
295.3
 24
200
 34
0
100
AcDbRotatedDimension
  0
DIMENSION
  5
183
100
AcDbEntity
  8
rozmir
  6
ByLayer
 62
  256
370
   -1
100
AcDbDimension
  2
*D9
 10
298.3
 20
220
 30
0
 11
249.15
 21
222.75
 31
0
 70
   32
 71
    5
  3
Standard
 53
0
210
0
220
0
230
1
100
AcDbAlignedDimension
 13
200
 23
200
 33
0
 14
298.3
 24
200
 34
0
100
AcDbRotatedDimension
  0
DIMENSION
  5
184
100
AcDbEntity
  8
rozmir
  6
ByLayer
 62
  256
370
   -1
100
AcDbDimension
  2
*D10
 10
73.2
 20
190
 30
0
 11
38.24999999999999
 21
192.75
 31
0
 70
   32
 71
    5
  3
Standard
 53
0
210
0
220
0
230
1
100
AcDbAlignedDimension
 13
3.299999999999999
 23
182
 33
0
 14
73.2
 24
182
 34
0
100
AcDbRotatedDimension
  0
DIMENSION
  5
185
100
AcDbEntity
  8
rozmir
  6
ByLayer
 62
  256
370
   -1
100
AcDbDimension
  2
*D11
 10
71.20000000000002
 20
100
 30
0
 11
38.25000000000001
 21
102.75
 31
0
 70
   32
 71
    5
  3
Standard
 53
0
210
0
220
0
230
1
100
AcDbAlignedDimension
 13
5.3
 23
92.50000000000001
 33
0
 14
71.20000000000002
 24
92.50000000000001
 34
0
100
AcDbRotatedDimension
  0
DIMENSION
  5
186
100
AcDbEntity
  8
rozmir
  6
ByLayer
 62
  256
370
   -1
100
AcDbDimension
  2
*D12
 10
-20
 20
3.400000000000003
 30
0
 11
-22.74999999999999
 21
92.7
 31
0
 70
   32
 71
    5
  3
Standard
 53
0
210
0
220
0
230
1
100
AcDbAlignedDimension
 13
3.299999999999999
 23
182
 33
0
 14
3.3
 24
3.4
 34
0
 50
90
100
AcDbRotatedDimension
  0
DIMENSION
  5
187
100
AcDbEntity
  8
rozmir
  6
ByLayer
 62
  256
370
   -1
100
AcDbDimension
  2
*D13
 10
-10
 20
90.50000000000001
 30
0
 11
-12.75
 21
46.95
 31
0
 70
   32
 71
    5
  3
Standard
 53
0
210
0
220
0
230
1
100
AcDbAlignedDimension
 13
3.3
 23
3.4
 33
0
 14
5.3
 24
90.50000000000001
 34
0
 50
90
100
AcDbRotatedDimension
  0
DIMENSION
  5
188
100
AcDbEntity
  8
rozmir
  6
ByLayer
 62
  256
370
   -1
100
AcDbDimension
  2
*D14
 10
90
 20
197
 30
0
 11
87.25
 21
100
 31
0
 70
   32
 71
    5
  3
Standard
 53
0
210
0
220
0
230
1
100
AcDbAlignedDimension
 13
76.49999999999999
 23
3
 33
0
 14
76.50000000000001
 24
197
 34
0
 50
90
100
AcDbRotatedDimension
  0
DIMENSION
  5
189
100
AcDbEntity
  8
rozmir
  6
ByLayer
 62
  256
370
   -1
100
AcDbDimension
  2
*D15
 10
29.6
 20
-10
 30
0
 11
14.8
 21
-7.25
 31
0
 70
   32
 71
    5
  3
Standard
 53
0
210
0
220
0
230
1
100
AcDbAlignedDimension
 13
0
 23
-20.4
 33
0
 14
29.6
 24
-23
 34
0
100
AcDbRotatedDimension
  0
DIMENSION
  5
18A
100
AcDbEntity
  8
rozmir
  6
ByLayer
 62
  256
370
   -1
100
AcDbDimension
  2
*D16
 10
119.3
 20
-10
 30
0
 11
104.5000000000001
 21
-7.25
 31
0
 70
   32
 71
    5
  3
Standard
 53
0
210
0
220
0
230
1
100
AcDbAlignedDimension
 13
89.70000000000016
 23
-23.0000000000001
 33
0
 14
119.3
 24
-20.4
 34
0
100
AcDbRotatedDimension
  0
DIMENSION
  5
18B
100
AcDbEntity
  8
rozmir
  6
ByLayer
 62
  256
370
   -1
100
AcDbDimension
  2
*D17
 10
86.70000000000017
 20
-9.999999999999998
 30
0
 11
59.65000000000009
 21
-7.249999999999998
 31
0
 70
   32
 71
    5
  3
Standard
 53
0
210
0
220
0
230
1
100
AcDbAlignedDimension
 13
32.6
 23
-23.00000000000001
 33
0
 14
86.70000000000017
 24
-23.0000000000001
 34
0
100
AcDbRotatedDimension
  0
DIMENSION
  5
18C
100
AcDbEntity
  8
rozmir
  6
ByLayer
 62
  256
370
   -1
100
AcDbDimension
  2
*D18
 10
100
 20
-39.1
 30
0
 11
97.25
 21
-31.05000000000005
 31
0
 70
   32
 71
    5
  3
Standard
 53
0
210
0
220
0
230
1
100
AcDbAlignedDimension
 13
89.70000000000017
 23
-23.0000000000001
 33
0
 14
86.7
 24
-39.1
 34
0
 50
90
100
AcDbRotatedDimension
  0
DIMENSION
  5
18D
100
AcDbEntity
  8
rozmir
  6
ByLayer
 62
  256
370
   -1
100
AcDbDimension
  2
*D19
 10
100
 20
-97.2
 30
0
 11
97.25
 21
-69.15000000000001
 31
0
 70
   32
 71
    5
  3
Standard
 53
0
210
0
220
0
230
1
100
AcDbAlignedDimension
 13
86.6999999999999
 23
-41.1
 33
0
 14
86.69999999999992
 24
-97.2
 34
0
 50
90
100
AcDbRotatedDimension
  0
DIMENSION
  5
18E
100
AcDbEntity
  8
rozmir
  6
ByLayer
 62
  256
370
   -1
100
AcDbDimension
  2
*D20
 10
100
 20
-115.3000000000001
 30
0
 11
97.25
 21
-107.2500000000001
 31
0
 70
   32
 71
    5
  3
Standard
 53
0
210
0
220
0
230
1
100
AcDbAlignedDimension
 13
86.6999999999999
 23
-99.20000000000002
 33
0
 14
89.69999999999986
 24
-115.3000000000001
 34
0
 50
90
100
AcDbRotatedDimension
  0
DIMENSION
  5
18F
100
AcDbEntity
  8
rozmir
  6
ByLayer
 62
  256
370
   -1
100
AcDbDimension
  2
*D21
 10
40.59999999999993
 20
-31
 30
0
 11
36.59999999999997
 21
-28.25
 31
0
 70
   32
 71
    5
  3
Standard
 53
0
210
0
220
0
230
1
100
AcDbAlignedDimension
 13
32.6
 23
-39.14285714285715
 33
0
 14
40.59999999999993
 24
-41.09999999999993
 34
0
100
AcDbRotatedDimension
  0
DIMENSION
  5
190
100
AcDbEntity
  8
rozmir
  6
ByLayer
 62
  256
370
   -1
100
AcDbDimension
  2
*D22
 10
86.7
 20
-31
 30
0
 11
82.70000000000005
 21
-28.25
 31
0
 70
   32
 71
    5
  3
Standard
 53
0
210
0
220
0
230
1
100
AcDbAlignedDimension
 13
78.70000000000007
 23
-41.1
 33
0
 14
86.7
 24
-39.1
 34
0
100
AcDbRotatedDimension
  0
DIMENSION
  5
191
100
AcDbEntity
  8
rozmir
  6
ByLayer
 62
  256
370
   -1
100
AcDbDimension
  2
*D23
 10
76.69999999999999
 20
-31
 30
0
 11
59.64999999999999
 21
-28.25
 31
0
 70
   32
 71
    5
  3
Standard
 53
0
210
0
220
0
230
1
100
AcDbAlignedDimension
 13
42.59999999999999
 23
-41.10000000000001
 33
0
 14
76.69999999999999
 24
-41.1
 34
0
100
AcDbRotatedDimension
  0
DIMENSION
  5
192
100
AcDbEntity
  8
rozmir
  6
ByLayer
 62
  256
370
   -1
100
AcDbDimension
  2
*D24
 10
85
 20
-50.10000000000001
 30
0
 11
82.25
 21
-45.60000000000001
 31
0
 70
   32
 71
    5
  3
Standard
 53
0
210
0
220
0
230
1
100
AcDbAlignedDimension
 13
78.70000000000007
 23
-41.1
 33
0
 14
76.7
 24
-50.10000000000001
 34
0
 50
90
100
AcDbRotatedDimension
  0
DIMENSION
  5
193
100
AcDbEntity
  8
rozmir
  6
ByLayer
 62
  256
370
   -1
100
AcDbDimension
  2
*D25
 10
85
 20
-88.2
 30
0
 11
82.25
 21
-92.7
 31
0
 70
   32
 71
    5
  3
Standard
 53
0
210
0
220
0
230
1
100
AcDbAlignedDimension
 13
78.69999999999993
 23
-97.2
 33
0
 14
76.7
 24
-88.2
 34
0
 50
90
100
AcDbRotatedDimension
  0
DIMENSION
  5
194
100
AcDbEntity
  8
rozmir
  6
ByLayer
 62
  256
370
   -1
100
AcDbDimension
  2
*D26
 10
21.4929162534558
 20
-28.56638086653497
 30
0
 11
13.0613324213773
 21
-33.02317676789319
 31
0
 70
   33
 71
    5
  3
Standard
 53
0
210
0
220
0
230
1
100
AcDbAlignedDimension
 13
3
 23
-35.82842712474618
 33
0
 14
16
 24
-23
 34
0
  0
LWPOLYLINE
  5
195
100
AcDbEntity
  8
obshivka
  6
ByLayer
 62
  256
370
   -1
100
AcDbPolyline
 90
    4
 70
    1
 43
0
 10
201
 20
181.5
 10
297.3
 20
181.5
 10
297.3
 20
0.5
 10
201
 20
0.5
  0
DIMENSION
  5
196
100
AcDbEntity
  8
rozmir
  6
ByLayer
 62
  256
370
   -1
100
AcDbDimension
  2
*D27
 10
308
 20
0.9999999999999987
 30
0
 11
305.25
 21
91.00000000000003
 31
0
 70
   32
 71
    5
  3
Standard
 53
0
210
0
220
0
230
1
100
AcDbAlignedDimension
 13
297.3
 23
181.5
 33
0
 14
297.3
 24
0.5
 34
0
 50
90
100
AcDbRotatedDimension
  0
ENDSEC
  0
SECTION
  2
OBJECTS
  0
DICTIONARY
  5
C
330
0
100
AcDbDictionary
281
    1
  3
ACAD_GROUP
350
D
  0
DICTIONARY
  5
D
330
C
100
AcDbDictionary
281
    1
  0
ENDSEC
  0
EOF
